<?xml version="1.0" encoding="utf-8"?>
<!-- Generator: Adobe Illustrator 24.3.0, SVG Export Plug-In . SVG Version: 6.00 Build 0)  -->
<svg version="1.1" id="Camada_1" xmlns="http://www.w3.org/2000/svg" xmlns:xlink="http://www.w3.org/1999/xlink" x="0px" y="0px"
	 viewBox="0 0 384 860.4" style="enable-background:new 0 0 384 860.4;" xml:space="preserve">
<style type="text/css">
	.st0{opacity:0.5;}
	.st1{fill-rule:evenodd;clip-rule:evenodd;fill:#E56DF6;}
</style>
<g id="Camada_2_1_" class="st0">
	<g id="Camada_1-2">
		<path class="st1" d="M236.1,508.9c11,5.9,17.4,13.5,23.2,21.3c10.2,13.7,19.8,27.9,29.6,41.8c7.4,10.4,8.6,21.2,2.7,32.8
			c-7.7,15.2-15,30.7-22.4,45.9c-11.5,2.2-8.5-12.9-17.9-13.8c-1.5,1.2-4,2.5-5.5,4.6c-23.6,33.9-46.4,68.3-66.1,104.8
			c-14.5,26.8-31.2,52.5-47,78.5c-0.8,1.4-2.9,2-5.2,3.6c-2.9-5.5-5.9-10.9-8.6-16.4c-13.5-28.4-26.3-57.1-40.6-85
			c-6.3-12.3-7.7-22.9-1.4-35.6c7.6-15.2,13.2-31.4,20-47.1c1.3-3.1,3.6-5.8,6-9.4c8.6,2.5,10.9,9.8,14.9,15.3s8.2,11.3,13.5,18.5
			c11.1-9.1,16.6-20.1,23-30.6c22.3-36.9,44.8-73.7,67.6-110.3C225.6,521.9,230.4,516.5,236.1,508.9z"/>
		<path class="st1" d="M248.1,674.5c17.9,62,30.9,120.2,36.5,181c-16.8,6.4-32,4.5-46.8,4.8c-16.1,0.3-32.3,0.1-48.4-0.3
			c-15-0.4-30.3,2-47.2-2c0.9-4.9,0.7-9.4,2.5-12.8c8.2-15.9,16.8-31.6,25.7-47.1c11.1-19.4,22.5-38.6,33.9-57.9
			c10-17,20-34,30.4-50.7C237.4,685.1,241.6,681.6,248.1,674.5z"/>
		<path class="st1" d="M275.1,376.9c5.8,9.8,6.1,20.6,7.4,31.2s2.3,21.5,4.2,32c2.1,11.2,0.9,21.4-5.4,30.9s-10.4,20.5-19.1,29.1
			l-27.8-18.7c-17.8,17-26.2,39.4-42.8,58.5c-2.1-6.2-4.5-10-4.7-14c-1.3-21.5-2.9-43-2.7-64.5c0.2-14.9,6.9-27,20.2-35.9
			c15.6-10.4,30-22.8,45-34.1c5.7-4.3,11.5-8.6,17.5-12.5C269.1,377.6,272,377.6,275.1,376.9z"/>
		<path class="st1" d="M110.7,856.8c-5.1,1.3-8.4,2.9-11.8,2.9c-31.3,0-62.7-0.2-94-0.7c-1.4,0-2.7-2-4.9-3.7
			c1.3-15,9.9-28.1,16.3-41.3c12.5-25.6,27.7-50,42.7-76.3c3.7,4.9,7.9,9.2,10.8,14.3C87.9,784.2,105.5,829.1,110.7,856.8z"/>
		<path class="st1" d="M306.6,415.1c-2.5-14-5.1-25-6.4-36.2c-2.5-20.4-4.2-41-6.4-61.4c-0.9-8.3,0.5-15.4,6.4-22.3
			c9.8-11.5,18.4-24.1,28.8-38c3.5,4.6,6.5,7.6,8.2,11.1c10.9,22.6,19.8,46.3,32.6,67.7c11.5,19.1,6.4,35.2-0.9,56.1
			c-9-10.1-15.8-17.8-23.7-26.7C328.9,378.8,324.6,400.8,306.6,415.1z"/>
		<path class="st1" d="M323.9,150.6c3,4.1,5.5,6.6,6.9,9.6c8.1,18,15.5,36.2,24,54c5.7,11.9,5.1,22.2-5,32.9
			c-5.4-6.2-10.5-12-16.2-18.5c-16.7,12.8-24.3,32.1-40.8,46.4c-1.9-4-3.9-6.6-4.4-9.6c-1.7-9.7-3.4-19.5-3.9-29.3
			c-0.2-5.3,0.8-10.5,3-15.3c9.2-19.3,19.1-38.4,28.8-57.5C318.3,159.5,320.7,155.9,323.9,150.6z"/>
		<path class="st1" d="M132.7,638.5c-9.5-8.2-12.6-18.6-16.7-28.1c-1.2-2.9-0.9-7.3,0.4-10.3c13.9-31.7,28.2-63.3,43.8-98.2
			c3.5,5.6,6,8,6.4,10.7c2.2,16.8,4.3,33.7,5.6,50.6c0.4,5.1-0.2,11.1-2.7,15.4C158,598.4,145.6,617.8,132.7,638.5z"/>
		<path class="st1" d="M269,268.4c1.7,7.7,2.8,10.7,3,13.9c1.4,20.5,2.7,41,4,62.6c-22.9,12.6-37.9,34.3-64.7,51.9
			c14.9-43.5,33-78.3,48.8-114C261.7,279,264.4,275.8,269,268.4z"/>
		<path class="st1" d="M384,727.8l-2.2-4.2c-4.1-7.7-9.6-14.6-16.7-25.2c-4,16.6-6.7,29.5-10.2,42.1c-9.9,35.6-25.6,68.9-41.4,102.1
			c-2.1,4.4-2.6,9.6-3.8,14.2c3.3,1.3,5,2.5,6.6,2.5c22.6-0.4,45.2-0.9,67.8-1.4V727.8z"/>
		<path class="st1" d="M384,554.5c-10.5-12.5-22.3-23.8-35.3-33.6c-2.7,3.1-5.1,4.7-6.1,6.9c-20.7,48.7-41.4,97.5-61.9,146.3
			c-0.7,1.7-2,3.2-2.1,4.9c-0.4,7-2.7,15-0.2,20.9c10.8,26.1,14.3,53.6,18.2,81.2c1,6.8,2.3,13.6,3.5,20.7c2.5-1.3,4.8-1.7,5.4-2.9
			c6.9-13.6,14.4-26.9,20.2-41c12.5-30.1,16.8-62.3,22-94.2c0.7-4.1,0.2-9.3,7.9-10.1c10.1,11.1,19.2,23.4,28.6,37L384,554.5z"/>
		<path class="st1" d="M384,452.5c-9.5-15.5-19-31.1-28.8-46.5c-2.2-3.5-5.7-6.2-9.7-10.4c-29.6,39.9-45.7,84.2-64.1,128.1
			c4.1,6.2,7.7,12.3,12,18c4,5.3,8.8,10.1,15.2,17.2c8.3-19.9,15.3-37.2,22.7-54.4c2-4.5,5.2-8.4,8.9-14.2l42,28.6
			c0.7-2.2,1.3-4.4,1.9-6.5L384,452.5z"/>
		<path class="st1" d="M384,209.8c-5.8,23.5-11.5,46.7-17,69.9c-0.8,3.5-0.6,7.1,0.7,10.5c4.6,11.2,8.7,22.9,16.3,34.1L384,209.8z"
			/>
		<path class="st1" d="M384,85.3c-19.2,12.9-38.8,27.5-47.6,36.2c4.2,22,18.8,54.5,30.6,67.4l15.7-40.9c0.4,0.2,0.8,0.4,1.3,0.5
			V85.3z"/>
		<path class="st1" d="M384,0c-7.4,10.9-9.6,22.8-13.3,33.8c-4.2,12.5-13.8,24-10.9,42L384,58.6V0z"/>
	</g>
</g>
</svg>
