<svg xmlns="http://www.w3.org/2000/svg" viewBox="0 0 384.05 860.41"><defs><style>.cls-1{fill:#e56df6;fill-rule:evenodd;}</style></defs><g id="Camada_2" data-name="Camada 2"><g id="Camada_1-2" data-name="Camada 1"><path class="cls-1" d="M236.06,508.93c11,5.89,17.4,13.53,23.25,21.33,10.23,13.65,19.75,27.86,29.61,41.79,7.4,10.44,8.58,21.2,2.72,32.84-7.66,15.23-15,30.65-22.37,45.93-11.52,2.21-8.51-12.88-17.9-13.84-1.48,1.22-4,2.54-5.5,4.62-23.59,33.94-46.36,68.34-66.11,104.78-14.52,26.81-31.21,52.45-47,78.54-.84,1.38-2.86,2-5.23,3.64-2.89-5.53-5.91-10.87-8.55-16.4-13.5-28.37-26.29-57.11-40.62-85-6.32-12.32-7.7-22.92-1.45-35.59,7.55-15.25,13.25-31.4,20-47.08,1.33-3.08,3.64-5.76,6-9.43,8.63,2.53,10.93,9.79,14.92,15.31s8.23,11.29,13.51,18.54c11.06-9.1,16.6-20.09,23-30.56Q187.8,583,221.89,528C225.63,521.94,230.38,516.52,236.06,508.93Z"/><path class="cls-1" d="M248.05,674.51c17.92,62,30.88,120.17,36.51,181-16.75,6.38-32,4.5-46.83,4.77-16.13.29-32.29.06-48.43-.34-15-.36-30.26,2-47.16-2,.88-4.88.7-9.38,2.5-12.85Q157,821.3,170.36,798c11.09-19.43,22.53-38.64,33.91-57.9,10-17,20-34,30.39-50.67C237.37,685.06,241.56,681.62,248.05,674.51Z"/><path class="cls-1" d="M275.13,376.89c5.81,9.8,6.07,20.62,7.42,31.18s2.27,21.45,4.25,32c2.1,11.17.87,21.39-5.43,30.94S271,491.56,262.26,500.14l-27.84-18.7c-17.78,17-26.24,39.37-42.79,58.54-2.15-6.17-4.49-10-4.73-14.05-1.29-21.5-2.92-43-2.68-64.54.16-14.88,6.92-27,20.21-35.87,15.65-10.42,30-22.75,45-34.15,5.7-4.34,11.48-8.6,17.52-12.45C269.1,377.59,272.05,377.61,275.13,376.89Z"/><path class="cls-1" d="M110.66,856.84c-5.11,1.31-8.43,2.88-11.75,2.88q-47,0-94-.66c-1.38,0-2.73-2-4.92-3.71,1.29-15,9.85-28.08,16.31-41.26C28.83,788.46,44,764.11,59,737.76c3.73,4.9,7.93,9.25,10.8,14.34C87.92,784.23,105.52,829.11,110.66,856.84Z"/><path class="cls-1" d="M306.59,415.13c-2.52-13.95-5.07-25-6.43-36.24-2.5-20.44-4.25-41-6.39-61.43-.86-8.32.48-15.4,6.37-22.27,9.82-11.49,18.37-24.07,28.79-38,3.46,4.63,6.46,7.56,8.16,11.11C348,290.9,356.85,314.6,369.66,336c11.47,19.13,6.37,35.2-.86,56.09-9-10.14-15.81-17.81-23.69-26.68C328.92,378.75,324.56,400.78,306.59,415.13Z"/><path class="cls-1" d="M323.9,150.59c3,4.09,5.53,6.56,6.88,9.57,8.1,18,15.51,36.24,24,54,5.71,11.92,5.14,22.18-5,32.91-5.4-6.17-10.5-12-16.16-18.53-16.68,12.84-24.33,32.12-40.81,46.4-1.88-4-3.87-6.65-4.37-9.56-1.68-9.7-3.38-19.46-3.93-29.26a32.86,32.86,0,0,1,3.05-15.33c9.25-19.33,19.08-38.39,28.81-57.5C318.33,159.47,320.73,155.9,323.9,150.59Z"/><path class="cls-1" d="M132.66,638.53c-9.49-8.19-12.55-18.6-16.66-28.11-1.25-2.89-.9-7.34.41-10.34,13.91-31.71,28.17-63.26,43.84-98.22,3.46,5.63,6,8,6.39,10.67,2.22,16.83,4.28,33.69,5.65,50.6.41,5.08-.25,11.14-2.73,15.4C158,598.37,145.55,617.75,132.66,638.53Z"/><path class="cls-1" d="M269,268.37c1.68,7.67,2.78,10.74,3,13.89,1.43,20.5,2.66,41,4,62.6-22.85,12.56-37.92,34.3-64.74,51.86,14.93-43.52,33-78.31,48.81-114C261.73,279,264.35,275.77,269,268.37Z"/><path class="cls-1" d="M384.05,727.85l-2.22-4.17c-4.11-7.67-9.63-14.59-16.72-25.18-4,16.63-6.67,29.5-10.2,42.13-9.93,35.59-25.56,68.87-41.44,102.09-2.12,4.41-2.63,9.59-3.84,14.22,3.33,1.3,5,2.51,6.6,2.47q33.9-.66,67.82-1.42Z"/><path class="cls-1" d="M384.05,554.55a218.93,218.93,0,0,0-35.32-33.61c-2.74,3.06-5.1,4.7-6.07,6.94Q311.55,601,280.75,674.14c-.7,1.65-2,3.25-2.13,4.91-.4,7-2.7,15-.24,20.89,10.83,26.1,14.32,53.63,18.21,81.15,1,6.82,2.28,13.58,3.48,20.7,2.47-1.27,4.75-1.66,5.37-2.88,6.93-13.56,14.35-26.93,20.17-41,12.49-30.12,16.77-62.3,22-94.2.68-4.14.16-9.27,7.9-10.07,10.1,11.12,19.22,23.41,28.57,37Z"/><path class="cls-1" d="M384.05,452.47C374.51,436.94,365,421.4,355.21,406c-2.22-3.5-5.73-6.19-9.74-10.43-29.58,39.87-45.71,84.22-64.09,128.07,4.09,6.18,7.71,12.34,12,18,4,5.31,8.81,10.08,15.16,17.24,8.28-19.9,15.3-37.22,22.73-54.36,2-4.49,5.22-8.42,8.88-14.17l42,28.58c.68-2.23,1.32-4.37,1.94-6.47Z"/><path class="cls-1" d="M384.05,209.8c-5.78,23.52-11.45,46.71-17,69.91a18,18,0,0,0,.69,10.46c4.65,11.23,8.7,22.86,16.29,34.14Z"/><path class="cls-1" d="M384.05,85.31c-19.25,12.91-38.76,27.54-47.61,36.22,4.25,22,18.84,54.51,30.61,67.42l15.74-40.86c.43.18.84.37,1.26.54Z"/><path class="cls-1" d="M384.05,0c-7.44,10.86-9.59,22.76-13.26,33.75-4.2,12.55-13.82,24-10.85,42l24.11-17.18Z"/></g></g></svg>