<svg xmlns="http://www.w3.org/2000/svg" viewBox="0 0 772.77 864.63"><defs><style>.cls-1{fill:#e56df6;fill-rule:evenodd;}</style></defs><g id="Camada_2" data-name="Camada 2"><g id="Camada_1-2" data-name="Camada 1"><path class="cls-1" d="M236.06,513.14c11,5.89,17.4,13.53,23.25,21.34,10.23,13.65,19.75,27.86,29.61,41.79,7.4,10.43,8.58,21.2,2.72,32.83-7.66,15.23-15,30.66-22.37,45.94-11.52,2.21-8.51-12.88-17.9-13.84-1.48,1.22-4,2.54-5.5,4.62-23.59,33.93-46.36,68.34-66.11,104.78-14.52,26.8-31.21,52.45-47,78.54-.84,1.38-2.86,2-5.23,3.64-2.89-5.53-5.91-10.87-8.55-16.4-13.5-28.38-26.29-57.12-40.62-85.06C72,719,70.61,708.41,76.86,695.74c7.55-15.25,13.25-31.4,20-47.08,1.33-3.08,3.64-5.76,6-9.43,8.63,2.53,10.93,9.79,14.92,15.31s8.23,11.29,13.51,18.54c11.06-9.1,16.6-20.09,23-30.57q33.57-55.31,67.66-110.29C225.63,526.16,230.38,520.73,236.06,513.14Z"/><path class="cls-1" d="M581.8,718.74,560.35,686c-3.39,2.75-6.71,4.28-8.25,6.89-11.07,18.46-22.79,36.65-32.3,55.92-9.88,20-17.58,41.2-26.08,61.92-5.76,14-11.26,28.18-18,44.93-4.27-5.08-7.31-7.78-9.24-11.13q-20.11-35-39.79-70.23c-2.61-4.66-4.23-9.87-6.58-14.7-4.19-8.62-3-16.62-.39-25.85,14.64-52.85,39.25-102,56.23-154,4.69-14.35,8-29.34,16.18-41.36,7.5-2.94,11.46,1.62,15.11,5C529.8,564,551.67,585.05,565.78,613c8,16,18.86,30.51,28.31,45.75,6,9.61,8.51,19.31,2.86,30.38C592.15,698.59,591.69,710.15,581.8,718.74Z"/><path class="cls-1" d="M448.48,405.55c22.39,15.86,32.21,37.94,48.64,54s28.91,36.26,50.35,50.23c15.07-25.3,16-55.51,30.86-79.27,7.24-.76,8.19,4.74,9.88,8.16,17.81,36.21,35,72.75,53.08,108.81,5.3,10.53,6,20,1.65,30.72-8.66,21.55-16.76,43.34-24.72,64-7.68,2-9.52-2.82-11.72-6.15-8.89-13.48-17.82-27-26.07-40.82-18.74-31.46-44.58-55.93-74.61-76.17-6.39-4.33-14.08-6.74-22.35-10.57-17,31.12-20.22,66.31-39.85,96.9-17.24-19.59-26-42.44-42.65-61.53C417.91,498.87,432.51,453.13,448.48,405.55Z"/><path class="cls-1" d="M401.48,720.85c-16.15-24.31-29.81-45.14-46-63-7.74.8-7.22,5.93-7.9,10.07-5.2,31.9-9.48,64.08-22,94.19-5.82,14-13.24,27.42-20.17,41-.62,1.22-2.9,1.61-5.37,2.88-1.2-7.12-2.51-13.88-3.48-20.7-3.89-27.52-7.38-55-18.21-81.15-2.46-5.92-.16-13.89.24-20.89.09-1.66,1.43-3.26,2.13-4.91q30.92-73.14,61.91-146.26c1-2.24,3.33-3.88,6.07-6.94a224.94,224.94,0,0,1,43.34,43.57c14.9,19.48,23.82,42.14,33.93,64.14a29.08,29.08,0,0,1,.42,23.57C418.61,676.35,411,696.34,401.48,720.85Z"/><path class="cls-1" d="M248.05,678.73c17.92,62,30.88,120.17,36.51,181-16.75,6.38-32,4.5-46.83,4.76-16.13.3-32.29.06-48.43-.34-15-.35-30.26,2.05-47.16-2,.88-4.88.7-9.38,2.5-12.86q12.39-23.79,25.72-47.1c11.09-19.43,22.53-38.64,33.91-57.9,10-17,20-33.95,30.39-50.68C237.37,689.28,241.56,685.84,248.05,678.73Z"/><path class="cls-1" d="M409.52,289.25c-3.34,8-6.37,15.34-9.5,22.65s-6.38,14.47-10.53,23.88c-11.33-13.5-16.08-27.74-21.73-41.39a18,18,0,0,1-.69-10.47c8.3-34.8,16.9-69.54,25.73-105.5,16.94,8.14,23.33,24.77,32.54,38.52,9.39,14.05,17.06,29.24,26.91,46.4,3.49-5.73,6.44-8.89,7.47-12.58,4.57-16.34,10.15-32.15,19.21-49.08,5.21,9.41,9.44,16.26,12.92,23.49,9.71,20.2,18.34,41,28.92,60.68,6.5,12.1,8.41,23.37,3.37,36-3.28,8.18-6.34,16.46-10.3,26.86-17.62-12.79-32.75-25.16-49.25-35.34S430.34,294.08,409.52,289.25Z"/><path class="cls-1" d="M709.91,695.51c-27.77,48.22-75.07,118.28-90.33,133.75-9.85-19.53-15.71-40.11-20.27-60.82-1.78-8.15.17-18.07,3.13-26.18C619.37,696,637.11,650,654.63,603.91c.93-2.44,2.46-4.65,4.65-8.73,2.88,2.7,6.05,4.4,7.28,7C681.07,633,695.28,663.9,709.91,695.51Z"/><path class="cls-1" d="M365.11,702.72c7.09,10.59,12.61,17.51,16.72,25.18q33.65,62.8,66.59,126c.62,1.21-.57,3.36-1.08,5.84a92.48,92.48,0,0,1-10,1.28q-60.51,1.44-121.06,2.64c-1.62,0-3.27-1.18-6.6-2.48,1.21-4.63,1.72-9.8,3.84-14.21,15.88-33.22,31.51-66.5,41.44-102.1C358.44,732.22,361.11,719.35,365.11,702.72Z"/><path class="cls-1" d="M629.66,858.16c1-4.43.85-7.31,2.14-9.26,28.1-42.75,56.33-85.39,85.93-130.15,3.93,5.86,7,9.09,8.54,13,15.61,40,31,80.1,46.5,120.39-20.23,4.82-78.46,8.42-127.14,7.95C640.59,860,635.56,858.88,629.66,858.16Z"/><path class="cls-1" d="M382.79,152.31l-15.74,40.86c-11.77-12.91-26.36-45.44-30.61-67.43,15.24-14.94,62.1-47.54,84.81-58.64,8,17.83,16,35.6,23.89,53.43,2.9,6.53,4.72,13.74,8.52,19.69,17.48,27.4,5.43,52.58-4.44,81.53C430.15,193.75,415.41,165.63,382.79,152.31Z"/><path class="cls-1" d="M275.13,381.11c5.81,9.79,6.07,20.62,7.42,31.18s2.27,21.45,4.25,32c2.1,11.17.87,21.39-5.43,30.94S271,495.77,262.26,504.36l-27.84-18.71c-17.78,17-26.24,39.38-42.79,58.55-2.15-6.17-4.49-10-4.73-14.05-1.29-21.5-2.92-43-2.68-64.54.16-14.88,6.92-27,20.21-35.87,15.65-10.42,30-22.76,45-34.16,5.7-4.33,11.48-8.59,17.52-12.44C269.1,381.81,272.05,381.83,275.13,381.11Z"/><path class="cls-1" d="M382.11,523.12l-42-28.59c-3.66,5.76-6.93,9.68-8.88,14.18-7.43,17.13-14.45,34.45-22.73,54.35-6.35-7.15-11.12-11.92-15.16-17.23-4.29-5.64-7.91-11.79-12-18,18.38-43.85,34.51-88.2,64.09-128.08,4,4.24,7.52,6.94,9.74,10.44,11.5,18.14,22.69,36.47,33.93,54.76,5,8,6.35,16.34,3,25.59C388.62,500.48,385.91,510.67,382.11,523.12Z"/><path class="cls-1" d="M601.59,857.26c-30.14,4.86-78.29,4-100.12-1.62.93-5.65.93-11.85,3-17.24,14.68-38.31,25.58-78.39,50.83-111.64,2.41.61,5,.54,5.53,1.53C581.15,768.45,594.22,810.86,601.59,857.26Z"/><path class="cls-1" d="M110.66,861.06c-5.11,1.31-8.43,2.88-11.75,2.88q-47,0-94-.67c-1.38,0-2.73-2-4.92-3.7,1.29-15,9.85-28.08,16.31-41.26C28.83,792.67,44,768.33,59,742c3.73,4.9,7.93,9.24,10.8,14.33C87.92,788.44,105.52,833.33,110.66,861.06Z"/><path class="cls-1" d="M420.31,310.17c37.11,13.26,64.88,32.85,84.07,66.22-4.5,10.72-9.21,22.21-14.22,33.57-.59,1.37-2.78,2-5.4,3.8C472.94,401,460.94,388,447.65,373.59c-3.72,4.11-7.32,6.7-9,10.21-4.6,9.65-8.46,19.69-12.51,29.62-5.05,12.37-10,24.78-15,37.25-18.82-9.13-26.84-22.7-22.49-39.57,6.92-26.81,14.65-53.43,22.47-80C413.08,324.38,416.73,318.15,420.31,310.17Z"/><path class="cls-1" d="M306.59,419.35c-2.52-14-5.07-25-6.43-36.24-2.5-20.44-4.25-41-6.39-61.43-.86-8.32.48-15.4,6.37-22.27,9.82-11.49,18.37-24.07,28.79-38,3.46,4.63,6.46,7.56,8.16,11.11,10.86,22.56,19.76,46.26,32.57,67.62,11.47,19.14,6.37,35.21-.86,56.1-9-10.14-15.81-17.81-23.69-26.68C328.92,383,324.56,405,306.59,419.35Z"/><path class="cls-1" d="M540.41,333.58C554,354.7,560.81,373.67,566,392.92c-7.55,26.86-14.86,53.36-26.67,80.07-16.93-11-28.48-25.08-38.6-39.74C513.71,400.69,526.2,369.28,540.41,333.58Z"/><path class="cls-1" d="M323.9,154.81c3,4.09,5.53,6.56,6.88,9.57,8.1,18,15.51,36.23,24,54,5.71,11.93,5.14,22.19-5,32.92-5.4-6.17-10.5-12-16.16-18.54-16.68,12.85-24.33,32.12-40.81,46.41-1.88-4-3.87-6.66-4.37-9.56-1.68-9.7-3.38-19.47-3.93-29.27A32.82,32.82,0,0,1,287.58,225c9.25-19.34,19.08-38.4,28.81-57.5C318.33,163.69,320.73,160.12,323.9,154.81Z"/><path class="cls-1" d="M132.66,642.75c-9.49-8.19-12.55-18.6-16.66-28.12-1.25-2.88-.9-7.33.41-10.33,13.91-31.71,28.17-63.27,43.84-98.22,3.46,5.63,6,8,6.39,10.67,2.22,16.83,4.28,33.69,5.65,50.6.41,5.08-.25,11.14-2.73,15.4C158,602.59,145.55,622,132.66,642.75Z"/><path class="cls-1" d="M269,272.59c1.68,7.67,2.78,10.74,3,13.88,1.43,20.51,2.66,41,4,62.6-22.85,12.57-37.92,34.31-64.74,51.87,14.93-43.52,33-78.31,48.81-114C261.73,283.22,264.35,280,269,272.59Z"/><path class="cls-1" d="M409,45c-16.4,11.71-31.53,22.5-49,35-3-17.94,6.65-29.42,10.85-42s6.34-26,16.47-38C398.68,13.76,404.53,28.64,409,45Z"/></g></g></svg>