<svg xmlns="http://www.w3.org/2000/svg" viewBox="0 0 939.6 1042.2"><defs><style>.cls-1{fill:#e56df6;}</style></defs><g id="Camada_2" data-name="Camada 2"><g id="Camada_1-2" data-name="Camada 1"><path class="cls-1" d="M460.12,621.38c-3.59-.74-4.81,2.06-5.73,4.42-2.73,7.09-4.79,14.47-7.73,21.49s-6,14-10.05,20.39c-8.74,13.6-9.17,13.5-27.93,15.78-1.85-4.67,1.71-8.17,3.14-11.8,4.79-12.13,10.29-23.95,15.48-35.91.87-2,2-4,2.3-6.09.19-1.34-1-2.86-1.52-4.28-1.32.69-3.29,1-3.8,2.09-3.53,7.35-6.23,15.12-10.15,22.21-6.55,11.9-14.24,23.18-20.61,35.16-3.65,6.89-8.58,10.9-16,12.55-2.49.58-4.86,1.7-8.37,3-1.74-7.9,3.28-13.26,4.3-19.32,1.05-6.24,5.13-11.92,7.49-18s4.19-12.15,6.16-18c-3-3-4.69-.84-5.59.82-2.34,4.3-4.09,8.91-6.31,13.26-4.7,9.18-9.57,18.26-14.32,27.42-3.41,6.61-6.72,13.28-10.86,21.49-4.23,1.46-10.3,3.58-16.16,5.64-4.19-3.47-2.59-7.49-1.22-10.7,4.7-11,10-21.65,15-32.5,1.71-3.75,5-7.24,2.54-12-5.53,3.08-9.07,7.62-11.6,13.31-7,15.86-14.29,31.61-21.45,47.35-7.85,5.46-16.72,7.2-26.59,7.93-1-5.21,1-9.34,3.28-13.73,5.92-11.62,11.52-23.41,16.89-35.29,1.47-3.24,1.74-7,2.47-10.25-3.72-2.38-5,.11-5.58,1.74-7.09,19-18.1,35.83-29.35,52.52-1.78,2.63-2.55,5.94-4,9.47L257,737.68c6.87-21,12.48-41.25,22-59.91-2.18-2.41-4.51-2.14-5.6,0-3.78,7.2-7.44,14.47-10.61,21.95-4.86,11.51-9.87,22.9-17,33.23-2.11,3.05-3.58,6.89-6.36,9-3.72,2.87-8.44,4.44-14.37,7.39,3.45-26.35,13.63-48.58,26.93-73.21-9.26,4.39-12,9.56-14.29,14.79-5.57,12.41-10.84,25-16.2,37.44-2.36,5.49-4.65,11-7,16.51-2.83,6.65-7.71,10.34-15.3,10.32-3.37-4.92-.36-9,1.66-13.37,5-10.82,10.2-21.61,14.78-32.64,2.84-6.84,5.52-13.93,4.67-24.46-2.61,4.47-4.35,6.51-5.11,8.88-6.34,19.91-16.43,37.84-28.06,55.06-3,4.38-4.88,9.46-8.23,16.16a46.37,46.37,0,0,1-6.66,3.31c-2.8,1-5.15,4.34-9.85,1.68,2-4.61,4.12-9.35,6.24-14.07,6.19-13.92,12.49-27.8,18.55-41.76a46.53,46.53,0,0,0,3.26-10.92,7.79,7.79,0,0,0-1.86-5.48c-1.47-1.71-4.56.58-5.36,4-4.8,20.9-14.41,39.68-25.4,57.84-.84,1.4-1.67,3.19-3,3.83-6.63,3.25-6.53,9.17-5.63,15.13-5.59,2.26-9.95,5.44-16.94,6.22,3.78-16.87,13.82-29.34,19.71-43.59,6-14.49,13.53-28.34,20.06-41.81,11.88-5.69,23.57-11.34,35.31-16.85,6.38-3,12.66-6.76,19.42-8.27,9.71-2.17,18.45-6.11,27.32-10.31A173.73,173.73,0,0,1,277,655.08c11.36-3.55,22.93-6.39,34.38-9.66,5.22-1.49,10.63-2.7,15.46-5.06,18.2-8.89,37.39-14.75,56.86-19.92a131.9,131.9,0,0,0,32.94-13.91c3.62-2.13,7.82-3.42,11.89-4.68,5.16-1.61,10.59-2.42,15.66-4.27,24.51-8.89,48.91-18.09,73.43-27,4.56-1.66,9.55-2.12,14.2-3.61,28.47-9,56.86-18.37,85.38-27.34,8.63-2.7,17.28-5.74,27.88-7.22-10.61,24.67-20.66,47.39-30.16,70.35-3.93,9.5-6.56,19.56-10.08,29.24-2.16,5.93-2.39,13-9.73,16.13-1.17.51-2,4.05-1.57,5.8,1.57,5.84-.77,10.63-3,15.63s-4.19,10-6,15.09c-3.85,10.7-7.65,21.38-12.61,31.67-12.52,25.94-21.49,53.52-36,78.61-2.41,4.17-3.65,9.07-5.18,13.71-3.11,9.43-8.12,17.71-15,26.1-7.11.55-14.65,1.3-22.22,1.61-4.27.19-8.56-.35-13.41-.58.1-7.72,1.73-13.47,9.8-15.17,4.26-.89,8.55-1.65,12.76-2.71,5.65-1.43,11.24-3.08,17.8-4.9-2.79-4.11-6.09-3.42-8.86-3.58-3.79-.23-7.61,0-11.43,0-3.24,0-6.49,0-9.61,0-2.87-3.54-1.81-6.45,1.76-7.82,7.51-2.86,14.35-7.6,22.81-7.92,2.57-.09,5.36-1.24,5.7-5.57l-21.68-1.92c-2.26-5.21.09-8.37,3.82-9.82,7.56-2.94,15.38-5.23,23.14-7.66,3.05-1,6.55-1.19,7.2-6.26-8.28-2.25-16.74,0-24.7-.05-2.62-3.58-.63-6.06,1.65-7,6.52-2.58,13.27-4.56,20-6.63,3.48-1.07,7.74-.8,9.11-6.59H517.73c-2.88-3.6-2.35-6.17.54-7.32,8.56-3.36,17.34-6.18,25.94-9.48,5.69-2.18,12.75-1.71,17.67-9.39-13.6,1-25.81,1.89-39,2.87L526,709c14.19-6.15,28.08-12.14,41.91-18.27.67-.3.81-1.82,1.61-3.83l-37.14,6.22c.41-9.78.4-9.81,6.28-11.46,7.76-2.17,15.58-4.15,23.28-6.51,2.32-.71,4.33-2.4,9.38-5.31H539.65c1-4.41,1.93-8.43,2.72-12.49,1.93-9.72-.68-13.14-10.81-13-4.63.06-9.24,1.57-15.18,2.67C522.67,628,532.1,611,537,592.81c-3.12-2.68-4.54-.9-5.52,1.1-3.82,7.82-7.39,15.76-11.28,23.54-6,12.14-12.24,24.18-18.21,35.91-6.39,3.46-12.27,5.89-19.66,6.94-.81-8.13,4.62-13.37,7-19.56,2.56-6.59,6.13-12.77,8.45-19.43,2.21-6.35,7.33-11.77,7.35-21.93-14.79,17.55-21.77,36.55-32.19,53.42-1.53,2.49-1,6.21-1.58,10.19-6.63,4-14.17,7.65-22.95,8.91-1.35-5.46,2.13-8.84,3.09-12.86.88-3.69,2.4-7.22,3.37-10.9,2.37-8.87,5.84-17.54,4.85-27l1.66-1.73-1.13-.23C460.23,619.9,460.18,620.65,460.12,621.38Z"/><path class="cls-1" d="M441,259.3c-1.62-6.44.13-11.34,3.84-16.23,9.41-.82,18,7.18,28.89,3.57-7.18-8.62-19.85-8-25.48-17.37.18-4.41,2.22-7.26,6.85-7.38a81.48,81.48,0,0,1,9.75.44c4.77.44,9.53,1.06,14,1.57,1.57-3.8-.32-4.63-2.39-5.43-7.55-2.93-15.08-5.88-23.13-9a52.33,52.33,0,0,1,.58-6.72,6.12,6.12,0,0,1,7.26-5c4.85.62,9.56,2.17,14.38,2.89,3.05.46,6.22.09,8.91.09,1.44-3.64.08-5.08-2.17-5.85-4.64-1.55-9.44-2.7-13.94-4.57a23.25,23.25,0,0,1-8-5.29c-1.07-1.15-.91-4.06-.37-5.91.29-1.08,2.45-2.28,3.76-2.28a66.48,66.48,0,0,1,9.68,1.06c3.07.42,6.15.95,10.47,1.64-3.2-12.25-15.69-7.44-21.27-15.09a28.7,28.7,0,0,1,4.77-16.29c5.69-.29,11.5-.61,19.07-1-2-2.87-2.66-5-4.1-5.77-3.7-2-7.74-3.4-11.39-5,.84-10.5,1.36-11.41,8.11-11.47,6.47-.06,12.4,0,18.77-3.3,6.75-3.46,15-.38,22.09,1.77,5,1.52,5.78,7.35,8.15,11.57-6.33,6.32-14-.5-20.13,3.42,10.53,8.13,10.53,8.13,25.89,9.43,2.44,5.12,5.14,10.78,7.68,16-5.46,5.39-11.32-.39-17.1,3.3,3.47,3.41,7.5,5.28,11.51,5.23,9.52-.14,13.45,5.83,16.49,13.24.6,1.46.88,3,1.63,5.72-12.52,2-24.65-.92-37.92-.6,1.71,2.21,2.41,4.1,3.48,4.32,12.15,2.6,23.93,7,36.63,6.83,4.45-.06,4.89.87,8,8.86-5.69,3.47-11.43.94-17.11.12-5-.73-10.32-3.29-16.14,2.25,6.74,1.83,12.24,3.13,17.61,4.81,5.64,1.78,10.62,5.08,17,5.08s9,4.9,10.74,10.21c-6.21,6.45-15.13,1.07-22.19,6.3,6,5.26,13,5.16,19.68,6.15,7.53,1.12,7.5,1.3,12.44,11.09-7.8,4.56-15.76-3.42-23.27-.06-1.16,3.11.79,4.25,2.78,4.88,8.74,2.85,17.54,5.5,27.56,8.6,3.25,6.6,7.06,14.3,10.91,22.09-5.66,5.74-13.12,1.35-18.72,4.51.52,4.48,3.88,3.26,6,4s4.16,1.74,6.25,1.79c9.83.2,14.89,5.42,16.37,14.77a50.1,50.1,0,0,0,1.28,4.88c-10.36,4-20.18-4-32.34-1,3.45,2.33,5.26,4.3,7.46,4.91,7.82,2.23,15.7,4.52,23.72,5.82,6.17,1,10,4.31,12.37,9.42,2.3,4.86,3.86,10.06,5.66,14.85-5.18,6.34-12.8.66-18.48,5,6.38,7.54,17.33,2.5,25.8,11.33,1.79,4.42,8.75,9.72,9.38,18.78-9.25,4.52-18.64-.93-27.41,1.68-.14,3.73,2.54,4.53,5.21,5.09,7.45,1.57,14.9,3.16,22.4,4.46,5.38.9,8.69,3.71,10.7,8.8,2.52,6.4,5.56,12.58,8.23,18.54-2,4.76-5.72,2.76-8.72,3.07-5.7.57-11.83-3-17.16,1.57.42,1.09.64,2.64,1.12,2.74,9.6,1.76,19.22,3.37,30,5.2,1.47,3.74,3.16,8.06,5.25,13.44-3.57.8-6.11,2.12-8.41,1.77-9.14-1.32-18.18-3.29-27.29-4.74-2.39-.38-4.94.18-10.29.47,3.42,2.37,4.33,3.39,5.45,3.71,11.47,3.31,22.89,6.91,34.53,9.57,7.21,1.64,9.45,6.28,11.13,13.34-6.31,1.45-12,.35-17.63-.68-21.37-3.95-43-7-64-12.3-22.74-5.73-45.88-8.2-68.86-12.08-22-3.72-43.7-9-65.62-13.12-10.66-2-21.54-3.17-32.36-4.2-16.23-1.53-32.52-2-48.37-6.8-6.09-1.84-12.76-1.89-19.21-2.37-17.26-1.28-34.13-5.66-51.48-6.59-4.44-.24-8.72-3.44-14.93-6.08-8.9,1.76-20.35,5.87-30.31-5.43,6.72-14,13.47-28.11,20.59-43,5.28,1.8,9.65,3.3,14,4.76,1.26,11.28-10.15,17.42-9.44,28.76,12.33-5.15,12.79-18.69,22.34-28.2.19,5.48.92,8.47.24,11.11-1.28,5-5.36,9.26-5.13,15.35,8.27-3.67,11-7.23,18.34-23.37a19.42,19.42,0,0,1,4.59-.27c3.73.68,6.18,3,4.77,6.84-2.4,6.61-5.53,13-8.09,19.51-.9,2.31-1,4.94-2.09,10.49,3.64-3.65,5.21-4.86,6.28-6.4,4.9-7.17,9.58-14.49,14.52-21.63,3.24-4.7,3.41-4.59,12.84-1.88-1.41,10-8.92,18.07-10.44,29.66,7.48-3.19,9.16-9.44,12.89-13.78,3.51-4.11,6.81-8.42,10.1-12.52,6.66-1,12.28.41,18.22,4-.86,7.23-7.77,12.86-6.31,22.5,7.28-7.37,13.52-13.66,19.83-20l6.16,1.66c.47,1.58,1.29,2.79,1,3.51-2,4.45-4.4,8.74-6.42,13.18-.8,1.77-1,3.81-2,8.1,10.33-5.44,14.14-14.39,22.72-20.31l10.31,3.1c.11,2.05.42,3.1.19,4-1.72,6.55-7.21,12.25-4.89,19.66,3.57,1,3.73-1.72,4.89-3.3,3.2-4.37,6.23-8.92,9.86-12.93,2.76-3.05,6.5-3.83,11.07-.32-1.78,6.58-3.65,13.54-6.14,22.75,9.77-4.88,12.39-12.93,17.61-18.66,5.88-2.35,10.17,2.15,14.58,2.89,5,7.1-5.66,12.57.37,19.77l15.48-16.6c3.44.53,7.16,1.11,10.72,1.64.55,1.25,1.48,2.31,1.3,3.12-.88,3.67-2.31,7.24-3,10.95a4.48,4.48,0,0,0,2.06,3.79,4.53,4.53,0,0,0,4.21-1c3.2-4.31,6-8.9,9.39-14l13.88,3.26v18.18c2.77-1.24,5.07-1.53,6.08-2.82,2.64-3.39,4.73-7.18,7.55-11.65,4.19,1,8.73,2,13.45,3.05.2,2.21.64,3.78.42,5.25-.53,3.66-1.4,7.24-2,10.88-.06.36.6.83,1.33,1.75,6.47-2.39,7.89-9.85,14.3-14.33,5.41,1.22,13-1.16,17.44,6.63.32.58,2,.84,2.85.57,7.26-2.33,13.65,1.51,21.49,3.62.3-3.78,1.15-6.85.6-9.64a15.92,15.92,0,0,0-4-7c-14.5-16-22.93-35.5-32-54.6-7.9-16.66-15-33.72-22.39-50.62-7.63-17.34-14.71-34.92-23-52-9-18.56-13.67-39.08-25.8-56.2-3.33-4.7-6.31-9.63-9.31-14.23-5,1.57-7.82,4.45-6.6,8.64,1.51,5.14.1,9.52-1.2,14.29-4.26,15.73-7.41,31.69-10.1,47.81-4.42,26.25-9.92,52.33-15.84,78.28-3.11,13.67-8.1,26.89-12.54,41.28-18.61-5-36.6-9.78-55.41-14.81.73-3.18,1.3-5.63,1.65-7.11,17.2-6.19,32.59,3.23,49.46,3.19-5.26-5.6-20.64-11.56-43.71-17.47-.29-1.3-1.16-2.91-.88-4.29,1.38-6.6,2.77-8.25,8.25-7.52,8.6,1.14,17.08,3.15,25.64,4.65,2.29.41,4.67.34,9.69.64-7.07-6.56-13.74-6.89-19.54-9.16-6-2.36-12-4.86-17.67-7.16-1.72-6.23-1.68-11.41,2.58-16.29,11.48-2.73,23,5,36.34.55-10.63-7.89-23.94-5.72-33.61-13.07a45,45,0,0,1,1.61-6.45c.58-1.41,1.89-2.51,3-3.95,11.87-.06,22.69,8,36.57,4.43-10.57-9.23-25.3-6.75-34.79-17.6l1.95-9.4c6.09-3.8,11.94-1.42,17.74-.78,5.39.6,10.77,1.49,16.16,1.7,1.58.06,3.23-1.8,5.62-3.26Z"/><path class="cls-1" d="M505.11,689.73q-11.1,25.18-22.23,50.4c-1.09,2.49-1.85,5.18-3.33,7.4-2.24,3.37-5.41,5.3-10.77,3.67,1.56-18.63,14.15-35.05,14.37-56.15-6.46,3.88-6.76,8.55-8.29,12.39-5.22,13.13-10.1,26.4-15.52,39.45-4,9.65-11,16-21.92,17-2.76-4-.12-7.41,1.08-10.78,4.58-12.8,9.56-25.47,14.06-38.28,1-2.74.59-5.95,1.17-12.82-3.93,4.9-6.09,6.5-6.77,8.6-4.51,14-10.77,27.23-17.59,40.29-3.76,7.19-10.68,12-12.74,20.53-1.05,4.33-6.95,4.37-12.45,4.76,0-3.15-.81-6.44.16-9.11,2.38-6.63,5.84-12.89,8.39-19.48,3.53-9.1,6.71-18.34,9.82-27.59.76-2.21,0-4.29-3.53-4.76-3.63,8.55-7.4,17.28-11.1,26-5.11,12.07-11.28,23.52-19.42,33.84-1,1.28-2.53,2.54-2.71,4-1,7.72-7,8.82-13.59,10.56,2.36-21.45,9.83-41.57,12.83-65.16-3.45,2.74-5.63,3.59-6.14,5-2.56,7.17-4.84,14.44-6.91,21.76-3.12,11-5.47,22.25-13.15,31.32-3.2,3.76-1.61,8.18-.63,12.89l-16,6.67c-2.55-7.39.61-13,2.73-18.8q7.29-19.91,14.31-39.9a11,11,0,0,0,.58-4.68c-.07-.61-1.51-1.19-2.42-1.61a1.88,1.88,0,0,0-1.4.33,2.37,2.37,0,0,0-1,1.24c-6,22.8-16.77,43.51-27.44,64.3-1,1.88-1.1,4.16-1.7,6.61-6.58,2.88-13.32,6-21.59,6.86.35-12,5-21.62,9.94-31.21,6.22-12.07,7.47-18.15,7.21-33.15a313.39,313.39,0,0,1-30,59.43c-1.93,3-2.08,7.12-3.26,11.56-7.63,2.12-14.71,7.55-24.12,7.21-1.61-12.7,4.38-22.77,8.15-33.32,3.58-10.14,7.48-20.19,11.23-30.24-3.55-3.08-5.29-.72-6.29,1.71-4.39,10.53-8.56,21.17-12.81,31.75s-8.45,21.2-12.78,31.77c-3.86,9.43-12.06,11.5-21.93,12.61,1.78-10,3.07-19.46,5.18-28.7s8.74-17.5,5.23-29.7c-10.46,21.84-16.86,43.54-26.3,64.13-5.77,4.08-12,7-20.57,6.2-1-8.6,1.93-16.89,3.12-25.2,1.09-7.8,6.53-14.79,4.85-25.61-2.66,3.62-4.68,5.36-5.42,7.54-4.55,13.38-9,26.82-13.11,40.33-3.75,12.3-5.1,13.58-21.54,16.41,1-4.49,1.5-8.68,2.77-12.64,4.25-13.48,8.75-26.88,13.17-40.29,1.08-3.27,1.9-6.39-3.54-7.6-3.79,10.58-7.43,21.27-11.46,31.81-3.89,10.15-7.93,20.26-12.43,30.16-3,6.59-7.55,11.92-16.71,12.88-.7-10.31,1.61-19.89,5.08-29.4,4-11,7.81-22.2,12.46-35.53-3.15,1.87-4.76,2.25-5.23,3.18-4.8,9.72-10.17,19.27-13.89,29.39-5,13.78-10.28,27.41-17.46,40.82l-14.48,5.37c-3-2.95-1.32-5.41-.35-7.85,7.33-18.74,14.74-37.45,22-56.24,1.09-2.81,1.3-5.94,2-9.2-6.69-.13-6.35,4.87-7.43,7.86q-10.73,30-24.25,58.74c-3.78,8.07-8.31,15.35-16.73,19.26-1.44.66-3.1.83-5.92,1.54a71.46,71.46,0,0,1,3.82-21.68c4.59-13.32,9.4-26.55,14-39.86.3-.88-.26-2.05-.42-3.09-6.44,6.29-6.28,6.34-9.18,13.29-5.44,13-11.25,25.89-16.55,39-3.06,7.58-8.74,13.16-12.66,19.59-4.14-.71-3.49-3.21-3-5.08a145.36,145.36,0,0,1,15-37.68c9.49-16.42,18.38-33.29,21.76-52.44.8-4.65,3.6-8.95,5.5-13.45,8.83,2,16.49,1.82,22.59-5.26a11.74,11.74,0,0,1,5.51-3.29c20.43-6,39.22-15.73,57.9-25.69,18.35-9.76,38.19-15.45,58-21.24,23.95-7,48-13.72,71.76-21.16,11.89-3.72,23.24-9.15,35.06-13.12,16.46-5.5,33.19-10.22,49.72-15.54,4.11-1.31,7.91-3.57,11.8-5.54a198.18,198.18,0,0,1,39.74-14.5c7.33-1.88,14.47-4.46,21.7-6.69,2.07-.65,4.19-1.86,6.23-1.76,12.66.64,22.76-6.15,33.59-11,6.88-3.06,14-5.62,22.07-8.86,1.44,3.62,3.19,6.33,3.43,9.13.27,3.17-.6,6.5-1.38,9.65-5.33,21.64-9.56,43.61-19.24,63.9a12.32,12.32,0,0,1-5.45,5.4c-1.53.74-4-.43-6.4-.82-2.05-6.7.94-12.17,2.6-17.71,2.63-8.81,5.89-17.48,8.29-26.36.95-3.47.28-7.35.36-11a16.58,16.58,0,0,0,2.55-.85c.17-.09,0-.81,0-1.23Z"/><path class="cls-1" d="M422.5,488.22c3.59,1.86,4.79-1,6.05-3.23,5.86-10.43,11.59-20.93,17.41-31.37.77-1.4,1.78-2.66,3-4.46,4.11.84,8.21,1.68,12.16,2.51.41,1.24,1.19,2.31,1,3.13A72,72,0,0,1,453,475.56c-4.7,7.3-8.66,15.09-12.8,22.75a10.17,10.17,0,0,0-.78,8.79c6.87-5,8.62-12.08,12.25-17.76,3.81-6,7.29-12.12,11-18.16s7.43-11.92,11.48-18.4c6.09.78,11.83,1.52,18.23,2.32-6.91,15.71-13.4,30.5-19.85,45.32-.12.29.5.91,1.42,2.46C484.76,489,491.37,472.78,503,459.2l19.45,3c-1.57,5.91-3,11-4.29,16.24-1.22,5-5.73,9.11-4.62,17.08,9.18-9.7,14-19.89,20.78-29.93a75.72,75.72,0,0,1,24.2,2.85c-3.3,7.9-6.35,15.11-9.39,22.36.52.34,1.06.7,1.58,1.06,2.25-2,4.83-3.71,6.68-6,3.72-4.67,6.77-9.91,10.69-14.4a9.42,9.42,0,0,1,7-2.88c4.16.47,8.16,2.27,12.89,3.72-2.47,7.53-4.78,14.53-7.07,21.53.61.33,1.22.65,1.83,1l16.81-21.2,15.23,3.7c-.56,6.66-1.09,12.9-1.59,18.82,4.16,2.24,5.68-.29,7.06-2.43,2.64-4.07,5-8.28,8.06-13.3L642.63,483v18.68c7.35-.51,7.08-7,10-10.4,3.91-4.59,3.57-4.86,13.5-1.88-.52,4.42-1.27,9-1.47,13.69,0,1.12,1.62,2.56,2.85,3.34a3,3,0,0,0,2.86-.68c2.92-3.85,5.62-7.87,8.36-11.77,4.08-1.18,8.07-.91,10.38,2.64,3.86,5.91,7.56,12,4.74,19.74-5.22,14.24-10.15,28.57-15.26,42.83-4.6,12.76-8.92,25.64-14,38.18-11.43,28.21-23.21,56.29-35,84.36-1.67,4-4.17,7.62-6.16,11.5-4.48,8.67-9.37,17.13-11.59,26.87-.83,3.62-3.06,6.91-4.67,10.37-4.06,8.77-8.12,17.56-12.53,27.12H567.16c.6-3.23.88-5.81,1.61-8.26s1.94-5.06,2.89-7.46c6.12-7.87,19.12-4.31,25.18-15.42-6.1-.35-10.68-.63-15.88-.95-.74-7.51,1.87-12.34,7.92-14.86,5-2.09,10.41-3.16,15.48-5.11,1.66-.64,2.78-2.66,5.95-5.87H590.89c1.86-6.37,3.29-11.33,4.5-15.52,7.77-5,16.77-4.82,23.15-11-2.42-4-5.8-1.93-8.53-2.29s-5.31-.57-8.84-1c.22-7.6,3.34-12.27,9.58-15.64,5.46-3,10.49-6.78,15.91-10.34-3.65-5.66-9.06-.75-12.85-4.6-1.17-4.11-.11-7.61,5-9.39,6.15-2.16,12.35-4.18,18.41-6.56,1.74-.69,3.08-2.39,5.17-4.11-8.34-4.1-16-.18-24.08-1.7.78-3.32,1.5-6.34,2.19-9.3,9.69-4.84,21.33-5.09,29.46-14.5-5.21-4.69-12.38,1.82-16.79-4.44.61-6.72,2.77-12.77,10.51-16,4.91-2.08,9.24-5.52,13.65-8.23-1.3-7.37-8-.93-10.73-5.28,1.1-7.2,4.29-13.88,8.26-20.44a67.49,67.49,0,0,0,6.26-14.88c1.51-4.89-.37-8.15-4.76-10.55-8.53-4.66-17.9-3.75-26.92-3.26-26,1.46-51.88,3.18-77.91,3.25-15.19,0-30.36,1.69-45.56,2.52-19.49,1.07-38.95,3.52-58.58,1.83-5.29-.48-10.76,1.22-16.14,1.12-27.18-.46-54.33-1.23-81.51-1.81-6-.14-11.91,0-17.85,0-2.19,0-4.43.9-6.49.52-17.27-3.17-34.65-.68-52-1.23a70.21,70.21,0,0,0-12.95.87c-9.1,1.47-18,3.09-27.19-.19-2.12-.78-5,.66-7.33,1-2.69-3-1.43-5.53-.11-7.83,4.83-8.45,9.54-16.86,15.45-24.73,8.45-11.28,15.26-23.79,22.89-35.68a210.24,210.24,0,0,1,11.94-17.42c3.48-4.36,8.21-4.89,13.66-1.31-.08,7.54-3.52,14.2-6.6,21.07-5.35,11.9-10.25,24-15.22,36-.56,1.34-.42,3-1,7.39,15.3-22.07,20-47.12,38.18-65.23l13.8,1.8c-2.2,15.4-14.76,26.12-13.74,41.89,8.38-13.16,16.78-26.32,25.58-40.1,5,.38,9.7.76,15.7,1.22C343,451,332.12,462.48,331.55,478.8c5.1-3.82,6.06-9.2,8.73-13.3,3-4.55,5.42-9.45,8.38-14s6.2-8.82,8.87-12.56A32.91,32.91,0,0,1,375,440c-2,15.53-14.1,26.37-16.52,42.81,5.87-3.54,7.88-8.29,10.65-12.23,3.1-4.44,5.76-9.23,8.6-13.85s5.71-9.2,9.14-14.75l10.86,1.26c-.64,15.95-12.45,28-13.36,47.19C394.43,474,402.49,460.94,410.47,448h23.24c2.19,5.73-.39,10-2,14.41-3.23,8.65-6.36,17.31-9.47,26a4.28,4.28,0,0,1,.87,1.13c.11.28-.09.69-.16,1C422.8,489.74,422.64,489,422.5,488.22Z"/><path class="cls-1" d="M380.93,574.81c3.52.52,4.5-2.44,5.87-4.54,7.08-11,14-22,21.05-33,1.46-2.26,3.24-4.32,5.26-7,2.5-.24,5.13-.68,7.77-.73s5.23.31,8.68.54c.14,15.19-10.49,26.43-13.08,43,14.53-13.62,17.86-30.91,28.75-44.18,6.95.14,14.44-1.81,22.18.88.45,11.55-9.29,19.74-9,31.62,1.44-.75,3-1,3.62-2,6-9.06,11.77-18.22,17.6-27.35a9.59,9.59,0,0,1,8.12-4.65l10.65-.53c-.72,11.84-9.6,19.74-11.81,29.85,3.13,2.66,4.15-.07,5.38-1.4,6.6-7.12,11.71-15.49,17.44-23.24,6.31-8.49,12.46-11.15,23-8.14-1.43,2.93-2.61,5.69-4.1,8.27-3,5.16-6.19,10.18-9.12,15.38-.39.66.34,2,.8,4.12,8-8.55,15.67-16.63,23.29-24.69,1.86-2,3.39-4.57,5.68-5.74,2-1.06,4.91-.56,8.73-.85-4.89,8.95-8.63,16.78-13.28,24-3.77,5.87-8.11,11.24-15.92,13s-15.36,5.32-23.06,8c-10.27,3.53-21,6-30.79,10.62-15.31,7.2-31.62,11.48-47.29,17.49-8.6,3.29-17.11,6.89-25.35,11-20.05,10-41.52,15.89-62.7,22.69s-42.56,12.88-63.54,20.17c-17.4,6-34.34,13.41-51.47,20.18-13.67,5.4-27.39,10.61-41,16.23-10.53,4.38-20.81,9.3-31.24,13.89-2.41,1.06-5,1.78-7.07,2.51-3.49-2.63-2.33-5.42-1.23-7.71,4.69-9.8,9.72-19.42,14.44-29.2,2.83-5.87,5.1-12,8.05-17.84,2.34-4.6,3.69-10.61,11.17-9.8,1.08.13,2.78-1.62,3.53-2.89,5.5-9.37,10.68-18.93,16.25-28.24a285.16,285.16,0,0,0,24.61-51.44c2.92-8.33,7.4-15.72,14.78-20.9,2.7-1.92,5.76-3.07,9.59-.07.51,7-4.48,12.63-6.79,19-2.56,7.14-6.31,13.85-9.51,20.76-3,6.38-5.8,12.83-8.82,19.2-3.26,6.87-6.94,13.56-9.93,20.54-2.6,6.11-7.64,11.62-6.35,20,6.57-3,7.91-8.65,10.18-13.33,9.62-20.07,19.6-40,28.25-60.55,4.31-10.25,12.95-17.21,16.64-27.23,6.56-1,12.31-2.51,18.65-.05-.65,2.49-.75,4.8-1.8,6.55-8.67,14.59-13,31-19.42,46.54-2.89,7-4.33,14.46-9.2,20.59-.74.93-.1,3-.1,4.9,7.25-6,11-13.39,14.29-21.41,6.42-15.55,13.44-30.86,20.52-46.11,2-4.37,5.14-8.24,8.21-13l11.88-1.5c.33,1.75,1,3,.63,3.72-3.72,7.85-7.15,15.9-11.57,23.36-6.18,10.44-9.63,21.82-13.09,33.27-.52,1.71.24,3.82.64,8.32,6.08-9.39,7.83-17.94,11.85-25.36,3.89-7.17,7.94-14.25,12.09-21.27,4.41-7.46,9-14.8,13.71-22.39l9.18.51c-3.1,14.14-7.44,26.77-11.49,39.54C311,579,302.38,589.42,301,602.59c16.71-22.37,24.93-49.18,39.85-73.55l14.54-1.9c4.93,4.54,3.15,8.86,1.53,12.76-5.43,13.05-11.28,25.94-16.7,39-1.1,2.66-1,5.82.23,9.18q17.12-30.32,34.29-60.78c7.91-3.95,14.23,3.66,21.27,2.64,2.83,3.7,1.57,7,.28,9.75-3.65,7.86-7.71,15.56-11.66,23.3-2,3.8-5.07,7.28-3.4,12.1-2.81,2-6.45,3.55-5.55,9.34C379.74,581.63,381.2,578.71,380.93,574.81Z"/><path class="cls-1" d="M348.08,877.56c-3.24.91-6.85,2-11.4,3.26-.49-2.4-1.51-4.44-1.13-6.17,2.91-13.22,6.08-26.38,9.2-39.56.82-3.43.28-6.21-3.82-9.11-1.25,2.42-2.4,4-2.9,5.74-2.39,8.36-4.9,16.69-6.81,25.16-3,13-9.61,23.94-18.07,34-.26.3-1,.15-2.66.33a78.51,78.51,0,0,1,6.32-26.12c3.56-8.47,7-17.16,4.4-27.42-1.62.88-3.7,1.31-3.95,2.26-4.65,17.44-11.2,34-21.22,49.17-2.07,3.13-3.39,6.77-5.58,11.27l-15.72,5.09c1-10.29,4.63-18.08,7.35-26.08,2.26-6.7,4.9-13.31,6.53-20.16.64-2.72-1.9-4.78-5.26-4.24-.81.72-2.15,1.32-2.29,2.12-3.15,19.14-13.2,35.51-21.16,52.71-1.76,3.81-5.13,5.38-9.91,4.71-4.9-8.32,2.56-15.13,3.29-22.76.69-7.38,1.93-14.71,3-22.19-6.35-.19-6.92,4.25-8,7.54-2.51,7.75-4.25,15.75-6.79,23.48a115.68,115.68,0,0,1-6.42,14.8c-3.94,7.95-10.48,12.12-19.07,12.82-3.77-3.1-1.49-6.38-.69-9.17,3.15-11,6.83-21.77,10-32.73.63-2.18-.29-4.8-.61-8.66-5.36,2.83-4.82,7.19-6.34,10.19s-2.07,6.18-3.19,9.25c-1.3,3.59-2.7,7.12-4.12,10.66s-3,7-4.39,10.54c-1.21,3-2.12,6.21-3.56,9.11-1.68,3.38-3.81,6.53-6.23,10.61l-10.74,4.73c-1-1.54-2.06-2.42-2-3.16a73.69,73.69,0,0,1,6.34-21.73c4.44-9.81,7.3-20.34,10.7-30.6.26-.8-.62-2-1-3-4.91.58-5.66,5.1-6.24,8.28-2.78,15.41-12.27,27.74-18.4,41.58-2.13,4.83-4.34,9.64-7.22,16.06-3.51,1.31-8.47,3.17-14.78,5.55.2-19.24,9.55-35.13,11.21-55.94-3.08,4.44-4.65,5.89-5.23,7.68-3.55,10.86-6.74,21.83-10.38,32.65-1.54,4.61-4.16,8.82-5.79,13.39-2,5.75-6.43,8.43-11.69,10.46s-10.69,4.44-17.52,7.29c2.34-9.79,4.72-17.91,6.13-26.21s7.77-15.57,6.39-26.66c-7.89,9.81-9.79,20.42-13.68,30-3.8,9.39-11.36,17.36-10.73,28.22-5,2.67-9.35,6.22-15,5.76-3.51-4.53-1.29-8.77-.13-12.71,4.16-14.05,8.69-28,13-42,.75-2.44,1.79-5-.91-7-4.08,1.28-4.33,4.79-5.39,7.71-5.48,15.36-10.71,30.81-16.54,46-1.9,5-5,9.59-8.15,14-4.29,6-4.52,5.81-16.66,8.18,4.16-20.86,9.59-41,20.38-59.37a8.74,8.74,0,0,0,.64-4.69,3.34,3.34,0,0,0-1.67-2.48c-.77-.32-2.58.15-2.82.74-3.78,8.94-7.54,17.9-11,27-4.21,11.19-7.93,22.56-12.21,33.72a55.16,55.16,0,0,1-6.88,12.88c-1.72,2.35-5.05,3.51-8.81,5.94-3.42-14,3.76-24.27,7.56-35.07,3.93-11.19,8.9-22,13.42-33-2.08-2.92-4.18-1-5,.51-3.76,7.22-7.51,14.48-10.56,22-7.17,17.62-13.92,35.41-24.17,51.55-1.6,2.54-4,4.53-8,8.78-.13-9.35,3.71-14.72,5.56-20.49,2.13-6.71,5.35-13.07,8.08-19.6,2.51-6,4.88-12.07,7.49-18,2.82-6.46,5.73-12.89,8.84-19.22,2.87-5.83,6.09-11.49,8.75-16.5,9.19-3.89,17.61-7.6,26.16-11,5-2,9.73-4.79,15.61-3.78A7.17,7.17,0,0,0,89.5,914c5.17-6.21,12.56-8.6,19.48-11.47,25.55-10.58,51.16-21,76.92-31.06,21.27-8.29,42.78-16,64.19-23.9,1-.37,2.23-.21,3.15-.71,25.9-14.11,55-20.17,81.5-33.06,11.15-5.45,23.69-8,35.05-13.07,26.86-11.92,54.61-21.37,82.15-31.45a78.56,78.56,0,0,1,18.87-4.69c7.91-.84,15.71-2.88,23.42-4.38.58,1.62,1.49,2.8,1.21,3.52-7.57,19.75-15.25,39.46-22.8,58.9-5.66,2-10.7,3.72-17.08,5.94.53-11.51,6.38-20.39,8.58-30.2,2-9.16,7-17.71,6.72-29.4-2.61,2.22-4.2,2.92-4.63,4.06-3.29,8.64-6.26,17.4-9.52,26.07-3.81,10.12-6.3,20.9-14.49,28.89a9.76,9.76,0,0,0-2.68,5.71c-.58,6.26-5,7.7-10.77,9-1.7-12.13,6.12-22.93,4.77-34.63-4.4-1.17-4.66,2.26-5.54,4.32-4.32,10-8.48,20-12.58,30.1-2.4,5.88-5.67,10.56-13.86,10.87-.16-2.45-.89-5-.35-7.24,1.36-5.81,3.41-11.47,4.91-17.26,1.15-4.49,1.8-9.09-.14-13.37-4.19.33-3.78,3-4.44,4.88q-5,13.78-9.75,27.66c-4.12,11.8-12.11,18.94-25.5,20.73,0-2.63-.61-5.31.12-7.54,4.22-12.93,8.85-25.71,13.14-38.61a14.24,14.24,0,0,0-.48-10.06c-1.45,1.74-3.5,3.26-4.24,5.26A469.44,469.44,0,0,1,348.08,877.56Z"/><path class="cls-1" d="M907.57,993.7c-7.42-1.64-14.77-3.56-22.45-1.19-2,.6-4.31.18-6.44-.08-7-.85-13.91-1.85-21.07-2.79-7.81-9.33-7.81-9.33-9.14-21.78,11.55-2.07,24,1.67,36.29-5.35-4.1-1.44-7.5-1.41-10.82-1.6-6.52-.4-13.06-.45-19.54-1.23-14.58-1.7-15.53-2.81-19.32-19.66,10.61-7.16,24-5,36.66-9.61-13-9.3-26.12-1.13-39.38-3.26-1.07-2.37-2.49-5.16-3.61-8.06s-2-6-3.27-9.78c10.45-5.33,22.38-5.37,33-12.64-13.87-3.8-25.66,5.47-40.06.18-4.6-3.86-7-11.8-11.4-20,3.22-1.14,5.91-2.44,8.76-3,4.22-.91,8.7-.86,12.76-2.2,1.82-.6,2.85-3.55,5.6-7.25H802.24c-5.56-5.43-9.35-10.56-12-17.33,6.4-4.5,13.66-3.33,20.39-4.39,3.59-.56,7.79.29,9.52-4.53-1.92-4.76-6.3-3.93-9.68-3.3a50.91,50.91,0,0,1-24.78-1.42c-4.2-4.31-7.89-9.39-8.92-16.75,9.72-4.76,19.83-5.56,32.11-7.16-12.08-5.08-16.52-5.42-37.59-3.83-5.83-4.34-6.94-11.32-9.29-17.36,4.92-6.58,12.33-1.48,17.09-5.48-4.71-5.65-11.31-5.73-17.81-6.11-4.65-.27-8.54-1.74-10.13-7.32,10.41-7,25.23-2.44,38-13.33-16.8.17-30.05,3.17-43.63,2.34-2.1-5.41-4-10.4-5.85-15.08,1.17-4.44,4.87-4.61,7.87-5.08,7.5-1.2,15.08-1.84,22.61-2.89,2.91-.4,5.74-1.31,10.06-2.33-9.82-4.71-27.83-5.91-47.28-3.82a17.14,17.14,0,0,1-2.62-3.53c-1.06-2.43-1.74-5-2.69-7.85,9-9.84,23.11-1.35,32.55-10.37-11.15-5.85-22.67-4.66-35-3-1.54-4.34-2.89-8.17-4.13-11.64,1.66-1.35,2.37-2.45,3.21-2.57,8-1.16,16.13-2,24.16-3.3,1.72-.26,3.21-1.94,4.45-2.74-.53-4.07-2.92-4.07-5-4.08-8.67,0-17.38.32-26.07,0-2.1-.06-4.16-2-6.35-3.11,5.13-8.11,13.86-7.26,21.28-11.49-8.9-5.59-16.32-6.67-23.3,2.64-4.2-11.05-11-16.29-22.26-14.55-4.8.73-9.77.38-14.61.92-1.87.22-3.6,1.56-7.88,3.52,4.35,1.34,6.05,2.09,7.82,2.36,5.38.81,10.81,1.23,16.15,2.18,2.82.51,5.51,2.59,4.7,5.57-.75,2.82-2.8,7-5,7.42a68.4,68.4,0,0,1-19.37,1.29c-9.07-.7-18.06-2.56-28.18-4.12,1.08-4.39,1.45-8.06,2.85-11.28,6.72-15.44,14-30.65,20.5-46.17,5.46-13,10.64-26.16,15-39.54,3.2-9.8,9.22-14.29,19.22-14,5.89.15,11.77.42,17.63.64,1.3,3.47,2.23,5.92,3.17,8.41-6.25,2.78-12.2,1.81-18.16,1.66a32.52,32.52,0,0,0-9.62.86c-2.84.82-4,3.55-3.47,6.56.56,3.19,2.85,5,5.8,4.15,9.48-2.71,19-4.57,29.21-3,4.58,5.37,6.79,11.8,8.61,19.34l-13.09,1.66c-.13,2.18-.25,4.56-.47,8.12,3.67-.28,6.2-.39,8.73-.67s5.3-.76,8.94-1.3c2.73,5.85,5.39,11.57,8,17.3-1.15,3.26-2.2,6.28-3.37,9.6,1.22,1.05,2.26,2.67,3.56,2.92,4.73.93,7.44,3.73,9.74,7.8,4.52,8,10.09,15.5,14.28,23.69,4.67,9.18,8.27,18.88,12.3,28.37,2.11,5,3.52,10.4,6.32,15,12.82,21,19.38,44.7,28.9,67.12.83,2,2.24,4.41,1.71,6.1-4.09,12.74,4.8,20.69,11.24,28.87,6.17,7.84,11.56,15.56,13.82,25.43,2.92,12.79,10.37,23.71,15.48,35.62,6.66,15.45,14.19,30.42,24.09,44.13,2.52,3.5,5.4,7.33,6.21,11.37,3,14.82,11.55,26.79,18.57,39.61s13.27,26.17,19.75,39.33c.4.79-.15,2.06-.27,3.1l.36-.29c-19.94,1.53-39.89,1-60.8.42l-5.46-12.39c13-1.56,24.78-3,36.53-4.36,2.65-.3,5.46-.12,6.95-3l3.69-1.13c-.53-.63-1.08-1.24-1.62-1.85C909.07,991.87,908.33,992.78,907.57,993.7ZM706.47,627.65c-1.88-.09-2.54-.32-2.91-.09-1.65,1-4.2,1.9-4.51,3.25-.34,1.53,1.05,4.7,2.3,5.08a35.12,35.12,0,0,0,10.78,1.24c.92,0,2.39-2.23,2.51-3.55a4.62,4.62,0,0,0-1.9-3.84A32.36,32.36,0,0,0,706.47,627.65Z"/><path class="cls-1" d="M856.08,1023.34a89.68,89.68,0,0,1-50.9-4.35c.37-4.16,2.36-4.54,4.63-4.66,6-.3,12-.5,17.94-1.1,2-.21,4.07-1.34,6-2.33.84-.45,1.32-1.58,2.6-3.22-12.43-1.95-25.28,1.46-37.79-6.39-1.59-3.36-3.85-8.11-6.64-14,3.62-1.23,5.93-2.54,8.35-2.7,5.95-.38,12-.1,18-.34,1.85-.08,3.68-.92,6.23-1.6-8.39-6.76-8.64-6.82-36.93-8.62-1.17-2.76-2.54-6-3.75-8.82,1.44-1.54,2.08-2.83,2.87-3,4.29-.6,8.66-.67,12.91-1.39,5.82-1,11.72-2,15.15-8.72-7.26-2.52-13.07,3-19.41,2.2-5.83-.74-11.57-2-18.23-3.22-2-4.46-4.12-9.3-6.68-15.06l30.33-6.25c-7.75-4.09-7.75-4.07-17.72-4.59-5.4-.26-10.78-.61-15.64-.89-4.62-4.38-6.86-8.94-7-15.07,7.64,0,14.65.16,21.63-.07a20.62,20.62,0,0,0,7.77-1.8c1-.45,1.44-2.75,1.52-4.24,0-.73-1.25-2.08-2.1-2.22a47.16,47.16,0,0,0-6.3-.13c-9.2-.2-18.44-.06-27.73-3.66-1.22-2.77-2.66-5.67-3.8-8.67-.33-.86.19-2.06.45-4.21,4-.06,8.21-.38,12.36-.12,4.33.29,8.6,1.34,12.91,1.6,1.28.08,2.65-1.39,4-2.15-.75-1.3-1.22-3.37-2.3-3.74a128.18,128.18,0,0,0-12.6-3.32c-6.35-1.45-12.75-2.72-19.09-4.25-3.41-.83-5.89-2.73-5.34-7.69,6.09-4.26,16.12,1.93,22-6.55-5.44-4.34-11.81-2.36-17.24-4-3.09-.94-6.54-.92-9.39-2.26-1.5-.67-2.08-3.34-3.17-5.31,6.61-6.45,19.56.59,22.89-12-9.48-.45-18.13-.73-26.76-1.3-4-.29-5.38-3.09-5.33-8l22.47-4.85c-9.84-9.79-21.18-3.48-31.5-7.36,1-1.74,1.62-3.87,3-4.67,3.19-1.89,6.76-3.15,12.19-5.58-4-1.77-6.11-2.83-8.32-3.61a6,6,0,0,0-3.22-.13,227.8,227.8,0,0,1-48.31,6.61,2.09,2.09,0,0,0-1.42.7c-.93,1.17-2.46,2.48-2.4,3.64s1.8,3.15,2.8,3.15c4.33,0,8.65-.76,13-.95,4.69-.21,9.62-1.73,14,1.83-5.54,3.73-5.54,3.7-12.32,4.57-5.39.72-10.79,1.46-16.13,2.46-4.74.9-9.38,2.19-13.94,3.26.54,4.57,3.19,5.24,6,5.06,4.34-.28,8.64-1,13-1.43,5.26-.56,10.55-1.46,16.7,1-2,4.47-3.77,8.32-6,13.22-6.23,1.69-12.87,3.78-19.65,5.23-4.17.9-8.59.63-12.81,1.35-.94.17-2.28,2.48-2.1,3.6.19,1.29,1.85,3.35,2.89,3.36,6.48,0,13-.29,19.45-.66,2.59-.16,5.17-.64,7.94-1-.34,11-6,15-15.53,15.8a156.67,156.67,0,0,0-26.94,4.84c9.71,5.51,20.11,4.18,30.78,2.89.3,2.35,1.18,4.26.56,5.17-1.44,2.11-3.36,4.81-5.53,5.32-5.24,1.23-10.75,1.2-16.13,1.94-6.4.87-12.78,1.9-19.1,3.25-.79.16-1.07,2.7-1.64,4.29l34.93,2c-1.16,8.11-4.17,13.12-11.79,14.42-9.63,1.65-19.24,3.32-28.87,5-2.07.35-4.16.58-6,.83-.94,2.94,0,4.38,2.37,5.38a34,34,0,0,0,17.63,2c4.18-.55,8.42-.68,14.4-1.12-2.32,5.78-4,10-5.82,14.5-8.43,1.84-16.29,4-24.28,5.2-7.14,1.07-14.49,1-23.2,4.4,9.76,4.41,9.75,4.17,20.38,3.81,6.27-.21,12.72-3.39,18.78.38.63,4.4-1.3,6.57-5,7.24-11.7,2.15-23.44,4.18-35.15,6.34-.88.16-1.61,1.13-3.14,2.25,5,4.47,11,3,16.42,3.52,5.87.55,11.82.58,17.52.82.87,4.4,0,7.43-3.83,8.42-7.33,1.93-14.77,3.41-22.1,5.32-1.83.47-3.44,1.86-5.28,2.91,2.92,5.77,7.69,4.2,11.73,4.94s9.08.45,9.72,6.84c-2.83,3.56-6.93.79-10.34,1.63-4.18,1.06-8.42,1.92-12.62,2.95-3.47.85-7.73-.92-10.91,3.74,8.35,8.23,20,1.41,29.7,6.83-.39,2-.83,4.5-1.37,7.45-6.75.5-13.13.56-19.36,1.53s-12.55,2.83-19.11,4.37c-1.15,3.39,1.61,4.74,4.08,4.71,7.93,0,15.47.9,23.65,6.08l-41.56-1.76a17.92,17.92,0,0,1-1.75-16.25c2.5-7.09,5.35-14.06,7.82-21.15,2.83-8.09,5.18-16.35,8.18-24.36q4.29-11.43,9.54-22.45c2.8-5.84,6.23-11.39,9.49-17,1.64-2.81,5-5.44,5.06-8.2.33-12.27,9-20.74,13.18-31.15,3.68-9,7.17-18.15,10.91-27.17,2.27-5.47,5-10.76,7.26-16.24,1.45-3.42,2.48-7,3.65-10.54.86-2.58,1-5.83,2.66-7.61,7.6-8.07,8-20.2,16.2-28,2.09-2,2.35-6,3.19-9.11a173.84,173.84,0,0,1,11.51-30.39c4.25-8.6,8.13-17.32,9.69-27.35,1.45-9.33,7.1-18,11.06-27a7.39,7.39,0,0,1,3-3.52c4.43-2.24,5.36-5.34,5.71-10.39a34.74,34.74,0,0,1,9.18-21.73c5.38,3.79,6.06,9.43,7.31,14.59,5.7,23.81,12.45,47.21,25.16,68.47,2.77,4.65,4.65,9.82,7.09,14.7,9.74,19.43,19.58,38.84,29.3,58.31,1.93,3.88,3.37,8,5.26,11.93,3.27,6.83,6.43,13.73,10.1,20.33,7.63,13.79,15.64,27.37,23.33,41.11,5.09,9.09,8,19,10.51,29a112.14,112.14,0,0,0,7.42,21.54c7.52,15.66,12.31,32.48,20.94,47.61,1.58,2.76,3.51,5.33,4.86,8.2C855.49,1018.35,855.53,1020.47,856.08,1023.34ZM715.78,763.65c.22-4.2-3.25-7.34-7.77-7.33-1.51,0-4.08,2-4.31,3.37-.56,3.39,3.29,7.76,6.53,7.34C712.39,766.73,714.31,764.59,715.78,763.65Z"/><path class="cls-1" d="M349.33,247.8c3.92-8.66,5-10,11.22-8.88,9.63,1.65,19.12,4.15,28.66,6.28,5.22,1.15,10.3,3.83,16,1.66-.3-6-5.55-6-9.18-7.3-10.17-3.74-20.55-6.89-30.82-10.4-1.41-.48-2.58-1.71-4.46-3,2.18-4.48,4.27-8.77,6.43-13.19,8.6-2.16,16.51-.46,24.34,1.68,6.8,1.86,13.53,4.12,20.28,6.17,4.11,1.24,8.23,2.89,13.17-.6-1.79-1.47-3.13-3.35-4.88-3.89-11.9-3.77-23.94-7.18-35.88-10.89-3.48-1.09-6.76-2.8-10-4.18,3-11,3.51-11.85,11.13-11.67,6.48.15,13,1.34,19.42,2.08,4.68.53,9.38,2.54,15.17-.65-10.27-8.46-23.76-7.34-34.87-14.2l5.95-11c12.14.05,23.11,5.77,37.13,4.95-9.23-9.5-20.67-9.76-28.88-17.75l4.51-10.44c12.91-4.07,23.57,6,36.9,3.76-8.77-9.31-20.06-11.88-31.16-17.88,11.52-7.47,22.5,3.41,32.58-2.71-6-7.83-16.13-7.9-23.55-12.2-.65-5.43,2-8.06,6.36-7.64,5.34.51,10.6,2.14,15.87,3.37,4.58,1.07,9.12,2.26,15.05,3.74-5.89-7.9-12.88-12.24-28.4-18.17.88-3.23,1.79-6.57,2.81-10.33h23.94c-2.42-9.28-10-10.9-18-13.56,1.06-2.76,1.59-5.29,2.91-7.34,3.21-5,5.71-6.12,10.79-4.39,7.11,2.43,14.06,5.35,21.52,8.25-.53,3.8-.82,7-1.42,10.12-3.93,20.83-7.39,41.79-12,62.46-5.36,23.82-11.68,47.43-17.74,71.08-5.1,20-10.39,40-15.69,59.91s-11.67,39.69-15.85,59.86c-3.1,15-9,28.92-13,44.74-32.31-9.27-65.24-11.89-98.84-19l7.4-17.5c16.1-1.08,30.84,1.05,45.69,5,13.07,3.5,26.4,5.91,39.06,10.89a5.91,5.91,0,0,0,3.18.36,3.62,3.62,0,0,0,2.45-1.65,3.26,3.26,0,0,0-.71-2.89,10.54,10.54,0,0,0-4.15-2.23q-32.4-7.94-64.84-15.71c-5.35-1.26-10.31-3.1-14.9-7.19,1.8-2.94,3.42-5.55,5-8.09,27.93,5.32,55.06,10.51,82.21,15.59.74.14,1.7-1,3.39-2-1.88-1.42-3.32-3.31-5.1-3.69-17.5-3.8-35.09-7.3-52.59-11-9.6-2-14.5-4.43-22.31-10.39l3.41-8.09c22.92,5.67,46.74,6.7,68.79,15.18,3-3.72,1.58-5.66-1.48-6.5-14.68-4-29.35-7.89-44.1-11.54-5.87-1.45-11.5-3-16.44-8.8,1.2-3.29,2.61-7.1,3.93-10.71,2.67-.16,4.36-.66,5.81-.29,16.36,4.08,32.67,8.33,49,12.53,2.65.68,5.22,1.59,7.89,2.05,3.29.58,4.54-2,4-7.84-18.71-.16-35.6-7.67-52.95-13.21-2.61-.84-6.89-.61-7-5.9,7.25-1.64,14.31-2.25,21.77.18,11.86,3.88,23.94,7.16,36,10.58a84.31,84.31,0,0,0,11.13,2.45c1.36.19,3-.61,4.29-1.35s-.59-3.09-3.21-4c-12.37-4.11-24.76-8.07-37-12.55C366.28,255.43,358.46,251.69,349.33,247.8Z"/><path class="cls-1" d="M506.67,1038.28c-6.47,1-12.89,1.63-19.82-2,2.3-7.1,1.39-15.21,9.44-19.64,1-.55,1.7-3.14,1.27-4.32-1.25-3.4-.37-6.3.89-9.4,5.32-13.09,10.62-26.17,15.68-39.34,1.43-3.66,3-6.75,6.83-8.5,3.56-1.62,2.67-4.45,2.55-8-.18-5.6,2.26-11.29,3.56-16.8l9.3-2.28c-2-1.74-3.62-3.18-5.52-4.85,3.66-11.21,8.1-22.15,14.49-32.27a45,45,0,0,0,3.42-7.38c5.83-14.61,11.55-29.3,17.45-43.88,2.23-5.54,4.78-10.94,7.32-16.35.92-2,2.54-3.61,3.29-5.61,6.45-17.28,15.16-33.45,23-50.06,14.11-29.78,27.08-60.09,40.34-89.74,14.82.33,27.83,3.87,40.86,7.31,1.43.37,2.6,1.74,4.29,2.91-2.35,3.82-4.61,7.46-6.57,10.65C669,702.58,658,701,648.55,708.27c8.8,7.18,18.35.06,26.82,5.15-1.28,4.48-2.58,9-3.65,12.72-12.42,7.05-27,2.21-38.92,11,9.29,8.5,19.47-.61,28.16,3.26,2.19,7.43,2.19,7.43-2.94,15.32-35.71,5.92-35.71,5.92-38.67,10.88,11.26,3.95,22.44-2.47,34.92-.42-.86,4.42-1.61,8.35-2.34,12.14-12.71,7.46-26.89,8.28-40.85,12.17,6.75,4.58,7.32,4.83,15.19,4.47,5.33-.26,10.69-.81,16.74-1.28,1.8,6.69-1.93,10.81-4.31,15.16C629,813,617,812,608.69,823.67l24.15-3.34c1,5.88-.69,10.15-3.48,14.17L581,843.17c13.26,7.65,27.25.26,41.26,4-1.26,3.75-2.41,7.2-3.53,10.5-16.78,4.18-32.55,9.73-53,9.62,16.73,9,30.66,3.56,44.19,2.94,1,9.33.94,9.3-5.1,18.26-13,1.61-26.43,3.24-41.68,5.1,2.55,2,3.83,3.79,5.3,4,4.83.65,9.73.72,14.6,1s9.65.48,14.92.77c-.14,12.91-9.67,21.23-11.89,32.93-14.47-.12-28.5.27-40.57,8.68-.44.29.09,2,.26,4.1h30.28c-.64,9.84-.64,9.84-6,18.8-2.78-.88-3.44-4.82-7.79-4-11.72,2.24-23.6,3.51-35.38,5.44-1.09.16-1.9,2.13-3.49,4.06,14.08,3.11,27.59.58,42,2-.54,3.55-.67,6.59-1.54,9.38-1.24,4-4.26,6.22-8.54,6.41-9.22.38-18.47.57-27.7,1.15-1.72.1-3.37,1.5-5.89,2.71,11,10.57,24.22,1.54,35.83,7.26-1.34,2.62-2,6.16-4.14,7.61a24.8,24.8,0,0,1-15.27,4.47c-7.39-.29-15.12-.85-22.79,5.18a63.69,63.69,0,0,0,18,2.08c3.82,0,7.63-.26,11.44-.26,2.71,0,6,.09,5.28,4-.23,1.31-2.85,2.79-4.56,3.14-4.18.8-8.49.85-12.73,1.43-9.62,1.3-19.18,3.49-28.93.71-1.33-.38-3,.53-5.83,1.11,1.65,2.18,2.48,4.32,4,5,2.64,1.25,4.86,2.31,4.47,5.72Z"/><path class="cls-1" d="M367,884.15c.43-1.41.49-3.75,1.33-4.09,6.46-2.58,11.82-7.14,19.35-8.08,6.15-.79,11.76-5.32,17.77-7.82,15.53-6.45,31.1-12.81,46.78-18.9,3.28-1.29,7.09-1.26,12.08-2.07-9.27,30-25.91,55.18-35.1,83.63-3.71,1.49-8.46,2.15-11.15,4.83-3.29,3.28-5.65,8-7,12.58-4.6,15-8.7,30.26-12.79,45.46-3.93,14.66-7.07,29.55-16.14,42.26-1.18,1.65-1.14,4.15-1.75,6.61-9.7,3.35-19.08.07-29.29-1.35-1.12-5.83,1.24-10.42,3-15.49,6.68-19.49,12.74-39.2,18.87-58.88.4-1.26-.52-2.92-.8-4.22-4.16-.85-5.31,2-5.83,4.48-4.1,19.83-13.68,37.76-19.62,56.95-1.86,6.07-5.94,11.48-9.18,17.08a3.09,3.09,0,0,1-2.89.85c-1.34-.64-3.43-2.06-3.32-3,.9-7.5,1.5-15.15,3.55-22.36,4.31-15.13,8.21-30.46,15-44.77,1.35-2.89,1.26-5.14-3-6-10.73,23.95-15.52,50.25-29.6,76.88-.51-5.22-1.18-7-.74-8.46,3.06-9.85,6.45-19.59,9.54-29.4,5.55-17.65,11.42-35.13,19.93-51.64,3.23-6.25,5.58-13,8.37-19.42,3.66-8.45,6.61-17.15,13.43-24,5-5,5.28-11.83,3.63-18.41-.35-1.47-3-2.37-4.6-3.54Z"/><path class="cls-1" d="M600.93,425.62c-6.26-.9-11.08-1.23-15.71-2.31q-35.73-8.42-71.38-17.15c-10.53-2.58-21.76-1.71-31.88-6.36-2.41-1.12-4.91-2.07-8.37-3.51,3.18-14.56,6.27-28.72,9.37-42.9,1.28-5.82,2.64-11.62,3.83-17.47,4.08-20.18,7.87-40.43,12.23-60.57,2.88-13.27,6.44-26.39,10-39.5.62-2.31,2.55-4.28,4.49-7.37,7.76,10.86,10,22.64,14.58,32.43-1.26,4-3.76,3.28-5.78,3.34-1.86.08-3.72-.16-9.5-.5l21.82,11.88c1.41,3.7,3.28,8.55,5.33,13.94-9.17,2.66-16.81-5.68-25.66-.08,6.85,2.4,13.21,4.72,19.63,6.87,12.73,4.23,12.74,4.19,16.3,18.7-1.45,3.06-4.34,2.63-6.88,2.45-9.76-.69-19.56-1.07-28.81-5-1.76-.75-4-.38-9.24-.75,17.32,12.52,36.2,8.91,51.76,16.33l6.83,12.6c-2.51,5-6.37,4.06-10.11,3.28-15.35-3.2-30.7-6.46-47.05-9.91,8.25,6.62,34.52,15.67,62.62,21.91,2.55,6,5.23,12.42,8.44,20.07-3.11.34-5.09,1.06-6.84.67-12.19-2.7-24.37-5.51-36.48-8.55-8.77-2.19-17.67-4.12-25.91-8.07-.31-.14-.93.43-2.26,1.1,2.36,1.62,4.18,3.4,6.35,4.26,8.11,3.17,16.13,6.93,24.54,8.83,14.88,3.35,28.29,11,43.4,13.61,5.51,1,7.37,5.8,5.66,12.3-29.51-3-57.91-10.58-86.62-18.49,2.42,1.59,4.69,3.51,7.3,4.64,17,7.35,35,11.62,52.9,16.16,10,2.54,19.73,6,29.73,8.56C596.23,412.78,599.71,416.67,600.93,425.62Z"/><path class="cls-1" d="M366.68,884c-1.78,1.09-4.24,1.75-5.17,3.32a78.94,78.94,0,0,0-6.33,13.09c-8.33,22.38-16.31,44.89-24.73,67.23-4.8,12.7-10.27,25.14-15.36,37.74-2.25,5.53-4.06,11.26-6.52,16.7a64.57,64.57,0,0,1-7.2,12.7c-1.15,1.5-4.4,1.37-7.35,2.16-.28-2.73-.84-4.33-.52-5.71,7.95-34.48,8-34.47,23.42-67.21a10.39,10.39,0,0,0,.27-8.2c-2.19,2.7-5.14,5.1-6.43,8.16-7.28,17.46-18,33.46-22,52.36-1.35,6.3-4.19,12.34-6.83,18.28a7.79,7.79,0,0,1-4.89,3.64c-1.8.43-3.95-.6-7.17-1.24,4.25-12.63,8.59-24.26,12.05-36.12,3.4-11.68,8.72-23,9.87-38-3.4,2.93-5.56,3.89-6.19,5.47-3.44,8.54-6.75,17.17-9.66,25.91-4.46,13.41-9.29,26.67-16.48,38.89-1.1,1.85-3.72,2.81-5.85,4.33-.9-2-1.88-3.14-1.64-3.85,7.31-22.67,10.23-46.56,19.07-68.79a5.42,5.42,0,0,0,.14-3.19,3.77,3.77,0,0,0-1.74-2.36,3.14,3.14,0,0,0-2.82.68,11.35,11.35,0,0,0-2.31,4.16c-5.07,16.61-9.55,33.43-15.25,49.82-2.94,8.39-4.65,17.76-11.72,24.55-1.08-1-2.38-1.66-2.31-2.15,2.4-15.51,5.25-30.9,10.93-45.69,6.24-16.16,10.5-33,20.69-47.6a30.35,30.35,0,0,0,5.06-23.64q34.56-14,69.27-28c3-1.22,5.63-3.26,8.6-4.52,5.49-2.31,11-5,17.32-2.75C367,884.15,366.68,884,366.68,884Z"/><path class="cls-1" d="M162.67,1035c2.65-21.77,15.54-40.16,17.57-61.65-12,19.53-17.85,41.69-28,63.13l-7.67-1.14c.12-2.45-.15-4.09.32-5.5,6-18,11-36.35,22.56-52a48.57,48.57,0,0,0,6.42-11.31c.82-2.16-.33-5.05-.69-8.61,1.67-.74,3.94-2.18,6.42-2.75,10.12-2.29,19.55-6.28,29-10.56,13.74-6.28,27.85-11.74,41.85-17.43,1.89-.78,4-.9,6.39-1.38A34.36,34.36,0,0,1,258,931a12.84,12.84,0,0,1-.41,4.84c-10.63,31.85-20.54,63.94-33,95.15-1.13,2.85-3.39,5.25-5.08,7.79-5.23-2.89-1.94-6.09-1.15-8.62,5.77-18.65,11.83-37.22,17.7-55.86.59-1.89.42-4,.95-9.43-3.12,5.17-4.86,7.22-5.69,9.61-4.44,12.81-8.43,25.79-13,38.55a227.2,227.2,0,0,1-9.55,22.46c-.9,1.85-3.7,2.78-7.83,5.67,2.76-22.52,10.86-41.26,14.84-61.26-5.43,0-6.41,3.12-7.09,5.34-3.94,12.91-7.26,26-11.29,38.9a40.15,40.15,0,0,1-6.71,12.85c-1.48,1.86-5.33,1.83-9,2.92-1.38-8,1.26-13.93,3.46-19.94,4.08-11.2,8.14-22.41,11.93-33.71,1-2.9.88-6.15-.81-10-1.44,2.35-3.28,4.53-4.26,7.06-5.88,15.15-11.52,30.42-17.34,45.6a19.13,19.13,0,0,1-3.25,5.6C168.79,1037.54,165.82,1036.73,162.67,1035Z"/><path class="cls-1" d="M134.67,1035.39h-15c1.65-17.4,9.33-32.59,11.6-50.11-7.71,7.4-7.86,17.12-11.59,25.13-3.85,8.32-7,17-10.45,25.64l-8.43-.46c-.73-1.44-1.65-2.4-1.57-3.27,1.44-17.53,7.88-33.65,14-49.81,8.28-3.55,16.05-9,24.28-9.84,9-.89,14-10.35,23.29-8.77.33,1.09,1.16,2.27.86,3C152.84,989.56,143.87,1012.14,134.67,1035.39Z"/><path class="cls-1" d="M472.89,928.58H442c-1.71-11.42-.05-14.6,9.12-17.11,5.23-1.44,10.68-2.14,15.91-3.6,4-1.12,8.3-2.32,10.85-7.37l-24-1.37c-1.44-5.42-1.43-9.17,4.58-8.2,4.63.75,6.42-3.69,10-4.6,4.23-1.07,8.5-1.88,12.64-3.19,3.44-1.07,6.73-2.66,11.05-4.42-6.87-2.89-6.87-2.89-14-2.36-4.77.35-9.54.71-14.2,1-2.48-3.9-.6-6.4,2.46-8.15,7.24-4.12,15.26-5.58,23.46-6.32,3.7-.34,7.79,0,9.82-5.41-4.3-2.79-9.12-.8-13.58-1.25a89.06,89.06,0,0,1-11.1-1.39c-1.13-.25-2.54-2.28-2.59-3.56s1.19-3.56,2.26-3.84c11.94-3,23.81-6.66,37.64-6.23-3.2,10.45-6.9,19.87-12,28.47-5.65,9.49-8.42,20-12.52,30C483.76,909.24,481.52,919.56,472.89,928.58Z"/><path class="cls-1" d="M551.42,834.28c-3.68,0-6.71.2-9.73,0s-6.29-.86-9.27-1.28c-.87-5.78,1.75-8.84,6.21-10.64,6.51-2.6,13.07-5,19.56-7.64,1.84-.74,3.56-1.79,5.32-2.7-.84-1.67-1.22-3.28-1.71-3.29-5.3-.29-10.62-.33-17-.47.5-4.5.88-8,1.34-12.11,10.91-4,21.09-8.91,33.75-7.85-7.93,23.7-18.81,45.39-30,67.78-8.64.76-17.67,1.53-26.68,2.31-1.31-7.92-1-9.66,4.07-11.81s10.26-3.26,15.42-4.86C546.2,840.59,549.94,839.66,551.42,834.28Z"/><path class="cls-1" d="M930.2,1013.58c5.49,1.63,6.13,7.14,8.59,11.1a6.77,6.77,0,0,1,.29,5.79c-1.28,2.43-3.67,1.29-5.46,0-2.35-1.75-4.22-2.85-6.54.41a8.08,8.08,0,0,1-5.45,2.7c-13.43,1-26.89,1.78-40.35,2.5-1.57.08-3.16-.46-5.36-.8-1-3.33-2.07-6.8-3.25-10.67,19-5,37.93-4,57.23-4.7.27-2.55.46-4.58.67-6.6Z"/><path class="cls-1" d="M743.71,1035.76c-25.47,3.68-50.85,2.25-77.81,5.46,1.64-3.24,2.06-5.74,3.34-6.33,3.9-1.79,8-3.56,12.24-4.06,16.13-1.84,32.3-3.3,48.46-4.68C736.92,1025.55,738.9,1027.09,743.71,1035.76Z"/><path class="cls-1" d="M73.66,1039c.29-3,.12-5.13.72-7.07,2.87-9.34,5.78-18.66,9-27.88,3-8.73,8.6-14.79,18.18-16.27.7,1.35,1.79,2.48,1.55,3.15q-7.71,21.42-15.72,42.74C85.28,1039.26,80.85,1040.36,73.66,1039Z"/><path class="cls-1" d="M120.48,781.55c0-2.11-.78-4.52,0-6.28,8.61-19.75,16.42-39.82,23.94-60a11.16,11.16,0,0,1,3.8-5.08c3.84-2.67,8-4.84,12.2-7.29.52,1.7,1.35,2.91,1,3.58C149,732.09,138,758.57,120,781.15Z"/><path class="cls-1" d="M729.74,1010.69l5.83,11.54c-1.44.87-1.9,1.37-2.37,1.39-13.44.38-26.86,1-40.3.94-4.78,0-9.62-1.3-14.31-2.41a4.9,4.9,0,0,1-2.88-3.33c-.53-2.63,1.61-3.76,3.81-4C695.61,1013.45,711.72,1012.17,729.74,1010.69Z"/><path class="cls-1" d="M452.76,1011.56c0-9.41,3.08-13.83,11-15.14s15.95-3.4,24.85-1.5c2.78,7.58-2.75,11.61-6.45,16.64Z"/><path class="cls-1" d="M133.19,721c-.55,4.41-.19,8.27-1.53,11.41-9.85,23.08-17.14,47.64-37.15,67.39.74-3.27.76-4.88,1.45-6.08,13-22.57,21-47.48,33.27-70.4C129.66,722.54,131,722.25,133.19,721Z"/><path class="cls-1" d="M515.17,932.36c-.23,8.49-2.75,13.62-6.61,17.29H483.93c.88-12,2.14-13.9,10.91-15.17C501.16,933.55,507.54,933.13,515.17,932.36Z"/><path class="cls-1" d="M501.16,971.52c-2.7,6.83-4.41,11.19-6.14,15.58H466.78c2.25-13.77,2.73-14.51,14.19-15.48C486.8,971.13,492.7,971.52,501.16,971.52Z"/><path class="cls-1" d="M714.28,991.52c3.17,3.82,7.08,7.46,8.14,14.29-14.51,1.52-28.13,3-41.77.44-1.48-5.23,1.24-7.69,5.23-8.65C694.71,995.48,703.63,993.77,714.28,991.52Z"/><path class="cls-1" d="M475.93,111.51c-.19-6.66,2.17-9.8,7.4-10.1a49.34,49.34,0,0,1,9.7.52c6.93,1,13.79,2.27,21.17,3.51.74,2.33,1.53,4.78,2.34,7.36-7.88,4-16.3.71-24.1,4.44C487.63,119.52,481.1,115.34,475.93,111.51Z"/><path class="cls-1" d="M490,923.75c7.73-13.45,21.38-10.17,32.52-14.42,3.28,6.29.54,10.35-2.08,15.28C510.84,926.39,500.81,931.05,490,923.75Z"/><path class="cls-1" d="M77.49,1000.72c-1.54,5.37-2.24,9.49-3.88,13.22-3.46,7.91-7.23,15.7-11.33,23.31-.69,1.27-3.67,1.3-5.59,1.9-.44-1.89-1.66-4-1.17-5.63,2.53-8.32,5.66-16.43,8.2-24.74C65.69,1002.38,70.15,1001.15,77.49,1000.72Z"/><path class="cls-1" d="M511.49,880.91c-.82-5.36,1.25-7.87,5.17-9.66A109.34,109.34,0,0,1,544,862.82c3.77,3.91,1.16,7.55-.08,10.68-.83,2.1-3.51,4.59-5.64,4.9C529.36,879.65,520.35,880.15,511.49,880.91Z"/><path class="cls-1" d="M585.73,519.63c-9.75,14.27-15.3,28.2-34.84,27.23,4.32-5.13,7.88-9,11-13.15,2.83-3.83,5.18-8,8-12.57C574,520.76,578.16,520.37,585.73,519.63Z"/><path class="cls-1" d="M536.05,885.06c-5,16-5.14,16.09-16.46,16.85-3.72.25-7.45.4-11.2.4a24.28,24.28,0,0,1-4.59-.87c-1.25-5,2.08-7.23,5.55-8.43C517.32,890.26,525.49,888.15,536.05,885.06Z"/><path class="cls-1" d="M444.35,1028.25c-1.36-4.5.81-7.32,4.78-8.61a35.16,35.16,0,0,1,9.47-1.51c6.89-.21,13.79-.06,21.13-.06a5.18,5.18,0,0,1-2.78,8.49C466.24,1028.53,455.47,1033.1,444.35,1028.25Z"/><path class="cls-1" d="M446.63,988l-22.29-1.72c1.2-3.84,2.14-6.81,3-9.53,13.4-5.31,18.47-5.62,28.4-1.34-1.5,2.29-2.84,4.48-4.34,6.54S448.18,986.09,446.63,988Z"/><path class="cls-1" d="M590.22,765.93c-.47,6.25-3.36,10.27-9.31,11.36-7.8,1.4-15.69,2.29-23.15,3.36-2.87-4.44.68-6.53,1.76-9.69C570,772.32,578.72,762.64,590.22,765.93Z"/><path class="cls-1" d="M510.59,98.36C498,95.47,488,94.21,480.08,86.54c9.25-5.23,9.25-5.23,22.28-4.81,1.21,1.93,2.76,4.1,4,6.44S508.42,93.07,510.59,98.36Z"/><path class="cls-1" d="M405.89,993.33c4.48-32.53,10.27-49.72,19-58.65C424,948.48,415.06,977.2,405.89,993.33Z"/><path class="cls-1" d="M198.27,585c.43-3.68,0-7.72,1.44-11,5.61-12.9,11.78-25.57,17.85-38.27.28-.57,1.51-.68,3.71-1.6-4.76,15.86-9,30.76-16.3,44.61-1.43,2.7-3.07,5.87-7,6Z"/><path class="cls-1" d="M478.42,26.82c1.36,4.91,2.47,8.91,3.45,12.48-1.28,1-1.81,1.7-2.06,1.61-8.86-3.06-19.09-3.52-25.43-12.76C462.13,20.1,469.68,23.75,478.42,26.82Z"/><path class="cls-1" d="M434.59,946.1c11.93-10.19,23.93-6.9,36.4-10.73-1,5.25-1.49,8.07-2,10.73Z"/><path class="cls-1" d="M696.53,966.44a46.89,46.89,0,0,1,13.87,20.09H689.66C690.12,978.82,691.15,972.23,696.53,966.44Z"/><path class="cls-1" d="M504.71,957.17c1.24,5.27-1,7.56-4.64,7.87-8.52.73-17,.05-27.24-1.32,2.23-3.12,3.09-5.75,4.48-6.07C486.19,955.62,495.13,953,504.71,957.17Z"/><path class="cls-1" d="M445.84,41.18c8.33,1.75,14.62,2.77,20.74,4.5a19.06,19.06,0,0,1,8,4.68c1.08,1.08,1.13,4.39.26,5.85s-3.94,2.58-5.26,2c-7.43-3.17-14.7-6.73-21.77-10.61C446.62,47,446.67,44.13,445.84,41.18Z"/><path class="cls-1" d="M23.47,1042.2C16,1041,7.53,1044.55,1,1037.38c7.29-10.19,10.23,4,16.77,2.18,4.14-5,2-16.76,15.16-15.88-2.05,3.55-3.91,6.49-5.5,9.58C26,1036,24.92,1038.91,23.47,1042.2Z"/><path class="cls-1" d="M713.65,555.22l-16.55-3.81c-2.86-5-1.33-8.06,2.78-9.61,2.91-1.11,6.2-1.22,9.16-1.75C715.3,548.76,715.32,548.76,713.65,555.22Z"/><path class="cls-1" d="M440.57,997.73c-7,14.43-7.87,14.69-23.64,7.48C422.58,994.91,432,998.78,440.57,997.73Z"/><path class="cls-1" d="M428.23,961.44c11.14-4.81,19.42-6.3,27.91-6.63,1.07,0,3.24,1.88,3.16,2.7-.19,1.91-1.08,5-2.37,5.39C448.62,965.45,440.16,966,428.23,961.44Z"/><path class="cls-1" d="M585,537.85c4.34-6.58,7.08-11.6,10.7-15.86,1.34-1.57,4.85-2,7.24-1.72,1.59.19,4.11,2.51,4.12,3.9,0,2.35-.93,6.08-2.59,6.87C598.85,533.67,592.72,535.28,585,537.85Z"/><path class="cls-1" d="M38.66,1037.84c3.14-15.83,3.14-15.83,11.79-23.9,1.89,9.57-.63,17.21-6.12,24C43.6,1038.77,40.73,1037.9,38.66,1037.84Z"/><path class="cls-1" d="M833.15,1031.29c10,.42,19.71-3,29.76-2.5.29,0,.54.76.8,1.17C855.81,1034.59,854.75,1034.66,833.15,1031.29Z"/><path class="cls-1" d="M473.71,17.06l-11-5.66C461.27,6,463,2.56,466.82,0c3.23.18,2.82,3,3.46,4.72C471.36,7.66,472,10.74,473.71,17.06Z"/><path class="cls-1" d="M490.3,57.14c1.78,4.12,3.57,8.24,5.84,13.42H485.22c.61-4.79,1.16-9.15,1.72-13.51Z"/><path class="cls-1" d="M506.46,1038.5c4.64-.93,9.28-2.49,13.95-2.64,6.38-.19,12.79.67,19.13,1.07,1.24,2.6.37,4.5-2.29,4.29-10.15-.85-20.29-2-30.49-3A3.08,3.08,0,0,0,506.46,1038.5Z"/><path class="cls-1" d="M120,781.15a52.86,52.86,0,0,1-1.06,7.76c-.31,1.14-1.81,2-2.9,2.81-.18.14-1.19-.33-1.33-.7-.31-.92-.84-2.33-.43-2.85,1.89-2.34,4.08-4.44,6.19-6.62Z"/><path class="cls-1" d="M263.87,431.77c0,4.28-1,8.14-5.6,11.76.33-5.49-1.13-10.48,6-11.48Z"/><path class="cls-1" d="M424.2,1025.41l-2.76.46c-.07-.67-.13-1.32-.2-2,.94.14,1.87.23,2.78.45C424.16,1024.39,424.15,1025,424.2,1025.41Z"/><path class="cls-1" d="M196.4,594c-1.85,1.09-3.68,2.19-5.53,3.29l.39.38c1.7-1.17,3.41-2.33,5.12-3.53Z"/><polygon class="cls-1" points="0 1007.07 0.77 1007.02 0.41 1008.07 0 1007.07"/><path class="cls-1" d="M190.87,597.28c1.25,3.65-1,4.91-3.91,5.68l.27.37c1.35-1.88,2.72-3.76,4.05-5.64C191.26,597.66,190.87,597.28,190.87,597.28Z"/><path class="cls-1" d="M185.25,611.53a10.51,10.51,0,0,1-.42,3.12c-.22.5-1.28.63-2,.94-.16-.47-.55-1.24-.4-1.37,1-.88,2.07-1.6,3.11-2.4Z"/><path class="cls-1" d="M187,603c.93,3.15,1.61,6.26-1.72,8.57l.34.29c.6-2.78,1.18-5.55,1.7-8.42Z"/><path class="cls-1" d="M264.24,432.05c.18-1.2.34-2.39.53-3.6.26.33.79.82.72.94-.47.83-1.09,1.57-1.64,2.36Z"/><path class="cls-1" d="M198,584.76c-.54,3-1.08,6.06-1.59,9.15a.61.61,0,0,1,0,.2c.33-3.07-2.48-6.82,1.9-9.09Z"/><path class="cls-1" d="M460.12,621.38c.06-.73.11-1.48.16-2.21l1.13.23-1.66,1.73Z"/><path class="cls-1" d="M505.11,689.73l2.16-2.48c0,.42.14,1.14,0,1.23a16.58,16.58,0,0,1-2.55.85Z"/><path class="cls-1" d="M422.5,488.22c.14.76.3,1.52.42,2.28.07-.34.27-.75.16-1a4.28,4.28,0,0,0-.87-1.13S422.5,488.22,422.5,488.22Z"/><path class="cls-1" d="M907.57,993.7c.76-.92,1.5-1.83,2.28-2.74.54.61,1.09,1.22,1.62,1.85l-3.69,1.13Z"/><path class="cls-1" d="M785.16,1002.48c-8.92-21.59-17-43.53-27-64.67-8.18-17.16-15.06-34.93-22.51-52.43a81.37,81.37,0,0,1-3.72-9.06c-4.53-15.84-12.64-30.07-19.94-44.62-1.24-2.49-3.42-4.51-5.69-7.42-5.18,10-9.74,18.58-14.11,27.3a126.67,126.67,0,0,0-6.74,14.77c-3.09,8.6-3.89,18.15-11.06,25a6.59,6.59,0,0,0-1.62,4.48c.24,7-3.49,12.43-6.47,18.22-13,25.08-24.49,50.77-33.12,77.7a59.47,59.47,0,0,1-2.43,6c-3.72,8.37-7.75,16.64-11,25.17-1,2.61,0,6,0,9.37,9.24.83,17.33,1.56,25.43,2.26,8.62.71,8.62.69,12.78-9.79-7-7.49-19.52-.14-26.88-10.44,11.64-2.62,22.42-1.77,33.07-2.15,2.54-4.29,6.85-7.72,3.51-13.54-7-.59-14-.93-21-1.88-2.91-.39-4.65-2.49-2.23-6.27,4-.27,8.23-.52,12.46-.91,4.86-.45,9.73-.88,14.54-1.61,4.42-.67,6.89-3,5.27-8.42-6.75-3.87-16.28-.47-22.6-7.5,8.28-8.21,19.68-.46,30.53-5.26-3.25-2-4.78-3.73-6.54-4-3.72-.6-7.59-.24-11.32-.79a5,5,0,0,1-3.29-3c-.69-2.7,1.49-4,3.73-4.11,4.32-.24,8.71.35,13-.11,2.48-.26,6.38-1.28,7-2.92,2.4-6.8,8-6.65,13.28-7.16,9.18-.88,18.38-1.47,27.54-2.37,3.64-.36,7.22-1.23,10.65-1.84,1.76,4.41-.71,6.06-3.22,6.67-6.86,1.72-13.86,2.86-20.77,4.4-3.54.8-7,2-10.82,3,5.25,8.4,5.24,8.63,10.6,8.88,9.23.46,18.47.56,27.71.9,2.06.07,4.42.12,4.06,3.64-8.12,4.62-19.05,1-26.78,7.6,5.09,10.31,5.09,10.35,14.17,10.82,9.78.49,19.56.8,29.32,1.44,2.52.17,5.48.83,4,5.13l-32,4.2c.86,6.59,4.14,9.68,9.51,10.65,6.29,1.11,12.6,2.11,18.81,3.14-.88,8.1-9,3.89-11.42,8.69,1.13,6,4.77,8.89,11,9.52,5.89.57,12.43.57,17.39,3.25,5.81,3.13,9.95,2,15.84-.84C792.34,1021.64,789.05,1011.93,785.16,1002.48ZM700.89,884a7.23,7.23,0,0,1,9.88.23c.33,4.7-2.78,6.71-6.5,7.44-1.49.3-4.34-1-4.85-2.32A5.94,5.94,0,0,1,700.89,884Zm18.88,14.92c-5.1,13.68-16.71,9.12-26.69,13-.46-4.15-.69-6.16-.92-8.17C700.64,897.46,710,900.64,719.77,898.89ZM723.54,928c-10,2-20,3.68-30.09,5-1.15.15-3.15-2.47-3.85-4.19-.33-.79,1.22-3.21,2.36-3.6,2.49-.85,5.28-.68,7.88-1.23,8.88-1.9,17.83-.93,30.22-3.23C726.1,925.28,725,927.7,723.54,928Z"/></g></g></svg>