<svg xmlns="http://www.w3.org/2000/svg" viewBox="0 0 736.53 801.83"><defs><style>.cls-1{fill:#e56df6;fill-rule:evenodd;}</style></defs><g id="Camada_2" data-name="Camada 2"><g id="Camada_1-2" data-name="Camada 1"><path class="cls-1" d="M386.78,67.64c88.56,0,182,0,275.41-.08,9.64,0,19.28-1.16,28.94-1.47a80.18,80.18,0,0,1,16,.58c7.31,1.22,10.56,6.58,11.2,13.67A12.49,12.49,0,0,1,707.41,93.8a78.07,78.07,0,0,1-12.79.7c-36.48-.5-73-1.25-109.45-1.63-33.25-.36-66.5-.2-99.74-.57-41.88-.47-83.76-1.42-125.63-1.83-16.08-.16-32.16.82-48.24,1-44,.41-88.06,1.56-132.06.73-45.05-.87-90.07-3.61-135.07-6-3.35-.18-7.93-3.77-9.37-6.94-2.59-5.67,1.22-10.55,6.25-12.94A40.12,40.12,0,0,1,56.56,62.2c14-.51,27.94-.33,41.91-.07C192.94,63.88,287.41,65.73,386.78,67.64Z"/><path class="cls-1" d="M423.48,131.29c45.2.78,90.43,1,135.6,2.53,33.29,1.12,66.53,3.89,99.78,5.93a49,49,0,0,1,6.42.62c8.23,1.55,13.65,7.44,14.21,15.23.54,7.47-5,13.29-14.19,14.3a80.3,80.3,0,0,1-16.1.45c-36.4-3.26-72.73-7.45-109.19-9.94-22.41-1.52-45-.44-67.52-.72-34.36-.41-68.74-.53-103.09-1.58-42-1.29-83.88-4.33-125.84-5-51.65-.79-103.33,0-155,.36-11.87.06-19.83-3.52-21-10.46-1.34-8.21,7.74-16.41,20.12-15.71,64.5,3.69,129-4.14,193.65,2,47,4.45,94.69,2.49,142.07,3.37Z"/><path class="cls-1" d="M365.15,22.52q-158.05,0-316.12,0c-11.83,0-23.66.64-35.46.07-3.9-.19-8-2.74-11.41-5C-1.7,15,0,5.32,4.29,3.75c3-1.08,6.06-2.42,9.13-2.54C25.23.81,37.08.58,48.9.75,97.28,1.46,145.65,2.87,194,3c101.11.37,202.24-.09,303.34.3C521,3.44,544.6,6.8,568.2,6.48,607.92,5.93,647.62,3.71,687.32,2,698,1.58,708.74.11,719.45,0c4,0,8.28,2,11.88,4,6.85,3.87,7,15.39.15,18.73-4.67,2.27-10,4.45-15.09,4.43C651.91,27,587.44,26.79,523,26c-52.61-.61-105.21-2-157.81-3C365.16,22.87,365.15,22.69,365.15,22.52Z"/><path class="cls-1" d="M332.69,204.13q46.76,0,93.49,0c25.73,0,51.48-.54,77.18.29,39.71,1.28,79.39,3.51,119.06,5.45,3.16.16,7.37.16,9.18,2.06,3.46,3.62,7,8.28,7.84,13,1.13,6.1-3.74,10.11-9.69,10-26.84-.47-53.67-1.31-80.5-2.23-17.15-.58-34.29-1.89-51.45-2.21q-51.58-.93-103.18-1.05c-25.77,0-51.55,1-77.32.76q-72.46-.57-144.93-2.11c-19.29-.41-38.58-1.87-57.84-3.29-7-.5-12.06-7.45-10.83-13.39,1.49-7.28,6.61-11.78,13.28-11.79,10.66,0,21.3,2.5,32,2.7,61.24,1.15,122.49,2,183.73,2.88C332.68,204.84,332.69,204.48,332.69,204.13Z"/><path class="cls-1" d="M364,268.09c52.69,1.65,105.39,3.41,158.08,4.89,14,.38,28-.64,42-.08s27.85,1.84,41.65,3.77c6.9,1,11.29,6,11.22,13.56-.06,6.29-5.46,11-13.2,10.65-36.37-1.55-72.71-4-109.09-4.93-46.2-1.21-92.44-1.69-138.66-1.8-50.51-.11-101,.52-151.55.83-15.07.09-30.13.25-45.21.37-4.29,0-8.6.33-12.87,0-7.48-.59-12.59-5.93-11.76-12.47.75-5.81,4-10,10.15-10.77a72,72,0,0,1,12.87-.64c62.41,3.4,124.73.88,187-2.87,6.43-.39,12.9-.05,19.35-.05Z"/><path class="cls-1" d="M373.45,336.21c30.06.76,60.13,1.6,90.19,2.27,25.82.56,51.64.82,77.45,1.41,9.67.23,19.39.45,28.94,1.72,7.73,1,12.31,8.54,11.5,16.8-.74,7.58-5.53,11.4-12.62,12.17a74.93,74.93,0,0,1-16.12.22c-63.13-7.17-126.44-9.62-190-9-37.62.36-75.26-1.45-112.88-1.61-21.45-.07-42.91,1.61-64.36,1.61-6,0-12.59-2.2-17.84-5.24-2.78-1.61-4.85-7.42-4.37-10.92s4.12-9,7.1-9.52a151.35,151.35,0,0,1,28.65-1.79c54.86,1,109.72,2.32,164.58,3.5,3.23.07,6.46,0,9.69,0C373.42,337.31,373.44,336.76,373.45,336.21Z"/><path class="cls-1" d="M383.25,409.79c28.95-1.13,57.89-2.47,86.85-3.31,23.52-.68,47.06-.88,70.6-1.06a56.53,56.53,0,0,1,12.7,1.79c7.66,1.76,10.73,11.47,6.12,18.07-6.31,9-15.4,10.77-25.53,10.49-26.84-.79-53.68-1.43-80.53-2.19-7.49-.21-15-.93-22.48-1-33.22-.29-66.46-.7-99.68-.58-32.19.12-64.39.78-96.58,1.31-6.43.09-12.87,1.16-19.27.85-8.32-.42-14.63-7.45-13.7-14.78,1-8.11,7.34-10.13,14-10.21,45.08-.55,90.16-.86,135.24-1.22,10.74-.08,21.47,0,32.22,0C383.24,408.54,383.25,409.16,383.25,409.79Z"/><path class="cls-1" d="M378.83,468.42c41.9,0,83.8-.07,125.7.1,5.3,0,11,.37,15.77,2.35,6.31,2.63,9.39,8.53,9.21,15.59-.18,7.44-4.3,12.47-11.38,13.33-8.45,1-17.42,2.08-25.6.38-32.88-6.85-66-6.63-99.35-6.72-22.51-.06-45-3-67.51-3-24.68,0-49.36,1.76-74,2.85-14.49.64-22.66-3.17-23.16-11.1-.74-11.59,8.31-17.82,24.76-17.43q56.36,1.32,112.71,2.41c4.29.08,8.6,0,12.89,0Z"/><path class="cls-1" d="M368.85,529.59c25.76,0,51.54.39,77.31-.18,11.68-.25,23.31-2.78,35-3.66,12.89-1,21.71,12,16.83,24.22-2.83,7.09-9.05,10.55-18.37,9.88-25.67-1.8-51.32-4.83-77-5.32-37.58-.74-75.2.3-112.8.6-6.43.07-12.88.64-19.3.35-6.74-.3-12.88-6.53-12.8-12.18.11-7.2,7-14.25,14.68-14.29,10.68,0,21.36.58,32.05.63,21.47.11,42.93,0,64.39,0A.24.24,0,0,1,368.85,529.59Z"/><path class="cls-1" d="M374.4,617.25c-24.52,0-49,.28-73.54-.23a23.12,23.12,0,0,1-14-5.28c-2.31-2.12-3.13-8.81-1.49-11.64,2.28-4,7.31-8.51,11.49-8.87,21.25-1.78,42.6-2.56,63.93-3.2,24.47-.71,48.95-1.25,73.43-1.16,8.26,0,16.64,1.71,24.78,3.53,5.78,1.28,8.76,6.17,8.61,12-.19,6.79-3,13-10.13,14.6-6.12,1.37-12.65,1.11-19,1.15-21.34.12-42.69,0-64,0C374.41,617.86,374.41,617.54,374.4,617.25Z"/><path class="cls-1" d="M442.76,673.47q-57.6,0-115.06-.05a45.16,45.16,0,0,1-9.51-1.24c-7.26-1.57-12.6-8-10.65-13.46,2.3-6.39,6.57-11,14.14-10.7s15,1.11,22.41.87c21.31-.67,42.61-1.78,63.92-2.68,7.46-.32,15-1.09,22.4-.73C448,646.34,451.49,654.71,442.76,673.47Z"/><path class="cls-1" d="M375.33,730.37c-9.65,0-19.32.3-28.95-.1-6.7-.27-11.88-7.1-10.91-13.3s5.23-9.12,11-9.63c14.93-1.28,29.85-2.72,44.8-3.17,6.33-.21,12.79,1.55,19,3,5.48,1.29,9.75,4.4,10,10.79.26,6-5.05,11.37-12.83,11.72-10.71.48-21.46.12-32.19.12Z"/><path class="cls-1" d="M396.54,764.65c-5.05,15.6-11.12,26.13-20.26,37.18-12-8.89-9.22-24.5-21-32.93C368.84,758.73,380.76,762.4,396.54,764.65Z"/></g></g></svg>