<svg xmlns="http://www.w3.org/2000/svg" viewBox="0 0 838.59 913.77"><defs><style>.cls-1{fill:#300d9d;fill-rule:evenodd;}</style></defs><g id="Camada_2" data-name="Camada 2"><g id="Camada_1-2" data-name="Camada 1"><path class="cls-1" d="M421.71,887.69c17.61-44.14,33-82.59,48.29-121.08,6.8-17.12,12.54-34.68,20.13-51.43,73.94-163,148.74-325.55,222-488.82,23.81-53.05,47-106.25,76-156.71,10.54-18.28,18.34-38.15,27.55-57.2,1.57-3.25,3.41-6.93,6.19-8.91,2.56-1.81,7.76-3.28,9.65-1.91,3.25,2.32,5.14,6.83,6.93,10.75.52,1.12-.93,3.5-2,4.93-12.58,17.3-20.68,36.78-29.23,56.24-12.62,28.66-27.86,56.16-41,84.61Q714.16,271.09,662.92,384.44,591.39,541.91,520.18,699.51c-21.94,48.71-44.39,97.27-62,147.76-7.66,21.88-22,40.18-30.36,61.58-2.27,5.82-12.39,6.51-16.79,1.89a21.89,21.89,0,0,1-3.27-4.39c-18.57-33.9-39.08-66.62-53.41-103-16.92-42.83-37.47-84.19-56.07-126.35-14.49-32.86-28.06-66.14-42.7-98.93-10.12-22.72-21.35-44.94-32.11-67.37-2.39-5-5.15-9.85-7.27-14.94-18.05-43.36-35.54-87-54.13-130.12-16-37.22-33.24-73.92-49.94-110.83-22-48.71-43.59-97.64-66.38-146C33.14,82.28,18.49,56.64,4.75,30.57c-1.28-2.43-3-4.71-3.9-7.26C-.9,18.52-.08,13.63,4.58,11.45c2.87-1.33,7.91-1.47,10.21.24A36.72,36.72,0,0,1,25.5,24c14.43,27.81,28.74,55.69,42.41,83.88q25.91,53.52,50.7,107.6C129,238.07,138.22,261.21,148.36,284Q186,368.58,222.17,453.88c25.1,59.3,50,118.78,78.78,176.55,21.37,42.84,38.78,87.66,58.52,131.35,15.9,35.2,32.53,70.07,49.08,105C411.18,872.33,415.1,877.28,421.71,887.69Z"/><path class="cls-1" d="M418.51,770c4.5-10.2,10.19-19.92,13.16-30.4,11.63-41,29.87-79.36,45-118.94,11.49-30.12,22.1-60.56,33.12-90.85,1.88-5.22,3.56-10.51,5.78-15.57,34.1-77.57,63.61-157.1,101.87-232.9,24.07-47.7,45.69-96.62,68.59-144.89,12.25-25.82,25-51.4,37.34-77.15,6-12.45,11.51-25.11,17.36-37.62,2.32-5,4.29-10.39,7.77-14.47,1.79-2.11,7.09-3.09,9.78-2s5,5.27,5.27,8.31c.33,3.34-1.37,7.13-3,10.38-32.71,67.1-66.26,133.8-98.14,201.29C628.59,296.89,595,368.65,564.78,442q-42.15,102.28-79,206.48c-5.84,16.42-13.69,32.12-20.41,48.25-3.19,7.63-6.87,15.27-8.61,23.27-5.75,26.51-18.36,50.07-30.38,73.92-2.68,5.32-5.86,9.44-12.32,9.2-6.18-.22-10.32-3.82-12.56-9.27-15.4-37.43-35.54-72.65-49.36-111C328.7,617.87,302.28,554,271,492.21a233.09,233.09,0,0,1-12.13-27.85c-16-45.27-36.58-88.57-56-132.39-28.69-64.9-58.68-129.3-84.94-195.18C103,99.28,87.6,62,71.16,25.18c-1.49-3.33-3.2-7.07-3-10.49.22-3.15,2.21-7.54,4.71-8.8s7.39-.45,9.92,1.32c2.71,1.91,4.23,5.84,5.75,9.14,15.35,33.43,33.28,65.52,44.62,101,9.48,29.66,24.94,57.41,37.28,86.19,17.07,39.78,33.47,79.85,50.62,119.6,8.77,20.28,18.56,40.15,27.8,60.24,3.46,7.55,7.12,15,9.84,22.85C278,461.17,304.19,513,329,565.53c7.86,16.65,14.61,33.85,21.33,51C361,644,370.65,671.88,382,699.09c9.55,22.93,20.8,45.15,31.48,67.61C414.1,768,416.26,768.6,418.51,770Z"/><path class="cls-1" d="M411.65,626.25c8.85-22.27,16.54-41.69,24.27-61.1,22.2-55.62,44.66-111.14,66.58-166.88,45.22-115,99.78-225.89,150.92-338.29,6.46-14.22,11.31-29.17,17.57-43.5,2.09-4.76,5.47-9.87,9.72-12.47,2.94-1.79,8.95-.57,12.43,1.36,2.09,1.16,3.28,6.6,2.57,9.58-1.25,5.27-4.17,10.16-6.54,15.14-10.7,22.46-21.73,44.75-32.1,67.36Q626.5,164.09,596.55,231C578.81,270.53,559.44,309.5,544.38,350c-13.83,37.18-29.14,73.67-44,110.37q-26,64-50.91,128.46c-6.65,17.19-11.67,35-18,52.29-4,11-6.78,23-16.72,31.66-10.08-1.46-13.27-9.34-16.38-16.75-7.84-18.7-15.55-37.47-22.85-56.4-28.9-74.79-56.71-150-86.69-224.4-30.67-76.09-62.91-151.53-99-225.3-19-38.89-36.35-78.58-54.33-118-2.67-5.83-5.31-11.83-6.77-18-1.1-4.65.94-9.71,6-11,3-.76,7.83-.06,9.9,2a45.09,45.09,0,0,1,9,13.51c11.74,26.05,22.86,52.35,34.68,78.35,19.46,42.8,39.53,85.33,58.86,128.2,8.7,19.32,16.15,39.21,24.34,58.77,23.14,55.27,47,110.23,69.35,165.81,21.33,53,41.06,106.64,61.65,160C404.47,614.45,407.59,618.85,411.65,626.25Z"/><path class="cls-1" d="M417.62,475.6c6.92-16.76,14.73-33.21,20.59-50.34C454,379.08,469,332.69,488.68,287.91c18.9-43,37-86.38,55.74-129.48,11-25.31,22.88-50.27,34.06-75.53,7.06-16,13.51-32.25,20.31-48.35,2.85-6.8,5.72-13.59,8.86-20.26,4.11-8.72,8.45-11.52,14.31-9,8.4,3.68,5.62,10.63,3.71,16.53-4,12.24-7.33,24.91-13.2,36.25a1525.19,1525.19,0,0,0-65.58,146.07c-14.42,36.9-32,72.53-47,109.22-14.63,35.8-27.37,72.37-41.68,108.3-9.86,24.81-20.94,49.12-31.51,73.64a36.15,36.15,0,0,1-2.57,4.89c-6.6,10.64-15.12,11-21.17.69a74.37,74.37,0,0,1-4.75-9.95c-12.67-31.7-27.73-62.24-42.94-92.79C338.46,364.44,326,328.52,309.2,294.77,282,240.22,261.2,183,237.13,127.18c-12.76-29.61-25.82-59.11-38.72-88.67-1.83-4.21-3.63-8.46-5.26-12.76-4.29-11.35-3.73-17.87,1.66-19.07,9.18-2,13.36,5.08,17.34,10.86,3.59,5.21,5.66,11.53,8,17.53C247.07,104.7,274.88,174,306,241.84c28.36,62,57.34,123.64,85.93,185.5,3.46,7.5,6.11,15.37,9.2,23.05,3.36,8.38,6.79,16.71,10.22,25.07Z"/><path class="cls-1" d="M414.15,369.22c-14.95-25.22-23.6-48.57-31.69-71.87-14.24-41-33.61-79.78-50.48-119.63-9-21.18-20-41.47-29.34-62.51C290,86.58,278,57.62,265.84,28.76c-3.57-8.52-2.57-14.57,2.31-17.19,6.24-3.36,13.21.54,16.7,9.24,20.61,51.29,43.08,101.76,66.07,152.05,18.34,40.09,38.94,79.46,50.88,122.3,2.43,8.71,5.87,17,10.82,23.38,6.9,1,7.54-3.5,8.87-6.51,25.6-58.21,50.85-116.55,76.65-174.65,12.35-27.78,25.66-55.1,38.63-82.58Q546.19,34.78,556,15c1.6-3.25,3.42-6.66,6-9.06a9.06,9.06,0,0,1,12.57-.08,12.45,12.45,0,0,1,3.33,9.56c-.67,4.39-3.12,8.63-5.34,12.63-34,61.47-60,126.48-86.86,191.18-19.43,46.77-41.9,92.27-63.15,138.29C421.17,360.52,418.63,363.06,414.15,369.22Z"/><path class="cls-1" d="M315.76,20.6l15.3-11.75c3.68,5,7,8.14,8.76,12C360.2,65.21,380.18,109.72,400.68,154c4.45,9.61,8.75,19.81,19.7,28,4.28-9.75,7.87-18,11.48-26.16,3.35-7.61,6.68-15.2,10.1-22.78q25.62-56.68,51.33-113.36a146.25,146.25,0,0,1,7.57-14.74c2.78-4.66,10-6.25,14.64-3.73s6.89,8.6,4.76,14.35A38.92,38.92,0,0,1,516.73,23c-20.82,32.89-33.38,69.79-50.81,104.32-7.47,14.79-13.61,30.29-19.71,45.72-4,10.18-7.09,20.78-10.21,31.29-1.62,5.47-3.17,11.12-9.33,12.53a14.77,14.77,0,0,1-16.62-7.15c-9-15-18.39-29.89-26.15-45.55C361.84,119.55,340.53,74.59,319,29.73,317.82,27.33,317.18,24.69,315.76,20.6Z"/><path class="cls-1" d="M417.17,55.75c5.24-12.43,9.66-23.5,14.59-34.32A75.65,75.65,0,0,1,440.2,7.26C443.82,2.48,451.42,1.7,455,5c4.27,4,2.33,8.17.61,12.54-8.39,21.43-16.67,42.91-25,64.36a30.06,30.06,0,0,1-2.4,4.94c-4.77,7.6-16,8.33-21.23,1.21-2.14-3-3.5-6.47-5.38-9.62q-16.32-27.32-32.73-54.57a52,52,0,0,1-3.93-7.21c-1.83-4.65,1.28-11.08,6.34-13.84s9.23-1.11,11.95,3.06c5,7.69,9.42,15.84,14.06,23.79,4.18,7.17,8.22,14.42,12.59,21.44C410.67,52.45,412.74,53,417.17,55.75Z"/></g></g></svg>