<svg xmlns="http://www.w3.org/2000/svg" viewBox="0 0 838.59 913.77"><defs><style>.cls-1{fill:#fff;fill-rule:evenodd;}</style></defs><g id="Camada_2" data-name="Camada 2"><g id="Camada_1-2" data-name="Camada 1"><path class="cls-1" d="M416.88,26.09c-17.61,44.13-33,82.58-48.3,121.08-6.79,17.11-12.53,34.67-20.12,51.42-73.95,163-148.74,325.55-222,488.82-23.81,53.05-47,106.25-76,156.71-10.54,18.29-18.34,38.15-27.55,57.2-1.58,3.26-3.41,6.93-6.19,8.91C14.13,912,8.93,913.51,7,912.15c-3.25-2.33-5.14-6.84-6.93-10.76-.52-1.12.93-3.5,2-4.93,12.58-17.3,20.68-36.78,29.23-56.24,12.61-28.66,27.86-56.16,41-84.61q52.13-112.93,103.36-226.28,71.54-157.46,142.74-315.07c21.94-48.71,44.38-97.27,62-147.75,7.66-21.89,22-40.18,30.37-61.59C413.08-.9,423.21-1.59,427.61,3a22.06,22.06,0,0,1,3.27,4.4C449.45,41.32,470,74,484.29,110.37c16.92,42.83,37.47,84.19,56.06,126.35,14.49,32.86,28.07,66.15,42.71,98.93,10.12,22.73,21.35,45,32.11,67.37,2.39,5,5.14,9.85,7.27,14.94,18,43.36,35.54,87,54.13,130.13,16,37.21,33.24,73.91,49.93,110.83,22.06,48.7,43.6,97.63,66.39,146,12.56,26.61,27.21,52.25,41,78.32,1.27,2.43,3,4.71,3.9,7.26,1.75,4.8.92,9.69-3.74,11.86-2.87,1.33-7.9,1.47-10.21-.24a36.81,36.81,0,0,1-10.7-12.28c-14.43-27.81-28.74-55.69-42.41-83.88Q744.76,752.4,720,698.32c-10.38-22.62-19.61-45.76-29.75-68.5Q652.55,545.2,616.42,459.9c-25.1-59.3-49.95-118.79-78.78-176.56C516.27,240.5,498.85,195.68,479.12,152c-15.9-35.2-32.53-70.07-49.08-105C427.4,41.44,423.49,36.49,416.88,26.09Z"/><path class="cls-1" d="M420.07,143.73c-4.5,10.2-10.18,19.92-13.15,30.4-11.63,41-29.87,79.36-45,118.94-11.48,30.12-22.1,60.56-33.11,90.86-1.89,5.21-3.56,10.5-5.78,15.57-34.11,77.56-63.61,157.09-101.87,232.89-24.08,47.7-45.69,96.62-68.6,144.9-12.24,25.81-25,51.39-37.33,77.14-6,12.45-11.51,25.11-17.36,37.62-2.32,5-4.29,10.39-7.77,14.47-1.79,2.11-7.09,3.09-9.78,2s-5-5.26-5.27-8.31c-.33-3.34,1.37-7.13,3-10.38,32.72-67.1,66.27-133.8,98.15-201.29,33.84-71.67,67.42-143.43,97.65-216.77q42.13-102.28,79-206.47c5.84-16.42,13.69-32.13,20.41-48.26,3.19-7.63,6.87-15.26,8.61-23.26,5.74-26.52,18.36-50.08,30.37-73.93,2.68-5.32,5.87-9.44,12.33-9.2,6.18.22,10.32,3.83,12.55,9.27,15.41,37.44,35.54,72.65,49.37,111,23.44,65,49.86,128.89,81.14,190.64a232.19,232.19,0,0,1,12.13,27.85c16,45.27,36.59,88.57,55.95,132.39,28.7,64.91,58.69,129.31,85,195.18,15,37.51,30.37,74.77,46.81,111.62,1.48,3.33,3.2,7.06,3,10.48-.22,3.15-2.21,7.54-4.71,8.8s-7.4.45-9.92-1.32c-2.71-1.91-4.23-5.84-5.75-9.14-15.35-33.43-33.29-65.52-44.63-101-9.47-29.67-24.93-57.42-37.28-86.19-17.06-39.79-33.46-79.86-50.61-119.61-8.77-20.28-18.56-40.15-27.8-60.24-3.47-7.55-7.13-15-9.84-22.85-19.24-54.93-45.46-106.79-70.22-159.29-7.86-16.65-14.61-33.84-21.33-51-10.74-27.46-20.37-55.36-31.71-82.56-9.55-22.94-20.8-45.16-31.49-67.62C424.49,145.75,422.32,145.17,420.07,143.73Z"/><path class="cls-1" d="M426.94,287.53c-8.85,22.26-16.54,41.68-24.28,61.1C380.47,404.24,358,459.76,336.09,515.5c-45.22,115-99.79,225.89-150.92,338.29C178.71,868,173.85,883,167.6,897.29c-2.09,4.76-5.48,9.87-9.72,12.47-2.94,1.79-8.95.57-12.44-1.36-2.09-1.15-3.27-6.6-2.56-9.57,1.24-5.28,4.17-10.17,6.54-15.15,10.69-22.46,21.73-44.75,32.1-67.36Q212.09,749.68,242,682.78c17.74-39.54,37.1-78.5,52.17-119,13.82-37.18,29.13-73.67,44-110.37q26-64,50.92-128.46c6.64-17.19,11.67-35,18-52.29,4-11,6.78-23,16.72-31.66,10.08,1.46,13.27,9.34,16.38,16.75,7.83,18.7,15.55,37.47,22.85,56.4,28.9,74.79,56.71,150,86.69,224.4,30.67,76.09,62.91,151.54,99,225.3,19,38.89,36.36,78.59,54.34,118,2.67,5.83,5.31,11.83,6.76,18,1.1,4.65-.93,9.71-6,11-3,.76-7.83.06-9.9-2a45.09,45.09,0,0,1-9-13.51C673.15,869.27,662,843,650.21,817c-19.46-42.8-39.53-85.33-58.86-128.2C582.65,669.44,575.2,649.55,567,630c-23.14-55.27-47-110.23-69.35-165.81-21.33-53-41.06-106.64-61.66-159.95C434.11,299.33,431,294.92,426.94,287.53Z"/><path class="cls-1" d="M421,438.17c-6.92,16.76-14.73,33.21-20.59,50.34-15.78,46.18-30.81,92.57-50.48,137.35-18.89,43-37,86.39-55.74,129.48-11,25.32-22.88,50.27-34.05,75.53-7.07,16-13.51,32.25-20.31,48.35-2.86,6.8-5.73,13.6-8.86,20.27-4.11,8.71-8.45,11.52-14.31,9-8.4-3.68-5.62-10.63-3.71-16.52,4-12.25,7.33-24.92,13.2-36.26a1522.64,1522.64,0,0,0,65.57-146.07c14.43-36.89,32-72.53,47-109.22,14.63-35.8,27.37-72.37,41.68-108.3,9.85-24.81,20.93-49.12,31.5-73.64a37.38,37.38,0,0,1,2.58-4.89c6.6-10.64,15.12-11,21.17-.69a73.91,73.91,0,0,1,4.75,10c12.67,31.69,27.73,62.23,42.93,92.78,16.82,33.74,29.25,69.66,46.08,103.41,27.24,54.55,48,111.76,72.07,167.59,12.76,29.62,25.82,59.11,38.72,88.68,1.83,4.2,3.63,8.46,5.25,12.75,4.3,11.35,3.74,17.87-1.65,19.07-9.18,2-13.36-5.08-17.34-10.86-3.59-5.2-5.67-11.53-8-17.53-26.93-69.62-54.74-138.88-85.84-206.77-28.36-62-57.33-123.63-85.92-185.5-3.47-7.5-6.11-15.37-9.2-23.05-3.36-8.37-6.79-16.71-10.22-25.07Z"/><path class="cls-1" d="M424.44,544.55c14.95,25.22,23.6,48.57,31.69,71.87,14.24,41,33.6,79.78,50.48,119.63,9,21.18,20,41.48,29.33,62.51,12.7,28.63,24.65,57.6,36.81,86.45,3.57,8.52,2.57,14.57-2.31,17.19-6.24,3.36-13.21-.54-16.7-9.24-20.61-51.29-43.08-101.76-66.07-152.05-18.35-40.09-38.94-79.46-50.88-122.3-2.43-8.71-5.87-17-10.82-23.38-6.9-1-7.55,3.51-8.87,6.51C391.5,660,366.24,718.29,340.44,776.4c-12.34,27.78-25.65,55.09-38.62,82.57q-9.42,20-19.24,39.86c-1.6,3.24-3.42,6.66-6,9A9.06,9.06,0,0,1,264,908a12.43,12.43,0,0,1-3.33-9.56c.67-4.39,3.12-8.63,5.34-12.63,33.94-61.47,60-126.48,86.86-191.18,19.43-46.76,41.9-92.27,63.14-138.28C417.42,553.25,420,550.71,424.44,544.55Z"/><path class="cls-1" d="M522.82,893.17l-15.3,11.75c-3.67-4.95-7-8.14-8.76-12-20.38-44.36-40.36-88.87-60.85-133.15-4.46-9.62-8.75-19.82-19.7-28-4.28,9.76-7.87,18-11.48,26.17-3.35,7.6-6.68,15.19-10.1,22.77Q371,837.44,345.3,894.11a147.27,147.27,0,0,1-7.57,14.74c-2.78,4.66-10,6.25-14.64,3.74s-6.89-8.61-4.76-14.36a38.92,38.92,0,0,1,3.53-7.46c20.81-32.89,33.38-69.79,50.8-104.32,7.47-14.79,13.62-30.29,19.72-45.72,4-10.18,7.08-20.78,10.21-31.29,1.62-5.47,3.16-11.12,9.33-12.52a14.73,14.73,0,0,1,16.61,7.14c9,15,18.4,29.89,26.16,45.55,22.06,44.61,43.37,89.57,64.94,134.43C520.77,886.44,521.41,889.08,522.82,893.17Z"/><path class="cls-1" d="M421.42,858c-5.24,12.43-9.67,23.5-14.59,34.32a75.87,75.87,0,0,1-8.44,14.17c-3.63,4.78-11.22,5.56-14.76,2.26-4.28-4-2.33-8.17-.61-12.54,8.39-21.42,16.66-42.91,25-64.36a29.66,29.66,0,0,1,2.4-4.94c4.77-7.6,16-8.32,21.22-1.21,2.15,3,3.51,6.47,5.39,9.62q16.32,27.31,32.73,54.58a51.93,51.93,0,0,1,3.93,7.2c1.83,4.65-1.29,11.08-6.34,13.84s-9.23,1.11-12-3.05c-5-7.7-9.42-15.85-14-23.8-4.18-7.17-8.22-14.42-12.6-21.44C427.92,861.32,425.85,860.76,421.42,858Z"/></g></g></svg>