<svg xmlns="http://www.w3.org/2000/svg" viewBox="0 0 740.96 813.52"><defs><style>.cls-1{fill:#e56df6;}</style></defs><g id="Camada_2" data-name="Camada 2"><g id="Camada_1-2" data-name="Camada 1"><path class="cls-1" d="M257.35,253.31c4.86-2.16,9.18.14,13.82,1.26,14.55,3.49,29.17,6.75,43.87,9.5,5.18,1,11,.94,13.85-7-10.66-6.3-23.59-5.06-34.62-9.76s-23.41-6.75-33.14-14c.5-5.6,3.78-5.94,7.33-5.17,10,2.13,19.87,4.75,29.92,6.59,4.32.78,8.91.13,18,.13-5.82-4-7.62-5.72-9.75-6.64-10.58-4.58-21.36-8.73-31.83-13.53-3.08-1.41-4.85-4.59-1.51-9.5,19.43,9.36,38.79,19.44,61.19,17.71,3.12-.24,6.11-2.15,11.77-4.26-4.77-2.74-7.13-5-9.82-5.49a223.53,223.53,0,0,1-54.28-17.67c-1.05-.49-1.73-1.8-3.26-3.46l5.14-10.1c2,.44,3.62.3,4.45,1.07,5.87,5.39,10.5,12.3,18.13,15.67,3.54-4.89.79-8.45-1-11.81-3.26-6-7.4-11.51-10.31-17.63-1.12-2.35.08-5.81.33-11.32,17.76,14.21,25.13,35.52,44.62,43.74,3.66-1.52,3.7-4.23,2.07-6.55-4.3-6.12-9.09-11.9-13.51-17.94-7.64-10.44-15.38-20.83-22.49-31.64-1.3-2,.23-5.84.6-10.69,6.91,3.52,8.53,9,11.9,12.78,4.07,4.58,7.76,9.53,12.13,13.78,3.72,3.63,8.18,6.5,13.86,10.9,1.06-8.14-2.66-12.21-5.48-16.49C332.18,145,324.65,134.41,318,123.34c-1.73-2.87-1-7.22-1.61-12.94,9.83,4,11.42,12,15.67,17.53s7.78,11.21,12,16.55c4.52,5.73,8.55,12.37,17,13,.53-1.58,1.55-3,1.18-3.78a134.3,134.3,0,0,0-6.74-12.57C348.36,129.52,341,118,333.89,106.42c-1.78-2.89-3.66-5.91-4.57-9.11-.65-2.28-.7-5.86.64-7.3,2.21-2.36,4.91-.43,6.56,1.93,3.51,5,6.67,10.32,10.37,15.19,5.77,7.57,11.7,15,17.92,22.2,2,2.34,5.21,3.69,10.08,7-1.37-8.7-4.89-13.49-7.91-18.41-3.2-5.23-6.71-10.28-9.94-15.49s-6.3-10.55-9.45-15.81-6.34-10.45-9.92-16.34C349.31,46.62,359.08,22.06,373.21,0c6,1.23,6.09,4.31,4.53,7.79C374.4,15.23,370.86,22.6,367.41,30c-4.6,9.88-9.34,19.69-13.65,29.71-1.24,2.9-1.15,6.38-2.23,13,17.6-15.45,18.82-38.44,37.66-52.81-4.58,26.55-21.09,45.66-24.88,72.36C380.38,77.45,383,58,394.74,44.38c5,1.17,4.85,4.67,3.7,7.92a141.37,141.37,0,0,1-5.81,13c-4.42,9.22-9,18.36-13.33,27.65a45.3,45.3,0,0,0-3,9.66c-.37,1.81.21,3.82.51,7.48,3.05-1.76,6-2.44,7-4.21,5.53-9.4,10.42-19.15,15.88-28.6,1.88-3.28,4.74-6,9-11.25.78,20.92-16.32,32.39-17,50.76,7-1.46,9.77-7.09,13.5-11.35,3.88-4.44,7.47-9.15,11.18-13.72,7.69,3.86,7.1,10.55,9.7,14.71-1.44,2.41-1.83,4-2.84,4.63-4.7,2.73-9.72,4.92-14.29,7.85-2.63,1.66-4.59,4.36-7.73,7.45,11.36,6.53,19.29-2.71,28.18-2.37,3,2.89,1.07,5.21-1.44,6.29-10,4.29-20.16,8.17-30.25,12.27-4.25,1.73-9.53,2.37-10.1,9.86,18.28,4.5,32.87-9.87,49.6-10.38,4.28,5.05,1.48,8.33-2.43,10-12.55,5.26-25.31,10-38,14.84-4.45,1.68-9.24,2.55-13.57,4.47-2.07.93-3.42,3.48-5.91,6.17,11.31,2.8,20.44.08,29.45-2.73,9.77-3.05,19.36-6.62,29-9.94,2.58-.88,5.17-2.13,7.79-2.26,1.74-.08,4.83,1.3,5.06,2.46.43,2.22,0,6.12-1.39,6.94A155.2,155.2,0,0,1,427,181.6c-8.22,3.25-16.83,5.55-25,8.86-2.64,1.06-4.51,4-8,7.38,20.13,1.45,36.22-7.29,56.31-11.08-11.54,13.25-28.59,11-37.79,22.16,1.78,4.94,5.64,3.32,8.29,2.58C432,208.38,443,204.75,454,201.38c3.06-.93,6.18-1.64,9.24-2.44,2.38,5.51-1,7.46-3.65,8.68-8.62,4-17.39,7.82-26.33,11.11a144.71,144.71,0,0,0-29.79,15.09c15.54,2.35,26.39-4.91,39-5.23-5.19,11.19-17,12.44-26.36,22,22.7-5.65,39.66-19.41,65.31-19.23-21.8,13.67-43.15,20.5-56.35,38.57-1,1.38-.67,3.73-.93,5.41,3.77,3.59,6.6,1.34,9.21-.8,12.79-10.42,27-18.47,42-25.2,3-1.36,6.47-2.56,9.66-2.45,1.76.07,3.41,3,6.65,6.22-7.29,3.15-12.82,5.34-18.16,7.91-4.91,2.36-9.66,5.08-14.42,7.74-7.82,4.39-15.24,9.38-18.8,18.07-1.17,2.88-1.11,6.27-2.13,12.52,5-3.42,7.91-4.72,9.88-6.86,12-12.95,27.14-20.39,43.79-25,2-.56,4.59.85,8.46,1.7-5.26,9.35-14.38,10.14-20.31,15.09-5.72,4.79-11.6,9.51-16.63,15C458.06,305,452.29,311,453,321.86c11.92-4.73,16.68-15.45,25.28-21.49,8.33-5.84,16.34-12.13,26.28-14.65,4.06,4,2.12,6.11-1.37,7.95-16.36,8.56-27.95,21.6-35.33,38.38-1.85,4.21-3.64,8.87,2,13.45,6-3.79,7.1-11.19,11.35-16.14,4.87-5.67,9.67-11.46,15.06-16.62,4.89-4.67,10.56-8.49,19.06-8.78,16.07,28.19,27.9,58.62,42.79,88-11.44,16.73-27,30.18-30.77,50.55-.68,3.71-1.18,7.46-1.88,11.87,7.87-1.89,8.45-8.2,11.56-12.38,6.9-9.27,13.63-18.67,20.77-27.76,2.57-3.27,4-2.59,9.2,3.4-16,17.14-32.07,34.49-37.81,58,4.61,3.8,7.46,1.55,9.51-1.07,6.28-8.07,12.12-16.49,18.36-24.59,4.12-5.34,8.64-10.4,12.58-15.1,6.84.77,8.36,4.22,5.4,8.42-4.71,6.67-10.3,12.72-15.48,19.05a89.92,89.92,0,0,0-17.29,32.35c4.65-1.48,7.52-1.52,8.91-3,5.13-5.4,9.81-11.23,14.58-17,5-6,9.24-12.75,20.92-18.25-5.16,8.05-8.35,12.15-10.59,16.72-5.7,11.58-11.11,23.3-16.13,35.17-.5,1.19,2.17,4.16,3.94,5.59.49.41,3.54-1.38,4.54-2.78,1.54-2.19,2.23-4.95,3.43-7.41,4.24-8.54,8.43-17.1,12.9-25.52,1.18-2.24,3.31-4,6.31-7.46,2.65,5.34,4.59,9.26,6.78,13.7-13.59,19.16-25.38,39-29.45,62.36-.29,1.64,1.27,3.63,2.4,6.53,10.73-7.09,9.21-19.54,14.46-28.39s9.48-17.9,13.73-26c6-.76,7.81,2.35,8.5,5.64.65,3.12.92,6.82-.19,9.66-1.72,4.39-5.27,8-7.11,12.38-2.3,5.45-7.29,10.2-5.25,17.83,16.33,8.68,32.15,19.12,45.88,32.39,1.69,1.63,2.08,4.62,3.75,8.55-8.84.34-13.24-6.31-19.62-7.63s-12.72-3.62-20.34-5.88c.72,9.88,7.05,12.51,12.79,15.51,10.79,5.67,21.73,11.08,32.44,16.89,4.69,2.55,9.59,5.39,8.27,13.41-21.73-6.37-39.73-19.87-59.38-29.05-4.43,4.06-1.68,7.26.52,9.07,6.29,5.16,12.74,10.32,19.78,14.33,13,7.4,26.6,13.87,39.79,21,4.57,2.48,8.71,5.76,14.41,9.57-9,1-8.93.89-27.24-7.41-8.7-3.93-17.54-7.51-26.33-11.2-8.56-3.62-16.06-10-27.77-10.87,2.58,7.39,7.71,10.35,12.61,13.1,7.71,4.33,15.83,7.92,23.6,12.14,4.13,2.24,7.9,5.16,11.81,7.76-8.76-.59-15.74,3.75-22.54,8.3-20.25,13.6-33.13,33.89-47.49,52.83a5.57,5.57,0,0,0-1.26,3.79c.48,2.48.93,5.9,2.62,6.94s5.42.28,7.17-1.08c4.43-3.44,4.88-11.1,13.07-12.12-.51,4.32-1.38,8.21-1.31,12.09,0,3.63,1.67,6.59,8,5.37,7.55-17.9,23.18-29.9,39.24-41.47,4.41-3.18,9.15-6,13.3-9.43,2.3-1.9,3.7-4.88,7.28-9.83-19.54.88-30.59,15.36-49.65,20.34,4.79-5.65,6.59-8.46,9-10.49,5.73-4.79,11.43-9.82,17.82-13.62,5.46-3.26,2.59-8.23,4.13-12.17,12.86,6.07,25.79,12,38.53,18.29,5.33,2.63,7.27,7.66,7.42,14.93l-20.47,5.64c3.15,3.14,4.85,6.23,7.3,7,5.76,1.86,11.89,2.53,17.84,3.81,7,1.5,10.14,6.05,10.21,14.38-14.72,3.58-31-3-46.74,6.87,19,10.9,41.23,3,61.22,16.24-12.71,2.36-21.43-2.25-30.4-1.85-9.24.41-18.92-1.66-27,5,2.26,6.56,7.54,5.86,11.91,6.65,11.37,2,22.87,3.45,34.11,6,5.83,1.32,11.34,4.3,16.76,7,1.05.53,1,3.26,2,6.83-16.54-2.56-31.34-9.34-47.08-6-2.38.49-4.68,1.26-6.82,1.86.68,7.33,5.76,6.24,9.33,7.3,13,3.83,26.13,7.42,39.12,11.42,3.43,1,2.61,4.06,1.52,6.67l.27-.31c-19-1-38-2.05-57-2.84-1.53-.07-3.16,1.67-6.37,3.5,2.82,2.35,4.42,4.7,6.47,5.21a146.26,146.26,0,0,0,20,3.68c17,1.78,34,3.09,50.94,4.7,2.35.21,4.64,1,8.53,2-18.86,8.07-43.5,8.92-91.09,3.76-.82-4-2.09-8.39-2.58-12.88-.91-8.17-3.32-15.52-8.28-21.66-5.31,1-3.59,4.32-3.61,6.55,0,8.17.36,16.34.16,24.48,0,1.41-2.11,3.76-3.4,3.87s-4-1.76-4.18-3.07c-.75-4.68-.51-9.51-1-14.24-1.73-15.54-2.14-31.32-8-46.16-.64-1.67-.64-1.67-8.13-5.75,1.14,23.37,6.74,46.21,2,69.23-.06.27-1.12.31-2,.53-3.7-.07-3.57-3.06-3.66-5.65-.34-10.2-.25-20.43-.91-30.61-.5-7.62-3-14.74-8.53-20.35-1.27-1.29-3.32-1.84-6.67-3.61.55,5.19.74,9,1.36,12.64,2.39,14.17,4.34,28.36,1.49,42.67-1,4.89-4.3,6.63-10.66,4.54-1.55-11.18-3.12-23.1-4.87-35s-.78-24.5-10.06-33.65c-4.91.13-4.94,3.5-4.73,5.83,1,10.87,2.56,21.68,3.57,32.54.82,8.81,1.34,17.65,1.64,26.51.14,3.69-.94,4.08-9.8,4.94-.43-2.44-1.43-5-1.25-7.45,1.29-17.31-2.71-33.91-6.34-50.56-1.77-8.18-5.29-15.53-11.8-21-1.23-1-3.34-1-6.52-1.95,6.23,27.14,16.11,52.74,10.95,82.06-9.61-4.48-16.51-10.17-25.92-8.76a91.41,91.41,0,0,1-24.49.72c-9.37-1.17-16.44,4.16-25.17,7.58-9.15-18.56-12.21-38.25-19.6-56.29-4.54-.34-4.22,3.09-3.84,5.43,2.4,14.78,5.26,29.47,7.63,44.26.91,5.74-2.53,7-9,5.22-3.31-11.56-7.16-23.83-10.24-36.27-2.91-11.72-5-23.63-7.42-35.37-5.42-.35-4.12,3.5-4.32,5.48-1.8,17.9,1.26,35.34,5.53,52.64a59.43,59.43,0,0,1,1.85,11.89c0,.89-2.92,1.88-5.6,3.48-4.62-19.88-9-38.87-13.3-57.22-5.5-1.16-6.11,1.61-6,4.29.73,16.32,1.64,32.65,2.5,49.1-5.78,2.88-8,2.65-8.53-1.32-1.55-12.17-2.7-24.39-4.37-36.55-1-7.22-1-14.8-5.19-21.93-5.85,11.82-6.84,18.25-5.67,32.39.72,8.82,1.27,17.65,1.72,26.5.12,2.36-.88,2.63-9.31,3.12,0-20,1.93-40.4-8.26-59.27-4.47,1.31-3,5.41-3.13,8-.52,10.89-.23,21.82-.72,32.72a57.15,57.15,0,0,1-2.6,15.92c-.63,1.79-5,2.33-8.84,3.93-2-22.9-1.61-43.85,1.7-64.78.64-4,1.89-8.09,1.72-12.09-.12-3-2.09-5.87-4.22-11.31-14.34,28.89-11.45,57.67-12.32,85.48-13.82,5.25-26.06.19-37.42,2.2-16.3-17.52-32.06-34.49-47.84-51.42-1.86-2-3.84-3.89-5.79-5.77-2.67-2.59-5.73-3.9-9-1.3s-2.87,6.16-.34,8.91c6.45,7,13.14,13.86,19.85,20.64,8.58,8.64,17.29,17.14,27.08,26.83-6.78,3.18-11.18,2.76-15.51-1.45q-17.56-17.14-35.34-34.1c-2.45-2.33-4.85-5.08-7.81-6.41-3.68-1.66-6.36.6-8.2,5.61L253.13,803c-4.34,5.5-8.94,4.15-14,3.14-8.59-8.33-12.33-22.74-27.07-24.88-.7-.09-1.68,1.74-3.42,3.63,5.39,6.41,10.9,13,17.72,21.06-18.24,4.59-34.92,3.37-51.25,3-2.84-4.38.2-6.59,2.38-9.05,8.53-9.65,16.84-19.47,22.29-32.18-11.62,4-12.84,4.5-18.63,10.41-10,10.16-19.7,20.53-29.77,30.58-.92.91-3.54.12-5.85.12,9.11-13.5,17.79-26.26,26.3-39.14.53-.79-.29-2.46-.58-4.43-5.54-.86-8.18,3.57-11.08,6.71-11.54,12.52-22.82,25.25-34.17,37.95-2.51,2.81-5.24,4.14-10,1.6,3.35-8.28,11.19-12.83,16.28-19.44s10.65-12.5,15.23-19.25,10.39-13.6,11.4-24.56c-9.19,3.7-12.36,9.94-16.81,14.84-11.42,12.62-22.82,25.29-34.49,37.69-8.35,8.87-18.74,12.88-31.09,12.73-22.48-.28-45,0-67.43-.08-2.65,0-5.28-.85-9.06-1.49.46-3.57.09-7.11,1.45-9.74,2.43-4.77,5.91-9,8.91-13.36,12.63-.31,23,5.76,34.27,7.85s22,7.58,36,3.69c-3.73-2.79-5.85-5.41-8.52-6.23C55.83,789.23,39.36,784.78,23,780c-2.24-.66-4.1-2.59-8.68-5.61,15.22-2.62,24.7,5.76,35.56,7.78,10.49,1.93,20.52,6.82,33.74,4.83-8.86-8.94-19.18-10-28.3-13.18-9.37-3.33-18.78-6.36-30.11-12.93,12.87-3.67,21.09,2.07,29.85,3.56,8.55,1.45,16.67,6.54,27.75,2.84-3.51-2.37-5.74-4.5-8.4-5.57-12-4.85-24.17-9.28-36.14-14.19-1.16-.49-2.36-3.8-1.79-4.87.71-1.33,3.51-2.68,5-2.3q23.69,6.35,47.18,13.33c6,1.79,11.83,3,19.76.53-2.75-2.32-4.27-4.48-6.3-5.17-15.45-5.23-31-10.15-46.52-15.23-2.59-.85-5.53-1.5-7.46-3.18-1.73-1.5-3.39-4.48-3.1-6.53.58-4,4.11-5.14,7.79-4.21,3.29.82,6.4,2.32,9.63,3.37,10.3,3.33,20.69,6.28,31.82,7.55-2-10.31-11.9-8.76-17.32-13.52,1.59-2.67,2.75-6.08,5.12-7.76,8.2-5.82,16.92-10.9,25.26-16.52,3.63-2.44,6.81-5.53,11.25-9.18-11.37-3.23-18.89,2.1-26.08,6.49-8.22,5-18.76,7.55-23.55,18.57,3.1,3.07,5.84,5.8,8.56,8.52-7.46-4.25-17.77-2.79-23.69-12.06,8.09-14.38,26-16.09,37.74-28.42-9.77-2.57-15.77,5-23.23,5.41-3.32-2.92-.65-5,1.37-6.07,10.77-5.86,21.77-11.29,32.51-17.15,3.33-1.82,6.14-4.57,10.25-7.69-16-5.48-24.59,10.44-37.71,9.09-2.46-3-.47-5.28,1.7-6.61,5.81-3.52,11.82-6.72,17.88-9.75s12.25-5.71,18.1-8.42c.1-6-3.75-6-6.87-5.3-6.61,1.47-13.06,3.62-19.68,5.51-4.74-4-1.27-7.9,1.42-9.89,5.41-4,11.65-6.9,17.65-10,7.12-3.75,15.54-5.21,21.28-12.09-2.37-4-5.7-1.55-8.35-1.24a94.08,94.08,0,0,0-12,2.51c-3,.75-6,1.82-8.61,2.63-3-4.2-1.35-6.37,1.41-7.13,15.34-4.24,36.83-15.36,47.73-25.1.41-.36.39-1.23.81-2.74-15.36-1.82-26,11.38-40.2,12.17-1.18-9.52-1.22-9.61,4.36-12.75,9.48-5.32,19.15-10.35,28.52-15.86,6.42-3.77,12.93-7.62,17.33-15.39-14.29-1.42-23,11.31-35.41,12.61-.51-1.61-1.52-3.06-1.17-4,3.71-9.48,7.65-18.86,11.55-28.35,24.62-8.4,38.67,8.23,56.15,20.79-3.13,3.72-5.29,6.86-8,9.4-4.46,4.19-9.62,7.66-13.86,12-3.6,3.73-4.63,8.25,1.25,12.86,8-2.77,15.37-8.21,21.33-14.1,11.9-11.74,26.36-16.21,41.9-19.24,6.53-1.28,12.92-3.24,19.22-4.85-.69-6.93-5.27-7-9-7.17-14.42-.57-28.37,2.19-42.77,7.69-14.81-17.19-32.49-30.16-58.18-34,8.21-6.49,14.58-6.26,20.83-3.19,9.17,4.49,18,9.54,27,14.44,3.41,1.87,6.32,5.51,11.9,2l-7.53-14.6h11.41c-2.29-13.44-2.29-13.44-41.49-35.38,2.19-4.62,6.69-4.38,9.93-3.43a106.38,106.38,0,0,1,18.71,7.76c4.73,2.45,8.91,5.93,12.73,8.55,4.53-1.86,4.57-4.18,3-6.87-5.64-10-14.74-15.81-24.93-20.15-4.31-1.83-8.82-3.17-12.91-4.61-1.54-6,.36-8.27,5.81-8a51.1,51.1,0,0,1,25,8.06c4.86,3.08,9.17,7.9,17.39,7.6-2.37-10.26-9-15.82-16.42-20-7-3.92-14.77-6.36-22.2-9.45,5.16-10.19,11.49-.91,18.65,0,10.46-19,21.13-38.51,31.91-58.16-2.1-4.22-6.13-2.8-8.05-.72-6.42,7-12.16,14.56-18.09,21.95-2.09,2.6-3.63,6-8,4l.56.36c4.6-10.56,9.16-21.15,13.84-31.68,2.16-4.86,3.32-8.89,2-15.05-1.87-9.1,4.06-17.71,9.5-26.69,8.28,4.54,9.21,12.25,11.57,18.86,1.56,4.38,2.07,9.14,3.4,13.63.3,1,2.21,2.34,3.14,2.17,1.76-.31,4.27-1.22,4.81-2.56a23,23,0,0,0,1.9-9.68c-.92-13.86-5.77-22.44-19.89-35.66,1.1-3.06,2.26-6.78,3.78-10.35s3.5-7.24,5.81-11.95c4.76,1.24,9.27,2,13.48,3.6,11.45,4.26,22.65,9.23,34.22,13.15,4.94,1.68,10.54,2,15.8,1.83,2-.07,4.89-3,5.47-5.11.37-1.34-2.54-5-4.4-5.31-15.63-2.9-29.34-10.48-43.4-17.2-2.32-1.12-4.31-3-6.63-4.61,4-3.9,6.69-.6,9.56.37,14.13,4.72,28.12,9.89,42.4,14.09,4.22,1.24,9.26.16,13.83-.49,1.38-.19,2.48-2.51,4.7-4.92-3-1.67-5-3.21-7.3-4-11.5-4.1-23.31-7.45-34.54-12.21-7.31-3.09-13.78-8.13-20.63-12.3Zm161.3,71c3.79,5.51,7.39,11.18,11.4,16.53,8.57,11.41,17.12,22.86,26.21,33.86,2.4,2.91,6.63,4.4,10.2,6.17.78.39,2.68-.52,3.46-1.37a5.18,5.18,0,0,0,1.07-3.63,6.82,6.82,0,0,0-1.77-3.59c-19.62-21.34-34.25-45.73-44.9-72.66-1.33-3.38-5.09-5.77-7.5-8.39-5.31,2.57-6.94,5.75-5.36,10.47,2.6,7.74,5.08,15.52,7.55,23.17-2.78-3.78-5.2-8-8.53-11.16-1.44-1.38-5.55-1.75-7.14-.67s-2,4.57-2.72,7.05a3.56,3.56,0,0,0,.47,1.94c8.19,20.94,19,40.39,33.62,57.58,2.46,2.9,6,4.84,11.23,8.87-.57-5-.18-7.82-1.25-9.84-5.38-10.17-11.35-20-16.72-30.2C423.92,340.78,418.19,333.7,418.65,324.29Zm48.47,82.23c-3.74-6.95-7.75-7.42-11.45-4.72a57.28,57.28,0,0,0-11.91,11.13c-16.81,21.83-29.58,45.69-34.91,73-.62,3.29-1.21,6.8-.7,10,.33,2.11,2.68,3.88,5.64,7.83C425.39,466.34,439.92,432.94,467.12,406.52Zm45.19,80.55c-3.61,10-10.41,13.61-15.63,18.71S482.73,512.9,480.22,522c23.53-2.14,40.52-14.48,47.48-34.2-3.46-2.62-7.12-5.42-10.77-8.2,4.05-12.07,4.05-12.07-5.51-17.43-6.35,11.07-18.47,17.95-23.54,30.53C497.52,497.66,502.54,489.43,512.31,487.07ZM498.37,648.18c1.41,1.49,2.47,3.17,4,4a4,4,0,0,0,3.73-.55A22,22,0,0,0,511,645.5q15.38-32,30.39-64.23a41.79,41.79,0,0,0,3.34-9.48c.71-3.61-.79-6.71-4.53-8s-6.62-.07-8.23,3.6q-15.72,36.32-31.36,72.69C499.55,642.54,499.16,645.25,498.37,648.18ZM563,567.41A361.63,361.63,0,0,0,532.44,639c-1.2,4-3.3,9.06,2.33,13.74,2.25-2.48,5.06-4.47,6.39-7.18q15.57-31.9,30.54-64.11c1-2.17,1.32-5.81.15-7.58C570.23,571.43,566.89,570.12,563,567.41ZM359,560.8c-1.49.91-3.27,1.37-3.58,2.31-.55,1.68-1,4.4-.11,5.36a42.59,42.59,0,0,0,9.23,7.6c21.19,12.58,40.23,27.24,51.8,49.86.76,1.5,4.62,2.12,6.88,1.86,1.19-.15,2.57-3,2.93-4.77a9.43,9.43,0,0,0-.76-5.86c-2.2-4.15-4.49-8.42-7.54-11.94a193.77,193.77,0,0,0-53.49-42.88C362.68,561.42,360.58,561.23,359,560.8Zm70.88,30.54c-.08-6.75-4.25-10.35-8.32-14-17.88-16-39.38-26.3-60.05-37.88a7.3,7.3,0,0,0-3.9-.79c-1.24.11-3.12.61-3.47,1.44-.67,1.63-1.31,4.31-.48,5.34a33.78,33.78,0,0,0,7.58,6.43c20.86,13.59,44.88,22.85,60.26,44,.65.88,4,.69,5.46-.16S429.12,592.56,429.86,591.34ZM315.59,803.29c-3.22-7.22-3.88-9.94-5.43-12-12.06-15.6-24.27-31.06-36.48-46.54a141.29,141.29,0,0,0-9.13-11c-2.39-2.45-5.79-4.35-9-2.11s-2.46,5.86-.68,9a10.28,10.28,0,0,0,1.12,1.71c16.06,18.44,32.07,36.9,48.29,55.18C305.8,799.37,308.71,799.92,315.59,803.29Zm27.23-417.5c-1.32-.33-2.85-1.28-3.8-.88-14.44,6.2-29,4.91-43.7,1.14a75.34,75.34,0,0,0-9.88-2.23c-3.64-.45-7.12.85-7.25,4.94-.07,2.16,1.68,5.79,3.4,6.36a249.94,249.94,0,0,0,29.22,8.2,33.71,33.71,0,0,0,27-5.74C341.68,394.8,345,391.33,342.82,385.79Zm4.63,231c-3.35,1.24-5.8,1.37-7,2.66a128.54,128.54,0,0,0-28.43,53.09,25.59,25.59,0,0,0,.05,11.93c.47,2.06,3.47,4.67,5.53,4.87,1.74.17,5.28-2.56,5.49-4.32,1.59-13,6.4-24.81,11.9-36.42,3.46-7.32,7.76-14.26,11.12-21.62C347.38,624.3,347,620.89,347.45,616.8Zm27.2,94.91c20.46-10,39.84-17.09,62.31-8.5.43-4.13,1.69-7.17.69-9-1.47-2.69-4.22-5.78-7-6.49-19.45-5-37.46.58-54.8,8.91C371.22,698.88,371.14,702.46,374.65,711.71Zm58.56-30.85c.48-3.92,1.84-7,.85-8.84a14.79,14.79,0,0,0-7.06-6.55c-19.05-7.05-37.36-3.19-55.06,5-4.62,2.13-4.47,5.63-.4,13.07C406.13,673.15,406.26,673.14,433.21,680.86Zm-3.45-112.94c6.1-5.25,5.79-9.69,1.6-13.38-13.39-11.76-27.91-21.83-45.08-27.36a33.75,33.75,0,0,0-11.91-1.95c-3.93.21-5.46,3.43-4.49,7.77,10.17,4.77,20.93,8.94,30.8,14.67S419.58,560.73,429.76,567.92Zm-151-199.55c6.39-8.25,4.43-14.12,1.55-19.27-8-14.23-16.38-28.21-24.81-42.17-1.36-2.27-3.58-4.08-5.58-5.91-3.42-3.15-8.33-2.94-10.71.54-2.15,3.14-2.18,6.61.76,9.18,11.51,10,19.06,22.93,26.41,36C270,353.17,273.74,359.57,278.77,368.37ZM573.94,594.94c-8.77,21.46-16.91,40-21.25,60-.34,1.53,1,3.45,1.7,5.44,5.64-.95,9.38-3.75,11.34-8.4,6.1-14.42,12.1-28.89,17.78-43.49a9.77,9.77,0,0,0-.74-7.56C581.58,599,578.64,598,573.94,594.94Zm-143.52-81.8c5.7,1.28,7.33-2.63,8.26-6.66,3.89-16.81,11.87-31.65,21.63-45.67a23,23,0,0,0,2.1-3.47c1.58-3.47,1.16-6.6-2.08-8.92s-6.64-1.45-8.86,1.5c-9.43,12.58-17.34,26.09-21,41.51C428.83,498.49,426.35,506,430.42,513.14Zm75.64,64c-17.12,4.46-33.36,2.24-48.69-6.44-1.68-1-3.85-1.84-5.64-1.59a7.38,7.38,0,0,0-4.65,3.14c-2.17,3.49-.74,9.25,2.76,10.48,9.49,3.35,19,7.11,28.76,9.09,9.18,1.86,18.83,1.95,27.57-2.93C510.79,586.34,510.93,582.9,506.06,577.17ZM231,625.26c-.69-1-1.23-2.62-2.13-2.85a11.31,11.31,0,0,0-5.93-.22c-25,8-43,45-33.67,69.9,1.3,3.51,5.27,3.57,8.28.61C198.76,653.34,203.43,643.93,231,625.26Zm160.76,5.37c2.57-4.44,5.16-7,5.26-9.62.12-3.08-1.33-6.68-3.16-9.3-10.71-15.35-25.61-25.9-41.49-35.23a6.11,6.11,0,0,0-3.89-.42,5.69,5.69,0,0,0-3.39,1.83,4.31,4.31,0,0,0-.52,3.73c1.29,2.26,2.77,4.79,4.86,6.21C365.74,598.93,380.82,611.26,391.8,630.63ZM338.89,418.74c-19.6,2.21-36.05-1.37-52.61-4.07a10.46,10.46,0,0,0-5.91.65c-1.63.82-3.44,2.62-3.79,4.28s.51,4.06,1.64,5.51a8.4,8.4,0,0,0,4.94,3.1c11.39,1.53,22.8,3.25,34.25,3.8,5.19.24,10.74-1.48,15.62-3.51C335.17,427.6,336.05,423.69,338.89,418.74Zm-74.7,11.67c-1,1.12-4.19,3.11-4.09,4.93.15,2.9,1.83,7.37,4,8.25,12.52,5,25.25,9.46,38.19,13.21,4.23,1.21,9.27-.12,13.91-.65a3.68,3.68,0,0,0,2.36-2.77,9.79,9.79,0,0,0-1.87-5c-.69-.94-2.3-1.31-3.57-1.73C297.22,441.34,281.28,436.06,264.19,430.41ZM261,703c6.08-24-1.31-42.76-16.45-59.35a15.53,15.53,0,0,0-3.31-2.34c-3.57-2.28-6.36-1-11.18,5.49,15.23,12.09,21.09,29.12,23.5,47.8a16.57,16.57,0,0,0,1.75,5.71C255.77,701.21,257.42,701.41,261,703Zm66,74.58c-.15-2.59.44-5-.49-6.15Q306,744.92,285,718.72a12.83,12.83,0,0,0-4.87-3.46c-1.08-.49-3.17-.51-3.81.18-1.27,1.35-2.85,3.64-2.48,5a23.34,23.34,0,0,0,4.41,8.87c11,12.89,22.18,25.69,33.6,38.24C315.73,771.84,319.65,776.66,327,777.6ZM400.1,283.15c5.23-10.6,5.3-13.57-.14-17.74-13.1-10.06-28.26-15.73-44.31-18.78-4.25-.8-9.39,0-11.2,6.81,9.42,3.63,18.66,7.17,27.88,10.75C382.49,268.13,392,273.12,400.1,283.15Zm24.75,117.64c0-5.47.45-7-.07-8q-11.55-23.7-23.36-47.26c-.88-1.73-2.32-3.8-4-4.38a11.29,11.29,0,0,0-7.28-.11c-1.25.48-1.89,3.3-2.23,5.19a6.22,6.22,0,0,0,1,3.84C397.22,364,405.38,378,414,391.62,416,394.71,419.8,396.61,424.85,400.79Zm6.31,256.84c3.2-7.15,3.12-10.94-1.28-13.32-4.68-2.52-9.71-5.2-14.86-5.91-13.26-1.85-27-4.25-38.22,6.45-2.27,2.18-4.8,4.78-1.93,8.33C405.39,649.16,405.39,649.16,431.16,657.63ZM328.51,603.51c-1.31-.71-2.65-1.41-4-2.12-3.67,3.69-8.64,6.77-10.76,11.2-5.75,12.12-10.37,24.79-15.29,37.31a19.6,19.6,0,0,0-.94,6c-.19,3.16,3.47,7.11,6.36,6.28,2.22-.64,5.45-2.72,5.66-4.46,1.89-15.87,9.3-29.43,16.57-43.19C327.82,611.33,327.77,607.21,328.51,603.51ZM453,517.38c5.38,3,7.79.58,9.34-2.53q10-20.07,19.66-40.36c1.57-3.33,1.17-6.72-2.26-8.9a7.55,7.55,0,0,0-10.51,3.14c-4.89,9.73-10,19.43-13.69,29.64C453.34,504.42,453.71,511.4,453,517.38Zm24.57,105.07c7-1.63,14.24-3.09,21.32-5.1a6.47,6.47,0,0,0,4.91-7.75c-.76-4.56-4.24-4.9-7.67-3.92-12.82,3.61-25.43,3.92-37.85-1.49-1.86-.81-3.81-2.05-5.7-2a7.25,7.25,0,0,0-5.12,2.35c-1.06,1.38-1.68,4.06-1.05,5.58,1,2.3,2.82,5.23,4.92,5.85C459.71,618.5,468.32,620.24,477.56,622.45Zm-322.2,55.38c-10.25,18.35-17.48,38.1-33.56,52.45-.74.65,0,4.65,1.06,5.22,2,1.07,5.71,1.93,7,.86C147.6,721.07,157,701.82,155.36,677.83ZM504.54,337.24c9.21,16.34,16.13,28.63,23.07,40.89,3,5.26,5.93,10.59,9.17,15.69,1.94,3.08,6.73,3.76,8.57,1.1,1.31-1.91,2.54-5.41,1.66-7.05q-9.54-17.79-20.07-35.05C522.81,346.08,517.51,340.31,504.54,337.24Zm-68.46,380c2.58-6.59-1.46-9.09-6.51-9.82-19.83-2.86-35.58,4.7-47.95,19.91-.76.94.39,3.46.77,6,10.64-.67,17.35-8.86,26.24-11.17S427,718.8,436.08,717.21ZM491,546.64c9.39.2,16.45-2.3,22.92-5.41,11.16-5.37,20.55-13.26,26-24.67,1.2-2.5.59-6.58-.64-9.25-.8-1.71-4.27-2.19-5.59-2.77-7.07,8.05-12.92,15.34-19.44,22C507.49,533.36,496.93,536,491,546.64Zm-223-34c-3-2.14-5.3-5-8.12-5.63-7.22-1.59-14.69-3.07-22-2.9-6.59.16-13.29,2.09-19.64,4.15-5,1.62-5.27,5.7-1.65,13,8.57-1.09,17.25-1.82,25.77-3.39C250.51,516.35,260,521.44,268,512.66Zm-125.64,145c-1.05.62-2.67,1-3.11,1.93-2,4.25-3.77,8.59-5.3,13-5.18,14.9-11.13,29.13-26.33,36.86a6.36,6.36,0,0,0-2.55,3c-.49,1.11-.88,3-.31,3.69,1.2,1.36,3.16,3.05,4.69,2.93a15.22,15.22,0,0,0,7.37-2.67c19.8-14.06,27.9-33.67,26.78-57.51C143.53,658.47,142.74,658.07,142.31,657.63Zm207.44-3.35c-3.69,1-6.24.91-7.08,2.06-10.89,15-16.89,32.08-19.28,50.41a10.71,10.71,0,0,0,.66,5.91c.8,1.57,2.85,3.61,4.28,3.55,2.33-.09,4.77-1.46,6.84-2.81.86-.55,1.25-2.42,1.23-3.69-.22-13.86,4.9-26.35,9.56-39C347.73,665.9,348.31,660.7,349.75,654.28ZM245.29,718c.57-25.32-6.58-42.69-20.24-57.7a8.55,8.55,0,0,0-3.35-2.2c-4.46-1.53-7.91-.86-8.65,3.81,5.49,9.12,10.83,17.58,15.72,26.29C233.47,696.61,233,707.69,245.29,718ZM526.21,414.73c6.59-5.94,7.67-7.89,5.13-11.16q-13.17-16.76-26.76-33.19a19.61,19.61,0,0,0-6.45-4.77c-1.54-.76-3.65-.36-5.5-.48-.07,2.43-1.19,5.58-.06,7.18,9.27,13.33,18.9,26.41,28.62,39.43C522.28,413.2,524.55,413.79,526.21,414.73ZM206.48,611.17c-3.67-1-4.4-1.49-4.89-1.31-20.36,7.31-37.4,40.22-30.53,59.6,1.1,3.1,4.46,5,8.81,1.35C179.87,648.21,187.24,627.81,206.48,611.17Zm107.24-140c-20.46-7.11-36.24-12.6-52-18.06a12.81,12.81,0,0,0-3.94-.81c-3.89-.05-6.7,2.06-6.78,5.78,0,2.24,1.64,6.07,3.27,6.53,14.89,4.1,29.87,8,45,11.06C302.5,476.29,306.48,473.5,313.72,471.12ZM284.18,695.65a14.93,14.93,0,0,0,6-13.79c-1.42-13.72-6.24-26.08-16.07-36.09a10.81,10.81,0,0,0-5-3.16c-1.66-.37-4.15,0-5.27,1.12s-2,4.28-1.32,5.19c10.64,13.48,16.2,29.09,19.8,45.59C282.46,695,283.45,695.21,284.18,695.65ZM218.89,432.76c9.65-16.69,19.25-33.31,28.91-50.05-2-.7-3.54-1.82-4.29-1.43-17.89,9.39-26.47,26.22-33.32,43.82C208.25,430.05,213,433.52,218.89,432.76Zm-76.12,210.9c-.86-20.63,2.28-38.65,15.08-53.49-1.56-1-2.2-1.73-2.65-1.62-12.06,2.75-16.82,12.43-20.58,22.62-3.55,9.6-5.11,19.58-.16,29.21C135.27,641.93,138.7,642.14,142.77,643.66ZM400,258.47c2.68-6.1,4.68-8.49,4.44-10.62a17.82,17.82,0,0,0-3.7-9c-10.05-12.14-29.88-15-47.75-7,1.27,1.5,2.16,3.61,3.57,4.05,4.46,1.41,9.12,3,13.71,3C382.72,239.19,392.38,243.89,400,258.47Zm103,306.27c20,2.23,34.66-6,45.61-21a7.12,7.12,0,0,0-2-10.55c-3.45-2.13-7-1.47-8.79,1.78-6.13,11.3-16.67,17.45-26.83,24.12C508.32,560.85,505.73,562.85,503.06,564.74Zm-178.58-3.28c10.8-6.12,12.56-9.35,9.87-17.69C329.9,530,320.2,520.9,307.43,514.88c-1.9-.9-4.44-.39-9-.66C310.3,530.08,323.59,542.29,324.48,561.46ZM477.76,397c-.11.76-.53,1.65-.26,2,9.39,12.2,18.73,24.44,28.37,36.45,2.5,3.12,5.62,1.74,11.41-4.75a193.62,193.62,0,0,0-25.3-30.9C488.14,395.91,483.46,392.77,477.76,397Zm-67.94,26.51c-2.84-19-11.28-34.16-20.85-48.72-.85-1.28-5.41-1.63-6.93-.56s-3.05,5.3-2.2,6.76c7.23,12.25,14.86,24.26,22.71,36.12C404.27,419.69,407.35,421.39,409.82,423.49ZM201.52,590.41c9.42-16.66,21.74-23.25,37.72-23.5,1.69,0,3.33-2.81,5.89-5.13-14.83-8.6-27.22-6.39-38.65,2.77C198.68,570.81,197.17,577.69,201.52,590.41Zm71.17-3.3c-8-8.77-14.25-11.26-20.8-11.1a76.89,76.89,0,0,0-21.54,3.7c-5.14,1.68-8.63,6.42-9.45,12.19-.46,3.12-1.2,6.67,2.26,7.73,7.84-3.71,14.6-8.11,22-10.07S260.82,588,272.69,587.11Zm-87,15.44c-3.25-1.35-3.87-1.87-4.44-1.81-10,.78-16,7.42-20,15.32-5.55,10.71-11.43,21.66-9.6,34.53.13.92,1.75,2,2.86,2.3s3.22.18,3.69-.55c1.76-2.75,3.68-5.66,4.38-8.78C166,628,171.68,613.78,185.68,602.55Zm82.09-203.29c-4.81-.68-6.35-1.43-7.22-.95-14.2,7.78-22.4,21.13-30.91,34.07-1,1.48.24,5.17,1.5,7.15,1.73,2.69,6.76,2.32,8.79-.54C248.86,426.46,257.6,413.8,267.77,399.26ZM525.9,757.94c-17.42-3.72-31.29-2.44-44.72,2.76-4.26,1.65-8.12,4.6-11.72,7.5-1.19.95-1.94,4.61-1.23,5.31,1.64,1.59,5.24,3.58,6.4,2.84,13.6-8.64,29.28-9.34,44.3-12.55C520.49,763.47,521.7,761.55,525.9,757.94ZM312.29,364c-1.73-18.89-12.9-32.9-20.6-48.45-.54-1.13-3.69-1.8-5.23-1.35a7.16,7.16,0,0,0-3.84,4,8,8,0,0,0,0,5.85C290.45,339,298.39,353.79,312.29,364Zm-41.11,189.2c8.37,14.75,15.9,28,23.77,41.84,6.27-.71,8.62-5.8,7.3-11.36-3.08-12.85-9.68-23.89-21.37-30.81C278.78,551.64,275.12,553,271.18,553.22Zm13.42-13.13c3.84,9.9,11.24,14.4,15.3,21.2,3.92,6.57,6.74,13.79,10.07,20.79,8.57-6.57,10-9.25,7.65-16.15-4.35-12.8-13-21.79-25.42-27C290.71,538.35,288.5,539.44,284.6,540.09ZM91.46,803.32c12.82-8.94,24.82-22.48,34.18-39.3,2.14-3.82,6.56-7.5,3.11-12.85-1.29.51-2.91.64-3.64,1.52-11.81,14.08-23.57,28.2-35.14,42.47C87.69,798,87.05,801.33,91.46,803.32ZM347,466.24c12.52,15.91,27.61,22.24,43.4,19.17,5.64-1.1,6.73-3.94,4.75-10.87Zm10-28.48c3.23,12.07,10.85,15.26,18.22,18.11a33,33,0,0,0,25.58-.1c3.3-1.41,5.42-4.71,3.9-8.15-.8-1.79-4.35-3.84-6.15-3.45-11.11,2.41-21.24-.77-31.45-4.25C364.76,439.11,362.2,438.84,357,437.76ZM486.51,631.6c-11.76-1.2-22.44-2.5-33.14-3.15-2-.12-5.45,2.06-5.94,3.8-.55,2,.77,6,2.48,6.92,10.4,5.79,21.32,8.71,33,3.21C487.39,640.25,488.72,637.08,486.51,631.6ZM319.87,334.47c16.62-5.51,16.62-5.51,43.55.88.11-1.92,1-4.26.2-5.45-8.51-12.44-25.89-17-39.14-10.17C319.39,322.38,316.62,326.81,319.87,334.47Zm71.22,94.87c1.3-1.16,4.65-2.78,5.42-5.23,1.16-3.67-1.86-5.95-5.46-7.05-8.35-2.57-16.68-5.31-25.06-7.85a37.36,37.36,0,0,0-7.85-1.54c-1.17-.11-3.28.63-3.49,1.4-.47,1.66-.74,4.3.22,5.31C364.17,424.24,376,428.5,391.09,429.34ZM576.61,672c16-11.77,19.56-26.43,23.94-40.51-5.61-4-11-5.42-13.28.13C582.49,643.3,575.39,654.53,576.61,672Zm-58.22,66.4c-17.58-4.43-31.26-4.27-42.85.42a24.05,24.05,0,0,0-8.41,5.22c-1.42,1.5-1.67,4.59-1.45,6.9.05.71,3.86,2.09,5.17,1.49,13.06-6.07,27-7.94,41.1-9.28C513.9,742.94,515.64,740.48,518.39,738.38ZM174.32,696c-2.29.52-4.25.41-4.66,1.15q-10.71,19.16-21,38.57a3.74,3.74,0,0,0,.89,3.54,10.73,10.73,0,0,0,5.33,1.61,5.26,5.26,0,0,0,3.41-1.94c9-10.36,15.3-22.09,17.33-35.78C176,700.92,174.8,698.44,174.32,696Zm396.21-21.66c-14.89,6.7-21.8,15.56-26.21,26.61a12.87,12.87,0,0,0-.64,7.89c.66,2.14,3,4.23,5,5.3.91.47,3.79-1.2,4.68-2.61,5.1-8,10.12-16,14.64-24.32C569.48,684.6,569.31,681.07,570.53,674.37Zm-361.06,19c3.09,15.62,5.5,27.83,7.94,40,.13.61.49,1.47,1,1.65,2.33,1,4.74,2.35,7.12,2.33,1.2,0,3.31-2.48,3.48-4a47.26,47.26,0,0,0-10.3-35.59C217.3,696.06,214.25,695.6,209.47,693.42Zm140-415c5.5,5.28,12.89,4.5,19,7,6.76,2.8,13.22,6.31,19.76,9.48,4.47-5.76,4.9-8.66,1.23-11.67-10.51-8.63-22.51-12.32-36-9.39C352,274.18,350.92,276.74,349.51,278.43ZM399,502.14c-16.9-1.48-29.76-2.59-43.46-3.78,2.93,8.55,8.57,11.51,15.15,13.48,7.2,2.16,14.57,3.11,21.54.08C394.53,510.91,395.66,507.13,399,502.14Zm117.77,275c-14.41-2.77-27.54-.13-40.48,4-4.57,1.45-5,4.29-2.17,11.65,13.89-4.12,28.9-4.21,42.16-11.3C516.58,781.27,516.43,780.21,516.75,777.15ZM290,611.27c-9.6-9.68-9.77-10.33-16.95-10.54a69.74,69.74,0,0,0-18,2c-1.9.45-3.67,4-4.31,6.43-.58,2.23.45,4.88.78,7.31ZM460.42,434.34c13.46,6.57,22.47,11.09,31.62,15.3a8.1,8.1,0,0,0,5.81.21,7.31,7.31,0,0,0,4-4.11c.48-1.57-.12-4.77-1.19-5.3-8.47-4.15-17-8.43-25.89-11.29C471.93,428.25,467.77,431.53,460.42,434.34Zm27.87,224.93c-12.56-1.4-23-2.56-33.48-3.67a2.42,2.42,0,0,0-1.87.64c-1.69,1.88-4.41,3.82-4.55,5.89s2.34,5.87,3.87,6a239.93,239.93,0,0,0,30,.29C484,668.28,485.49,663.65,488.29,659.27ZM186.87,703.81c-8.05,10.11-12,21.51-16.7,32.4-.78,1.79.11,5.62,1.59,6.84,3.15,2.56,6.29.59,8.43-2.35,6.9-9.55,9.61-20.57,10.63-32C190.94,707.36,188.62,705.88,186.87,703.81Zm153-175.25c7.44-1.93,9.66-6.29,7.32-11-4.18-8.52-10.61-15.53-19.73-19-3.42-1.33-7.75-2.8-11,3.18ZM325.09,744.82c1.32-2.85,2-3.6,1.8-4-5.58-12.44-15.6-21.65-23.8-32.19-.73-.92-4.17-.87-5.38,0s-2.2,4-1.55,5.19C302.93,726.35,310.93,737.79,325.09,744.82Zm173.28-60.31c-1.74-.67-3.5-2-5.23-1.92-14.23.49-25.86,6.76-35.41,17-.89,1-.79,4.16.11,5.15s4,1.73,5.23,1C474.38,698.74,485.16,690.78,498.37,684.51ZM212.66,741.64c-.77-3.63-1.51-7.61-2.46-11.54-1.31-5.37-3.24-10.44-8.92-12.73a5.28,5.28,0,0,0-3.81,0c-1,.5-1.62,1.93-2.2,3a3,3,0,0,0-.14,2C197,731,198.6,739.57,201,748c.5,1.76,3.86,3.32,6.12,3.68,1.2.2,3.3-2.1,4.18-3.71S212.2,744,212.66,741.64ZM364.17,364.58c.22-3.6.86-5.34.29-6-8.77-9.59-19.87-13.06-32.58-11.69-4.25.46-5.5,3.81-3.95,11.13C340.12,355.32,351.39,359.75,364.17,364.58Zm144.3,355.68c-3.69-8-9.25-8.15-14.46-8.79-8.37-1-16.09,1.19-23.3,5.25-6.4,3.58-7.51,6.63-5.56,15,6.68-3.25,12.93-7.43,19.79-9.3S499.33,721,508.47,720.26ZM252.76,484.6C245.9,473.52,242,471.43,233,473.29s-12.21,6.12-12.93,16.39Zm272.4,221.78c5.12-9,9.84-17.1,14.2-25.34.78-1.46.73-4.95,0-5.3-2.1-1-5.39-2-7.06-1.06-9.38,5.44-13.93,14.44-15.56,24.74C516,704.41,519.53,706.49,525.16,706.38Zm-106.07-174c2.51,7.62,9.15,11.07,15.27,14.68,4.79,2.83,9.94,8.27,15.95,2.92,3.55-3.18-.67-9.35-10.36-14C433.66,533,427.51,527.39,419.09,532.42Zm-63-224.26c-7.63-13.08-10.72-15.07-21-14.14-5.7.52-10.59,2.29-9.92,10.87ZM624.57,723.32c8.81-9.79,16.52-13.91,21.34-21.25.91-1.37,1.08-4.19.24-5.43A5.84,5.84,0,0,0,641,694.9c-8.85,2.41-15.32,8-18.57,16.55C621.72,713.41,623.22,716.23,624.57,723.32Zm-331-235.77c-6.84-.38-12.89-1.17-18.85-.73-1.68.12-3.68,3.63-4.4,5.92-.42,1.35,1.21,4.69,2.31,4.89,4.52.77,9.28,1.41,13.74.73C290.42,497.75,293.65,494.94,293.59,487.55Zm81.47-275.71c5.9,8.64,12.34,13.29,22.11,10.79-1-2.86-1.18-5-2.36-6.3-1.73-1.85-4.05-4-6.36-4.3C384.08,211.36,379.53,211.84,375.06,211.84ZM344.14,713c-.61-1.57-1.24-3.21-1.88-4.84-.94.47-2.74,1-2.7,1.41a32.74,32.74,0,0,0,1.39,5.22C341.84,714.23,342.74,713.73,344.14,713Z"/></g></g></svg>