<svg xmlns="http://www.w3.org/2000/svg" viewBox="0 0 745.43 706.88"><defs><style>.cls-1{fill:#d364e7;fill-rule:evenodd;}</style></defs><g id="Camada_2" data-name="Camada 2"><g id="Camada_1-2" data-name="Camada 1"><path class="cls-1" d="M382.24,70c.53-3,.16-5.65-4.72-4.69-3-11-6.41-21.87-8.69-32.94-.67-3.24.62-8.31,3.23-10.16,3.61-2.55,9.33-2.84,15.5-4.46,4.79,14.14,9,26.59,13.3,39.32,2.67-1.22,5.8-2.16,5.72-2.68-2-12-4.38-24-8-42.87,6.73,7.76,9.8,9.88,10.69,12.55,3.83,11.59,7,23.33,14.85,34.32-.93-8.25-1.87-16.51-2.77-24.77-.62-5.66-2.14-11.42-1.39-16.94.39-2.8,5-7.27,7.54-7.22,3.24.05,7.95,3.45,9.24,6.33,2.31,5.24,2.84,11.12,3.61,16.78,1.14,8.43,1.83,16.89,2.77,25.86,9.35-1.8,5.43-7.43,6-11,.81-5.65.12-11.47.67-17.16.45-4.69,1.78-9.32,2.72-14,16.92,2.67,19.09,4.62,16.8,14.89-2.65,11.91-5.43,23.79-8.55,37.4,11.74-4.37,8.36-12.52,11.43-18,3.32-5.95,5.55-12.35,8.24-18.53,11.51-2.15,14.7,4.79,14,11.15-1,9.35-5,18.45-7.5,27.69-1.18,4.31-2,8.71.41,14l16.24-27.26c8.94,2.9,6.21,8.14,4.93,11.75-4.37,12.41-10.83,24.29-14.29,39.41,16.71-7.57,13.7-24.13,26.84-30.19,8.89,1.57,10.13,7.23,8.62,13.1-3.6,13.94-8.07,27.72-12,41.61-1,3.42-1.33,7,2.49,11.65,5.71-13.37,11.42-26.73,17.87-41.8,5.12,13,6.22,20.36,4.31,30.54-1.73,9.18-3.94,18.31-3.85,27.91,17.4-17.86,3.83-45.6,26.68-63.22,11.75,15.82,4.7,33,10.73,53.84,3.48-7.89,5.65-10.6,5.75-13.38.37-12.24.16-24.51.16-41,6.61,4.62,11.08,6.14,12,8.61,3.76,10.64,6.48,21.56,14.22,31.82V95.59c13.62,14,16,28.49,28.23,43.56,1.22-20.59-7.26-34.2-11.46-48.63-.91-3.16,3.41-7.46,7.12-14.78L662,121c2-21.31-13-34.45-13.4-52.15,15.1.71,23.52,10.71,34.4,15.07,5.7-4.15,2.27-7.18-.61-9.81-6-5.52-12.79-10.42-18.33-16.25-4.7-4.93,1.56-15.07,9-15.07,4.32,0,8.63,1,12.93,1.67,5.35.81,10.65,1.81,16,2.53.84.1,1.87-.9,4-2-3.53-9.3-16.25-7.83-22-13.8-1.75-1.8-2.81-5.39-2-7.44s4.73-4.57,7-4.37c10.75.95,21.4,2.76,32.55,4.33.93-13.09-16.38-7.64-19.3-15.89,1.24-1.25,2.34-3.44,3.77-3.62,13-1.61,25.93-1.91,39.44,3.76-2.67,12-8.19,22.14-14.06,32.16Q709.73,77.1,687.9,114c-4.52,7.64-9,15.29-14.1,22.66-30.19,44-77.37,59.87-133.53,59.17-35.71-.45-56-16.44-69.84-47.88-4.26-9.64-4.8-20.49-7.4-30.71-1.64-6.47-2.75-13.32-6.13-19.11C445.07,78,431.09,72.22,406.38,82.32c-32,13.08-53.11,32.87-64.31,61.41-2.49,6.33-5.16,12.61-7.25,19-12.12,37.06-34.08,70-56.84,103.79-9.89.35-19.64.74-29.4,1-11,.29-22.09.31-31,7.35h.15c-13.35-10.05-15.43-24.76-20.42-38.15-.89-2.41,2.89-6.12,4.51-9.22,15.29,5.88,15.69,23.68,36.56,28.43-6.72-16.48-21.57-26.32-18.85-42.88,17.31,2.16,18.86,22.11,37,21.6,0-2.42,1.13-5.6-.22-7.16-3.88-4.5-9.43-7.94-13.13-12.51-9-11.08-7-21.13,5.5-29.92,13.3,5.27,16.59,20.11,30.73,24.3,1.18-1.74,3.37-3.8,2.91-4.46-7.88-11.32-16.08-22.47-24.76-34.41,3.79-6.8,7.34-13.23,10.8-19.44,4,1.19,6.79,1.25,7.86,2.47,5.95,6.8,11.29,14,17.32,20.75,1.49,1.67,4.78,2.14,12.68,5.41-6.81-10.43-11-16.6-14.88-22.9C287.72,151,284.13,145.05,281,139c-5-9.76-3.21-18.54,7-26.78l20.37,15.14,2.94-1.9c-3.83-7.57-8.66-14.9-11.17-22.78-1.92-6.08-1.16-12.87-1-19.33,0-1.06,2.91-2.73,4.63-2.92s5,.56,5.69,1.72c3.42,5.93,6.08,12.18,9.25,18.22,2.1,4,4.65,7.76,9.78,16.25.09-24-16-40.88-8.21-60,.39-1,3.82-1,7-1.66l24.11,32.38,4-1.51a79.8,79.8,0,0,0-2.88-9.12c-3.93-8.87-8.75-17.5-12-26.54-2.49-6.88.36-13,9.45-17.9,4.47,5.2,8.7,10.46,13.34,15.44,5.2,5.59,5.2,14.65,15.1,17.08"/><path class="cls-1" d="M259.21,516.85l-27.64-46.3c6.94-8.29,13.41-5.92,17.9-1.44,6.76,6.76,12.14,14.56,20.4,24.74,2.68-18.39-13-27.33-14.49-40.46,4.21-5.44,8.73-4,13.28-.32,6.28,5.09,12.54,10.2,19,15.42,7.35-7.85-1.37-10.74-3.64-15.34-3.55-7.25-18-11.93-10.07-21.53,6.33-7.66,16.33,1.9,24.71-.05,1.84-.43,3.49-1.51,5.43-2.37l-22-14.27c2.26-14.41,19.85-8.85,25.49-19.71L293.41,389c-11-14.13,7.07-25.07,5.66-38-6.7-3.81-7,1.63-9.31,3.72s-4.23,4.14-6.11,6c-9,.39-12.37-3.86-12.32-10.41.05-7.62,1.08-15.24,1-22.86,0-3.41-1.72-6.8-3-11.45-13.09,7.87-1.64,24.55-19.28,29.51-10.81-10.6,2.84-28.71-15.42-40-.87,13.66-1.61,25.12-2.6,40.74-6.05-5.1-9.42-7.06-11.41-9.77-6.29-8.56-5.61-20.33-18.87-29.76,2.06,14.05,3.69,25.18,5.16,35.19-7.35,5.25-12.3,3.66-16-.25-4.88-5.09-9-10.76-13.55-16.35-7.76,6.88,1.16,12.63.43,18.56-.48,3.95-3.71,7.65-6.37,12.71-13.19-10.63-17.9-21.69-17.84-35.87,24-18.14,51.54-31.66,83.61-35.73,30.9-3.91,59.18,2.31,79.39,25.13,15.61,17.62,25.77,36.68,28.18,59.77,4.11,39.47-5.86,75.46-25.9,110.43C306.56,501.78,288.75,514.75,259.21,516.85Z"/><path class="cls-1" d="M173.35,210.62c-6.2-9.69-12.93-19.16-18.43-29.14-4.74-8.63-3.57-16.67,8.94-22.56l28,31.94c-1-8.22-.5-11.1-1.75-13.2-4.53-7.59-10-14.77-14.44-22.39-5.1-8.69-3-16.63,6.12-24.51,13.67,3.55,14.41,19.89,27.84,24.06,4.58-5.95-1.08-9.32-3.36-13.2C201.8,134,195.7,126.93,192.46,119c-1.84-4.52.64-10.37,1.41-18,18.7,7.17,19.23,25.2,33.5,31.9,6.06-2.63,3.26-5.77,1.23-8.91-6.44-10-13.34-19.76-19.1-30-5.36-9.54-3.27-18.58,7-27.49,4.25,3.91,8.71,7.59,12.6,11.67,4.14,4.36,7.74,9.1,15.68,18.58-1.81-9.11-1.74-13-3.37-16.14-4-7.83-9.34-15.17-13.18-23.06s-1.62-14.63,8.62-19.27l28.88,39.27c-1-8.74-.61-11.67-1.79-14-4-7.82-8.84-15.3-12.7-23.15-2.43-4.93-7.06-10.2-.25-15.51,4.52-3.54,9.43-.75,16,9.26,2.6,4,5.19,8,7.76,11.92,7.22-2.15,4-6,2.95-9-2.39-7.2-5.23-14.28-7.68-21.46-.21-.56.87-1.9,1.68-2.19,1.85-.66,4.91-1.81,5.71-1.14,6.19,5.08,11.95,10.56,20,17.92-1.2-8.61-2-14.62-3-21.32,20.67-3.39,39.73-2.42,58.53.51-16.06,14.57-32.91,28-47.1,43.35-10.15,10.94-17.77,24-24.63,36.8a228,228,0,0,0-16.79,40.22c-8.17,26.63-25.63,48.65-45.8,68.71-30,29.9-66.12,49.78-115.68,42.32-6.26-11.66-15.73-22-13.61-40.57l23.88,26.13c-2-9.88-3.35-15.88-4.5-21.9s2.66-8.62,10.77-9.94c3.74,4.75,8,10,12.11,15.39,3.54,4.64,6.92,9.36,14.65,19.84-1.34-10.09-1.09-13.57-2.35-16.57-2.65-6.25-6.83-12.07-8.9-18.43-1-3,.15-8.09,2.62-10,3.82-3,7.91-.15,10.47,3.28,6.43,8.63,12.81,17.26,19.22,25.9Z"/><path class="cls-1" d="M421.23,143.07c2.9-2.31,7.51-4.22,8.36-7,2.48-8,.48-17.41,12.26-24-3.18,25.46-6.22,49.75-9.25,74.05l3.56.73c3.74-9.4,7.48-18.8,13.79-34.58V198c12.11-5.17,2.89-18.59,17.58-21.79l-3.22,32,15.75-11.58c1.44,1.41,3.94,2.82,3.73,3.8-3.93,18.61-13,35.51-22,52.34-12.46-3.54-15-12.3-19.83-19.66-12.51-18.9-26.67-22.43-49.46-14.14-25,9.12-35.45,27.08-41.05,48.39-1.44,5.46-2.49,11.11-4.91,16.25-2.77,5.88-6.87,11.29-11,17.9-14.06-9.94-26.76-18.81-39.25-27.89-1.46-1.05-1.75-3.29-2.61-5,2-4.65,5.76-5.13,9.84-2.55,5.87,3.69,8.8,8.24,11.38-3.23,2.15-9.6,9.26-16.92,7.73-21.29-3-8.59-4.24-16.65,5.13-23.54,4.36,5.37,8.49,10.49,15.82,19.54.27-21.32-13.17-38.72,2.2-56.65l13.6,29.77,4.43-1.06c-1.1-5.95-1.82-12-3.4-17.84-4.83-17.87-6-35.86-1.63-53.82,1-4,5.36-7.42,10.58-14.26,6.22,24.7.5,46.82,9.53,71,5.72-13,2.24-22.33,1.88-31.73a337.84,337.84,0,0,1,1.15-45.44c.45-4.55,6-8.74,9.36-13.28,3.45,2.38,6.26,3.43,6.27,4.48.26,22.71.2,45.43,2.06,68.25,5.77-16.84,6.37-34.2,8.68-51.34a198.26,198.26,0,0,1,4-22.53c.62-2.5,3.45-4.87,5.91-6.64,1.26-.92,3.91-.39,8-.64-1.46,16.09-2.91,32-4.27,47.92-4.41,9.28-5.82,18.57-1.14,28C423.14,162.14,427.7,152.62,421.23,143.07Z"/><path class="cls-1" d="M522.72,317c11.91,4.35,18-9.93,29.34-7.38,2.11,9.08-10.81,14.24-7.67,24.84l20.32-12.1c-7.07,26.59-18.33,50.62-31,66.39-15.08-4.09-25.74-12.75-34.1-24.42-23.92-33.36-29.21-69.56-20.11-107.21,4.19-17.33,6.29-36,21.68-49.77,14.55-2.62,25.67,4.87,37.69,7.12,3.48,11-9.59,9.17-13.1,14.52,7.25,4.42,13.87,5.22,20.17-.7l-.46.82c-9.66,6.83-19.34,13.67-30,21.2,12.71,2.89,23.64-6.69,35.56-.73-6,13.77-25.53,9.77-35.75,21.61l26.18,2.43c-.42,10.62-17.37,10.68-18,21.18l-7.77,1.89c.65.65,1.29,1.32,1.94,2,1.75-1.48,3.48-3,5.22-4.47l27.68-5c-10.71,11.2-19,19.79-27.19,28.4l-8.52,1.47L518,322Zm1.52,31a9.87,9.87,0,0,0-2.9-.57c-.39,0-.63,1.2-.94,1.85a9.27,9.27,0,0,0,2.86.48C523.69,349.75,523.92,348.67,524.24,348.05Z"/><path class="cls-1" d="M78.76,189.85C70,173.51,62.2,159,53.65,143.07l17.22-9.42,23.69,27.94c8.91-2.54,5.52-7.66,4.53-11.49-2-7.85-11.32-14.42-5.7-23.66,16.52-.28,17.41,15.09,30.43,23.23,0-6,1-9.39-.19-12.08-2.72-6.18-7-11.87-9.56-18.09-.83-2,.86-5.91,2.89-7.26s7.1-1.79,8.8-.53c5.54,4.08,10.16,9.12,16.45,15,6.57-11.12-3.26-17.33-5.76-24.78C134,94.68,139,90.52,149.17,91.87c3.16.41,6.28,1,9.2,1.56,6.09-5.24.27-8.67-1.53-12.58-2.91-6.3.53-11.6,5.42-15.21,2.41-1.77,8-.31,13.19-.31,5-4.07-2.53-7.23-2.84-11.22-.35-4.51-.08-9.06-.08-14.73l23.29-2.74c.26-7.1-8-5.64-10.79-9.07A18.78,18.78,0,0,1,180.91,18c-.08-.94,5.19-3.24,8-3.24,6.16,0,12.31,1.07,19.81,1.83-2.12-4.2-3.74-7.42-6-11.82,14.5-2.75,27.35,1,43,4.61C210.61,41,194.53,79.77,174.37,116.6c-4.23,7.72-9.92,14.88-13.72,22.74C146,169.75,117.66,183.42,78.76,189.85Z"/><path class="cls-1" d="M440,521c1.08,6.44,3.09,12.9,2.79,19.27-.13,2.76-4.6,6.85-7.88,7.53-2.39.49-7.66-3.09-8.8-5.76-2.46-5.83-3.11-12.24-5-20.67-8.39,12.2.5,25.52-13.37,36.29-5.67-13.58-1.66-25.95-5.6-40.61-7.84,14.58-1.39,30.91-17,39.16-6.88-.26-6.59-5.05-6.11-8.25,1-6.55,4-12.87,4.84-19.43.77-6-.24-12.21-1.82-18.44-6.36,14.24-7.22,30.09-20.53,41.4-16.94-7.92-17.66-8.86-12.53-20.35,3.17-7.08,7.35-13.83,10.3-21,2.12-5.11,3-10.62,5.58-20.44-16.5,11.43-15.07,28.91-30.78,34.89-8.13-8,7.36-13.63,1.93-21.32l-9-3c9.93-20.57,19.85-41.09,29.59-61.28,2.86.53,4.4.54,4.5.88,3.26,10.88,3.41,23.13,15.86,30.19a91,91,0,0,0,46.5,11.74c15.24-.22,30.45-2.37,47.91-3.86,3,3.34,7.8,7.25,10.32,12.06,2.25,4.3,1.47,10.09-4.46,12.21-3.05,1.08-7.55-.92-11.76-1.57-.88,9.87-1.75,19.74-2.54,28.64-13,4.21-12.72-11.87-23.36-8.06,2.74-4.08,7.09-8.14-.92-12.76C439.2,513.51,439.6,517.26,440,521Z"/><path class="cls-1" d="M297.57,545.91l-20.86,4.69c-3.64-5.19-7.26-10.33-11.21-16,13.7-10.22,30.4-8.27,44.79-16,13.71,21.88,28.4,41.92,55.6,51,22.83,7.62,45.27,3.31,67.6-2.26,2.22,22.7-2.24,35.54-18.54,51.75l-5.2-12.87c-1.61.65-4.36,1-4.68,2-2.91,9.1-5.17,18.38-8.21,27.46-.8,2.41-3.66,4.3-8.85,10.11.92-14.09,1.57-24.25,2.23-34.42-9.95,12.84-7.73,31-30.71,40.11,1.55-14.38,2.82-26.07,4.45-41.15-6.55,11.44-10.94,19.86-16.17,27.87-2.11,3.23-6.93,5.88-10.63,2.37-2.32-2.2-3.53-7.13-2.32-9.87,2.71-6.15,7.79-11.49,10.87-17.54,2.5-4.91,3.5-10.4,6.22-19-15.36,7.75-12.82,26.54-31.79,25.14-11.23-13.66,17.76-19.05,9-32.63-4.9,3.4-9.26,7.16-14.39,9.77s-11.4,2.16-14.13-2.81c-1.44-2.62-.54-7.65,1.62-10,5.85-6.49,15.64-10.68,14.7-21.38-6.52-2.32-8.48,3.61-12.57,5.23-4.89,1.94-9.66,4.09-14,6-8.29-4.17-9.44-8.91-2.94-13.78C292.26,556,299,554,299.16,547.12c1.48-1.63,3-3.2,4.35-4.94.16-.19-1.16-1.22-1.79-1.86C300.34,542.18,299,544.05,297.57,545.91Z"/><path class="cls-1" d="M40.69,88c.49-4.65,1-9.29,1.57-14.9,15.6,1.61,16.66,18.35,31.21,22.74C75,80.76,57.63,74.27,57.64,59.79c3.49-.24,7.82-1.72,10.67-.52C76.06,62.52,83.2,66.9,90,70.54c6.51-4.16,3.41-7.49.6-9.9-6.22-5.34-13-10.18-19.46-15.14C75.49,34.31,77.82,32.43,85,34.92c4,1.38,7.61,3.6,11.49,5.26,3.44,1.47,6,5.84,13,1.56-4.14-4.1-7.69-8.39-12.14-11.8-4-3.1-9.45-4.85-13.45-8-2-1.56-3.91-6.11-2.92-7.1,2.4-2.41,6.64-5,9.93-4.86,7.53.45,14.93,2.53,24.07,4.26,1.38-3.6,2.61-6.77,4.28-11.1C131.37,1.05,144,1.38,158,3.46c9.83,25.47-1.31,47.39-16.45,67-22.37,28.92-51.15,51.71-94,57.33-13-13.18-19.6-27.33-22.55-44.95l16.48,4.74c-2.57,6.92-1.44,12.52,8.49,16.34C48.07,97.14,50.25,90.21,40.69,88Z"/><path class="cls-1" d="M424.38,347.4c7.24,19.5,7.24,41.63,16.28,65.64,9.18-22.35-6.84-41-.41-62.54,4,4.44,7.79,6.83,8.42,9.74,3.8,17.6,6.88,35.33,10.71,55.75,8.63-13.68,1.68-27.08,7.48-41,2.91,3.23,6.28,5.28,6.72,7.73,2.51,14,4.75,28.12,6.26,42.25,1.92,17.84-14.25,37.23-34.54,39.53a180.8,180.8,0,0,1-42.55-.47c-15.91-2-25.34-12.22-25.52-25.91a207.8,207.8,0,0,1,4.55-48c2,6,3.87,12.1,5.86,18.13,1.79,5.46,3.64,10.92,5.42,16.2,5.78.33,9.35-1,8-6.16-2.43-9.28-5.66-18.4-7.77-27.72-2.32-10.19-5.06-20.56.85-30.52,5.52-1,8.47,1.19,9.37,5.51,2.55,12.17,4.72,24.41,7.55,36.53.74,3.13,3.36,5.93,8.71,14.89.84-10.14,1.84-13.54,1.27-16.73-2.63-15-6.05-30-8.42-45.07C411.86,350.28,414.12,345.69,424.38,347.4Z"/><path class="cls-1" d="M668.64,6.5c-.43,3.53,0,7.43-1.44,10.68-12.63,28-35.76,47.53-66.3,60.76-18.81,8.16-46.62,2.24-63-13.1a75.16,75.16,0,0,1-9.61-11.59C518,38.74,509.16,23.3,492.59,12.85c-2.09-1.31-2.16-5-3.27-7.94,14.1-5.44,23.45-1.28,29.86,9.63L533,6.37c2,11.13,3.43,19.33,4.82,27.21,5.71,1.65,8.71,1.24,9.5-4.15.87-6-5-12.63,3.76-19.6,8.24,13.14,5.5,28.08,14.86,40.28q1.47-19.29,3-38.57l3.73-.63c1.56,3.56,3.52,7,4.59,10.69,2,6.93-2,15.48,8.71,21.49,7.78-11.52-1.48-25.95,8.48-38.38,15,9.32,5,27.46,20.37,34.86,1.36-10.43,2.68-20.59,3.93-30.16,6.44-1.95,9.61-1.14,10.69,3.91,1.12,5.23-1.24,11.77,7.23,15.12,6.84-1.61,4-7.2,5.06-11.06C645.5,3.21,645.44,3.17,668.64,6.5Z"/><path class="cls-1" d="M360.84,299.61c8.3,4.45,7.61,14.78,18.54,23.56-1.85-25.17-17.69-46.34,1.31-67.62,3.9,15.35,7.38,29.08,11,43.5,8.68-2.81,5.88-7.95,5.65-11.7-.8-13.3-2.89-26.58-3-39.88-.05-4.6,4.23-9.25,8-16.81,15.43,22.48-4.23,45.68,9.92,65.52,8.39-5,4.43-11,5.14-16,.81-5.65.45-11.41.81-17.12s1-11.21,1.44-16.4c7-1.47,9.14,1.34,9.37,5.54,1,17.12,1.76,34.24,2.63,51.36,7.88,8.74,18.33,7.38,29,5.5,2.73,9.07,5.47,18.15,8,26.67-6.13,5.47-10.79,1.75-15.62.11-35.8-12.22-53.5-8.12-76.92,17.84-2,2.24-3.85,4.64-7.85,9.48C363,350.72,359,341.39,355,332,374.7,323.22,352.16,309.52,360.84,299.61Z"/><path class="cls-1" d="M222.72,457.92c-3.29-11.53-5.79-20.33-8.56-30.08l16.08-17.34-26.73,8.22c-11.38-10.51,3.43-15.65,4.3-24.35l-18,1.68c2.24-9.27-2.11-15.55-9.22-21.14,10.34-14.94,29-11.34,44.18-14.29,12.21-2.36,23.92,2.38,34.08,8.46,11,6.55,17,16.61,12.86,27.32C262.71,419.74,252.21,442.87,222.72,457.92Z"/><path class="cls-1" d="M8.88,37.43C12.4,27.28,30.19,42.19,31.3,27.22L0,19.44C10.36,8.8,24.57,17.61,37.7,9.25L.86,6.21C17.16-1.45,27-1.74,65.65,3.79c4.45,15.3-4.2,28.6-11.17,42C47.85,58.58,34.66,62.61,20.63,64.59c-7.95-3.74-9.6-10-4.93-14.46,10.27-9.81-4-7-6-10.28A9.82,9.82,0,0,1,8.88,37.43Z"/><path class="cls-1" d="M608.47,219.46,630,203c6.78,10.06-.81,16.14-4.63,21.91-15,22.56-20.52,50.25-47.76,68.61-10-25.38-2.74-48.66-.17-74,11,.33,20.79-8.16,31.7.46-3.6,2.5-7.2,5-10.72,7.47.79.56,1.79,1,2.09,1.73.22.49-.52,1.29-.83,1.95-.22-1.32-.42-2.62-.64-3.93C607.34,229.35,609.88,226.21,608.47,219.46Z"/><path class="cls-1" d="M365.83,706.88a84,84,0,0,1-16.34-41.49c13.12-5,24.81.83,39.56.44-5.79,11.95-10.1,21.35-14.92,30.55C372.48,699.53,369.59,702.19,365.83,706.88Z"/><path class="cls-1" d="M153.17,304.22c-8.26-.55-14.22.35-15.26-1.22-8.68-12.9-16.63-26.2-24.18-39.63-.8-1.41,2-4.85,3.91-6.64.77-.7,4.66-.09,5.8,1,3.64,3.4,7.26,7,9.73,11.07C139.21,278.7,144.58,288.9,153.17,304.22Z"/><path class="cls-1" d="M217.62,274.91l-30.53,4.45c-10.52-5.95-11.93-17.58-14.55-28.43-.51-2.09,1.76-6,4-6.92s7,.06,8.48,1.69a59.48,59.48,0,0,1,9.92,14.57c4.24,9.14,13.45,11.77,22.8,14.64Z"/><path class="cls-1" d="M142.41,256.05c6.69-.33,11.25-1.58,12.31-.42,6.54,7.16,13.27,14.45,18,22.53,4.14,7-.18,12.39-10.25,15.26C152.21,283.78,148.42,271.34,142.41,256.05Z"/><path class="cls-1" d="M489.18,476.25c-2.1-.72-3.34-.85-4-1.45-1.49-1.27-2.69-2.77-5.58-5.87,5.39-7.7,11.22-16.05,16.74-24,8.91-.13,10.36,4.36,8.86,8.94C502.28,462.7,498.6,471.4,489.18,476.25Z"/><path class="cls-1" d="M439.72,290.43c1.09-9.52,1.71-14.86,2.77-24.1C448,278.7,448,278.7,439.72,290.43Z"/><path class="cls-1" d="M500.93,397.41c11.27.61,22.17,1.78,21.81,13.09-2.7.19-5.18,1-6.07.31C511.22,406.53,506.13,401.92,500.93,397.41Z"/><path class="cls-1" d="M507.74,432.48c-2.24-2.88-4.56-5.46-6.19-8.34-.29-.5,2.36-2.25,3.65-3.43,2.75,2.49,5.52,5,8.28,7.43Z"/><path class="cls-1" d="M545.9,228.31l3.3,2.54c-1.25-.53-2.51-1.06-3.76-1.66C545.44,229.13,545.9,228.31,545.9,228.31Z"/></g></g></svg>