<svg xmlns="http://www.w3.org/2000/svg" viewBox="0 0 1021.22 1115.15"><defs><style>.cls-1{fill:#e56df6;fill-rule:evenodd;}</style></defs><g id="Camada_2" data-name="Camada 2"><g id="Camada_1-2" data-name="Camada 1"><path class="cls-1" d="M1020.41,16.93c4.41,31.82-9.78,52.34-27.38,70.78-4.56,4.78-13.11,7.44-20,7.91-13.31.9-26.8,0-40.14-1-51.24-3.75-97.57,8-137.23,42-11.3,9.66-22.86,19.08-34.67,28.11-5.79,4.44-12.11,9.79-18.85,11-6.31,1.1-14.71-1.16-19.82-5.05-3.36-2.57-5-11.71-3.14-16,5.9-13.49,11.71-28,21.36-38.67,24.92-27.48,50.9-54.22,78.33-79.19C841.59,16,870.2,6.21,901.16,7.8,939.67,9.78,978.08,13.59,1020.41,16.93Z"/><path class="cls-1" d="M92.26,94.14c38.54-.5,51.09,8,60.33,43.15,6.82,26,11.57,52.47,16.37,78.89,8.94,49.32,23.5,95.6,60.57,132.32,10.29,10.17,17.56,23.87,24.38,36.92,4.73,9.06-.53,20.91-9.51,27.42-8.26,6-17.49,6-25,0-9.19-7.42-18.1-15.76-25.12-25.2-15.15-20.36-30.06-41.06-43.21-62.75-35.74-59-60.56-123.3-88.32-186.15-2.37-5.35-3.14-11.53-4-17.43-2-14.25,4.39-23.11,18.44-25.51C83.14,94.75,89.14,94.46,92.26,94.14Z"/><path class="cls-1" d="M330.54,89.77c.43-6.84.68-23.33,2.73-39.6a117.44,117.44,0,0,1,8.41-30C346.61,8.55,359.83,2,370.87,3.89s20.76,12.13,22,25c.83,8.86.17,17.88.13,26.82-.06,20.9-1.62,41.93.08,62.69,3.19,39.22,15.28,73.44,58.37,86.25,4.2,1.25,7.93,4.1,11.92,6.14,11.32,5.8,19.88,13.61,18.6,27.66-1.18,13.16-9.51,21.6-20.36,27.64-24.54,13.65-55.75,9.41-78.86-11.2-19.25-17.18-34-37.8-41.11-62.85-4.49-15.75-8.72-31.82-10.7-48C329.13,129.33,330.54,114.25,330.54,89.77Z"/><path class="cls-1" d="M609.77,145.6c2.83.49,10.72.34,17.29,3.21,78.81,34.55,109.4,107.53,81.92,182.83-3.94,10.77-11.75,20.9-20,29.11-13,13-33.35,7.24-39-10.42-3.16-9.79-3.78-20.36-6-30.48-3.46-16-6-32.27-11.29-47.62C625.38,251,615,231.16,595.45,217.9a158.79,158.79,0,0,1-14-11.1c-11.82-10.14-21.08-21.54-16-38.57C569.82,153.72,583.35,146.27,609.77,145.6Z"/><path class="cls-1" d="M795.46,243.14c-14.24-2.19-26.21-3.16-37.71-6-14.84-3.67-19.83-22.07-8.37-31.36,27.77-22.52,55.21-45.68,84.64-65.88,29.23-20.07,62.8-26.61,98.33-20.65,16,2.7,27.68,10.74,33.65,26,7.34,18.73,1.21,36.05-16.15,45.94a80.59,80.59,0,0,1-12.26,5.46c-33.56,12.32-67,25-100.83,36.58C822.82,238,808,240.19,795.46,243.14Z"/><path class="cls-1" d="M653.44,450.73c0-18.19-1-28.76.22-39.09,2.19-18.77,23-29.84,40.67-22.46s29.35,25.15,27.68,47.08c-4.6,59.9-16,118.35-40.3,173.77-8.24,18.8-20.09,33.29-42.08,35.82-12.91,1.48-24.39-5.87-27.08-18.1-3.27-14.79-4.06-29.51,2.67-43.88,6.33-13.51,11.78-27.41,18-41C647.86,511.16,656.57,478.34,653.44,450.73Z"/><path class="cls-1" d="M255.32,161.47c.8-17.81.83-35.71,2.65-53.43,1.34-13.17,10.5-20.82,23.14-24.13,11.13-2.89,22,2.8,24.16,13.61,1.75,8.69,1.92,17.7,3,26.53,2.8,22.15,4.64,44.51,8.89,66.4,7.67,39.62,26.41,72.39,62.63,93.27,6.32,3.62,12.92,7.84,17.39,13.4,11.52,14.34,3.54,36.08-14.23,37.34-30.49,2.16-59.22-2.78-81.36-27.16-26.14-28.81-37.58-63.59-42-101.21-1.74-14.77-1.89-29.72-2.77-44.59Z"/><path class="cls-1" d="M409.72,88.61c1.07-17,1.34-30.42,2.91-43.74,1.7-14.36,10.41-24.31,22.57-31.66,15.55-9.41,35.33-.89,37.14,17,1.19,11.83.1,23.88,0,35.84-.23,31.61,7.29,42.87,36.33,53.7,4.17,1.56,8.87,1.72,13,3.28,20,7.51,26.83,17.61,25.22,36.76-1.7,20.44-12.74,31.84-34.08,35.14-44.36,6.9-83.76-17.65-95.86-61.24C412.66,118.1,411.71,101.52,409.72,88.61Z"/><path class="cls-1" d="M168,124.37c1.15-16.05,8.95-24.28,20.8-29.21s25-2.28,31.74,8.54c5.29,8.56,9.58,18.71,10.85,28.59,3.37,26.48,5.32,53.15,7,79.79,3.35,51.73,26.29,93.67,62.85,129.14,10.05,9.75,13.36,20.23,8.95,27.09-5.42,8.41-19.51,8.47-31.76-1.06C238.63,336.3,208.24,299,197.3,248c-7.49-34.94-16.72-69.53-25.11-104.28C170.45,136.51,169.06,129.22,168,124.37Z"/><path class="cls-1" d="M266.92,589.41c19.71,0,32.9.15,46.09,0,59.89-.8,96.72-32.3,107.51-92.1,2.09-11.58,3.44-23.3,4.78-32.58,9.76-11.54,20-12.13,30.16-8.26,11.17,4.23,14.17,15.29,15.23,25.48,2.53,24,.18,48.1-12.35,69.08-30,50.18-74.74,79.76-132.27,88.91-11.21,1.79-23.87-.26-34.8-3.83-7.73-2.5-15.76-9.34-19.77-16.45C267.62,612.75,268.7,603.06,266.92,589.41Z"/><path class="cls-1" d="M603.83,733c-9.56-3.56-25.06-8.29-39.58-15.09-13-6.08-21.06-17.19-18.82-32.3,2.43-16.34,13.34-27.14,28.87-30.28,11.27-2.3,24.69-3.26,35,.7,40,15.28,65.57-2.11,86-34.12,1.59-2.47,2.44-5.43,4-7.91,5.41-8.38,13.3-12.07,22.8-9.08s14.63,10.6,14.22,20.35c-1.54,37.09-21,65.16-50,85C664.39,725.35,637.56,731.27,603.83,733Z"/><path class="cls-1" d="M624.31,324c.7,23-3.39,41.37-17.9,56.33C587.33,400,567,396,559,370.63a87.88,87.88,0,0,1-3.79-21.87c-1.77-34.19-14.85-63.32-38.38-87.9-7.57-7.9-13.3-16.07-9.21-27.71C511.56,221.87,525,213,539.38,213c19,0,34.27,8.75,47.61,21.35C610.71,256.8,623.77,289.49,624.31,324Z"/><path class="cls-1" d="M480.58,912.44c-13.74-24.87-12.13-44.09-.26-63.14,17.71-28.4,44.77-43.62,76.23-50.2,28.54-6,53.11,4.95,72.28,26.21,11.63,12.91,14.46,28.7,9.53,45.94-6.69,23.3-18.23,28.75-39.1,17.59-42.84-22.9-61.79-20.78-100.48,10.93C494.34,903.41,489.35,906.37,480.58,912.44Z"/><path class="cls-1" d="M743.86,330c24.93,8.52,51,8.89,77.25,1.24,5.44-1.58,11.85-.56,17.69.11,29.7,3.41,39.1,19.13,26.88,46-12.32,27.09-31.77,47.42-62.37,51.27-33.81,4.27-70.92-27.1-76-61.6C726,358.19,728,353.73,743.86,330Z"/><path class="cls-1" d="M653.5,113.35c3.13-26.1,5.31-52.81,20-76.69S709.74,1.71,736.42.06c8.39-.51,17.78,2.27,25.46,6.09C778.2,14.23,783.1,33,773.26,47.91c-4.88,7.39-10.6,15-17.7,20C732.05,84.63,712.68,104.8,698,129.62c-5.87,9.94-14.21,15.27-26.09,11.71S653.57,127.87,653.5,113.35Z"/><path class="cls-1" d="M.11,8.32c32.72-10.24,65-2,97-2,11.5,0,23.3,3.65,34.47,7.2,14.16,4.51,20.06,16.6,23.64,30.08,6,22.51-2.63,34.75-26.11,33.68-22.44-1-44.07-.06-66,6.36C42.88,89.6,31.61,84.59,22,66.87S-1.34,32.4.11,8.32Z"/><path class="cls-1" d="M366.36,796.27c.39-21.93,14.2-30.86,28.28-25.18,13.15,5.33,22,14.8,26.52,28.22,16.66,49.15,33.46,98.25,49.76,147.52,1.74,5.29,2.65,12.67.25,17.07-3.21,5.87-9.34,11.52-15.51,13.89-4.26,1.64-13-.68-15.76-4.28-7-9.29-12.56-19.91-17.24-30.64-11.84-27.09-22.48-54.72-34.36-81.78C378.15,837.94,367.75,815,366.36,796.27Z"/><path class="cls-1" d="M825.41,313.05c-21.51,1.41-40.8-6-59.1-16.82-8-4.73-15.18-10.47-13.39-21,1.83-10.77,10.69-13.09,19.93-14.15a21.65,21.65,0,0,1,4.48-.08c35.47,3.28,67.79-6.17,98.89-22.7,8.88-4.72,19.75-6.83,29.93-7.72,15.78-1.38,26.73,15.94,20.72,30.89-6.36,15.9-16.65,29.56-32.06,35.91C872.9,306.44,850.48,315.86,825.41,313.05Z"/><path class="cls-1" d="M484.43,729.92c-.1-21.67,16.52-31.61,31.05-23.21a59.2,59.2,0,0,1,10.88,7.79c27.82,26.27,62.33,33.41,98.84,35,11.92.52,23.9.31,35.75,1.45,15.79,1.49,23.12,12.46,19.68,28.14a59.55,59.55,0,0,1-2.42,8.59c-6.5,16.9-18.74,23-35.28,17.72a19,19,0,0,1-4.13-1.69c-24.82-15.34-52.68-20.28-81-23-25.33-2.43-44.48-16.52-62.48-32.18C489.23,743.15,486.61,733.8,484.43,729.92Z"/><path class="cls-1" d="M629,471.62c-2.67,14.35-6.5,37.84-11.54,61.08-4.56,21-19.3,32.76-39.12,38.82-16.64,5.1-29.53-6.82-26.15-24.5,1.41-7.28,4-14.32,6.17-21.45,7.8-25.68,15.14-51.29,10.57-78.85-1.14-6.83,1.39-14.54,3.32-21.55,2.65-9.66,10.2-14.27,19.71-15.6,10.92-1.5,20.68.28,27.48,10.29C627.47,431.72,630.27,443.06,629,471.62Z"/><path class="cls-1" d="M551.37,993.81c-21.5.73-41.71-9.88-48.21-25.32-8-19-.23-49.48,16.61-65.13,15.3-14.21,32.62-16.6,53.14-7.34,27.88,12.56,34.21,27.42,24.22,56.81C587.36,981.58,574.58,993,551.37,993.81Z"/><path class="cls-1" d="M249.24,537.51c3.32-4.08,5.53-9.49,8.55-10,7.11-1.16,15-1.41,21.86.54,13.38,3.82,26.31,2.62,39.79,1.24,17-1.74,27.24-10.75,33.49-25.63,5.79-13.71,10.78-27.78,17.19-41.18,3.71-7.78,17-7.83,23.26-1.51,8.13,8.17,10.34,17.91,8.35,28.8-8.53,46.72-51.48,81.81-98.78,81-17.11-.3-32.58-5-44.44-17.78C254.68,548.83,252.53,543.14,249.24,537.51Z"/><path class="cls-1" d="M577.09,1011.83c-14.28,43.78-30.34,74.39-56.38,103.32-23.37-29.78-33.75-63.66-47.4-95.66-2.4-5.65.58-13.61,1.28-23.34C508,1004.1,535.22,1027.3,577.09,1011.83Z"/><path class="cls-1" d="M419.17,632.71c1-21.61,22-36.14,40.95-26,18.18,9.74,34.88,22.62,51,35.63,10.89,8.76,10.85,26,.5,36-6.14,6-14.39,10.52-22.48,13.47C466.6,700.06,412.13,662.87,419.17,632.71Z"/><path class="cls-1" d="M523.14,404.33c-14.2,1.11-26.3-5.53-28-15.92-4.87-29.85-13.7-57.92-28.71-84.38-6.26-11,1.76-24.1,14.73-27.68,13.66-3.75,26.71-4.07,36.57,8.77,24.87,32.43,25.15,69.29,18.06,106.86C534.73,397.56,526,401.67,523.14,404.33Z"/><path class="cls-1" d="M582.76,105.41c1.33-27.73,1.9-48.26,3.44-68.71.95-12.84,8.12-21.91,20.32-26.64,13-5,25.8-6.88,37.86,2.3,11.2,8.54,12.4,21.63,8.06,32.25C643,67.7,631.25,90,619.09,111.81c-5.9,10.57-19.19,14.43-26.42,8.26C586.63,114.93,583.43,106.45,582.76,105.41Z"/><path class="cls-1" d="M490.15,55.71c1-26.6,13.16-41,35.93-42.41,20-1.25,31.7,5.21,39.79,22,9.54,19.76,7.36,40.41-5.71,54-12.86,13.41-34.95,19.22-48.94,12C492.71,91.69,489.3,74.57,490.15,55.71Z"/><path class="cls-1" d="M442.1,420.68c-11.53.11-20.44-4.15-23.49-15.92-4.45-17.09-8-34.39-12.24-51.54-2.84-11.58,1.17-20.35,10.56-26.77,10.64-7.25,22.08-8.24,33.3-1.64,13.51,7.94,21.77,20.1,23.62,35.61a154.37,154.37,0,0,1,.46,30.92C472.7,410,461.28,419.86,442.1,420.68Z"/><path class="cls-1" d="M289,511.12c-36.23-.41-58.8-21.65-59.61-57.2-.11-5.11,2.89-12.69,6.79-14.82s11.11.31,16,2.57c3.66,1.7,6.17,6.17,8.9,9.63,11.61,14.72,26.58,17.6,43.74,12.39,4.24-1.29,8.22-4.85,12.3-4.81,6.74.05,15,.2,19.88,3.88,7.05,5.3,6.08,21.47-.56,28.5C323.67,504.76,308,512.23,289,511.12Z"/><path class="cls-1" d="M733.25,475.78c-.28-19.86,11-30.22,30.57-27.15,8.7,1.36,17.2,4,25.74,6.36,26.52,7.16,31.33,18.09,18.25,41.1-11.21,19.73-23.25,25.69-43.44,21.49C743.93,513.33,733.58,499.44,733.25,475.78Z"/><path class="cls-1" d="M545.51,486.21c-3.55,10.18-8.33,25.52-14.33,40.37-3,7.45-10.54,11.59-18.18,9-6.51-2.24-13.81-6.67-17.21-12.27-3.52-5.81-4.15-14.3-3.62-21.44,1.2-16.25,3.34-32.48,6.1-48.54,2-11.53,10.6-17.83,22-18.05,10.6-.19,19.28,6.7,21.59,18.45C543.53,462.39,543.89,471.33,545.51,486.21Z"/><path class="cls-1" d="M204.84,5.19c19.2.28,34.51,17.28,34.56,38.38,0,18.08-15.27,33.36-33.65,33.59-22.62.28-36.27-17.3-35.72-46C170.31,15.62,184.73,4.9,204.84,5.19Z"/><path class="cls-1" d="M456.5,829.21c-17.67-18.86-20.9-40.09-18.77-62.58,1.39-14.69,16-23.8,28.94-17.14a91.43,91.43,0,0,1,27,21.39c9.75,11.37,8.58,24.69-.83,36.37C484.36,817.74,474.37,826.23,456.5,829.21Z"/><path class="cls-1" d="M380.34,678.8c1-2.74,2.61-8.4,5.1-13.61,2.92-6.1,14.61-9.19,19.38-4.65,14.92,14.19,29.92,28.37,43.63,43.68,6.77,7.56,3.53,17.3-2.46,24.48-12.38,14.86-33.72,15.28-47,1.63C387.31,718.3,379.86,699,380.34,678.8Z"/><path class="cls-1" d="M338.91,658.21c11.85.63,19.86,7.38,23.29,17.9,5.54,16.94,10.66,34.18,13.64,51.69,1,5.72-3.66,15.33-8.62,18.35s-14,1.12-20.74-.48c-3.79-.89-8.14-4.88-9.78-8.57-7.78-17.71-15.89-35.43-21.58-53.86C310.88,669.56,323.72,657.35,338.91,658.21Z"/><path class="cls-1" d="M396.11,393.45c-.18,21.34-10,33.65-25,35.36-18.73,2.13-31.06-7.15-34.72-26.23-.85-4.37-1.83-8.8-1.82-13.2,0-15.58,8.39-28.3,20.11-31.31,16-4.1,32.69,5.15,38.74,22C395.33,385.53,395.74,391.56,396.11,393.45Z"/><path class="cls-1" d="M778.48,573.68c-6.09,7.34-10.42,15-16.89,19.75-8,5.86-17.43,3.29-24.7-2.78-10.56-8.8-17.64-20-19-34.13-1.17-12.15,6.7-24.76,17.39-28.06,11.93-3.68,25.68,0,31.14,10.77C771.6,549.5,774.2,561.1,778.48,573.68Z"/><path class="cls-1" d="M550.13,589.48c10.33,0,11.81,0,13.29,0,14.06.52,27.49,3.32,31.2,19.2,1.5,6.4.42,15.15-3,20.57-6.42,10-28.66,14.27-40.52,9.8s-18.38-18.58-15.3-33.41C538,595,545.79,589.55,550.13,589.48Z"/><path class="cls-1" d="M283.43,9.93c2.91.37,5.87.54,8.74,1.15,10.28,2.19,20.48,5,24.16,16.47,2.59,8.11-6.37,23-17,28.43-9.93,5.07-19.83,4.75-28.92-2.48-1.15-.9-2.22-1.9-3.29-2.91C259.22,43,254.55,34.17,257.89,23,260.45,14.45,271,9.3,283.43,9.93Z"/><path class="cls-1" d="M321.65,418c-1.71,17.66-16.95,30.69-33.46,28.65-12.83-1.6-21.66-14.44-20.57-29.91,1.05-14.74,11.95-23.79,27.52-22.85C311.41,394.88,322.89,405.32,321.65,418Z"/><path class="cls-1" d="M497.15,551.6c18.94-.4,31,9.11,30.31,24-.77,17.35-13.12,29.85-30.91,31.31C483.44,608,472.86,594.57,472.17,576,471.64,561.27,481.18,552,497.15,551.6Z"/></g></g></svg>